<?xml version="1.0" encoding="UTF-8" standalone="no"?>
<!-- Created with Inkscape (http://www.inkscape.org/) -->

<svg
   xmlns:dc="http://purl.org/dc/elements/1.1/"
   xmlns:cc="http://creativecommons.org/ns#"
   xmlns:rdf="http://www.w3.org/1999/02/22-rdf-syntax-ns#"
   xmlns:svg="http://www.w3.org/2000/svg"
   xmlns="http://www.w3.org/2000/svg"
   xmlns:sodipodi="http://sodipodi.sourceforge.net/DTD/sodipodi-0.dtd"
   xmlns:inkscape="http://www.inkscape.org/namespaces/inkscape"
   id="svg2"
   version="1.1"
   inkscape:version="0.48.4 r9939"
   width="77.6375"
   height="77.9"
   xml:space="preserve"
   sodipodi:docname="harmonic_embed.eps"><metadata
     id="metadata8"><rdf:RDF><cc:Work
         rdf:about=""><dc:format>image/svg+xml</dc:format><dc:type
           rdf:resource="http://purl.org/dc/dcmitype/StillImage" /><dc:title></dc:title></cc:Work></rdf:RDF></metadata><defs
     id="defs6" /><sodipodi:namedview
     pagecolor="#ffffff"
     bordercolor="#666666"
     borderopacity="1"
     objecttolerance="10"
     gridtolerance="10"
     guidetolerance="10"
     inkscape:pageopacity="0"
     inkscape:pageshadow="2"
     inkscape:window-width="640"
     inkscape:window-height="480"
     id="namedview4"
     showgrid="false"
     inkscape:zoom="3.029525"
     inkscape:cx="38.818748"
     inkscape:cy="38.950001"
     inkscape:window-x="63"
     inkscape:window-y="24"
     inkscape:window-maximized="0"
     inkscape:current-layer="g10" /><g
     id="g10"
     inkscape:groupmode="layer"
     inkscape:label="ink_ext_XXXXXX"
     transform="matrix(1.25,0,0,-1.25,0,77.9)"><g
       id="g12"
       transform="scale(0.1,0.1)"><path
         d="m 290.32,276.422 -21.769,22.121 -17.973,-39.75"
         style="fill:#8080ff;fill-opacity:1;fill-rule:evenodd;stroke:none"
         id="path14" /><path
         d="m 290.32,276.422 -21.769,22.121 -17.973,-39.75 39.742,17.629"
         style="fill:none;stroke:#000000;stroke-opacity:1;stroke-width:2.07375;stroke-linecap:butt;stroke-linejoin:round;stroke-miterlimit:10;stroke-dasharray:none"
         id="path16" /><path
         d="m 268.551,298.543 21.769,-22.121 10.371,31.793"
         style="fill:#8080ff;fill-opacity:1;fill-rule:evenodd;stroke:none"
         id="path18" /><path
         d="m 268.551,298.543 21.769,-22.121 10.371,31.793 -32.14,-9.672"
         style="fill:none;stroke:#000000;stroke-opacity:1;stroke-width:2.07375;stroke-linecap:butt;stroke-linejoin:round;stroke-miterlimit:10;stroke-dasharray:none"
         id="path20" /><path
         d="M 318.32,294.742 300.691,308.215 290.32,276.422"
         style="fill:#8080ff;fill-opacity:1;fill-rule:evenodd;stroke:none"
         id="path22" /><path
         d="m 318.32,294.742 -17.629,13.473 -10.371,-31.793 28,18.32"
         style="fill:none;stroke:#000000;stroke-opacity:1;stroke-width:2.07375;stroke-linecap:butt;stroke-linejoin:round;stroke-miterlimit:10;stroke-dasharray:none"
         id="path24" /><path
         d="m 300.691,308.215 -13.132,18.668 -19.008,-28.34"
         style="fill:#8080ff;fill-opacity:1;fill-rule:evenodd;stroke:none"
         id="path26" /><path
         d="m 300.691,308.215 -13.132,18.668 -19.008,-28.34 32.14,9.672"
         style="fill:none;stroke:#000000;stroke-opacity:1;stroke-width:2.07375;stroke-linecap:butt;stroke-linejoin:round;stroke-miterlimit:10;stroke-dasharray:none"
         id="path28" /><path
         d="m 222.238,291.285 28.34,-32.492 17.973,39.75"
         style="fill:#8080ff;fill-opacity:1;fill-rule:evenodd;stroke:none"
         id="path30" /><path
         d="m 222.238,291.285 28.34,-32.492 17.973,39.75 -46.313,-7.258"
         style="fill:none;stroke:#000000;stroke-opacity:1;stroke-width:2.07375;stroke-linecap:butt;stroke-linejoin:round;stroke-miterlimit:10;stroke-dasharray:none"
         id="path32" /><path
         d="m 268.551,298.543 -9.332,35.941 -36.981,-43.199"
         style="fill:#8080ff;fill-opacity:1;fill-rule:evenodd;stroke:none"
         id="path34" /><path
         d="m 268.551,298.543 -9.332,35.941 -36.981,-43.199 46.313,7.258"
         style="fill:none;stroke:#000000;stroke-opacity:1;stroke-width:2.07375;stroke-linecap:butt;stroke-linejoin:round;stroke-miterlimit:10;stroke-dasharray:none"
         id="path36" /><path
         d="m 219.82,348.652 2.418,-57.367 36.981,43.199"
         style="fill:#8080ff;fill-opacity:1;fill-rule:evenodd;stroke:none"
         id="path38" /><path
         d="m 219.82,348.652 2.418,-57.367 36.981,43.199 -39.399,14.168"
         style="fill:none;stroke:#000000;stroke-opacity:1;stroke-width:2.07375;stroke-linecap:butt;stroke-linejoin:round;stroke-miterlimit:10;stroke-dasharray:none"
         id="path40" /><path
         d="m 268.551,298.543 19.008,28.34 -28.34,7.601"
         style="fill:#8080ff;fill-opacity:1;fill-rule:evenodd;stroke:none"
         id="path42" /><path
         d="m 268.551,298.543 19.008,28.34 -28.34,7.601 9.332,-35.941"
         style="fill:none;stroke:#000000;stroke-opacity:1;stroke-width:2.07375;stroke-linecap:butt;stroke-linejoin:round;stroke-miterlimit:10;stroke-dasharray:none"
         id="path44" /><path
         d="M 330.762,346.582 300.691,308.215 318.32,294.742"
         style="fill:#8080ff;fill-opacity:1;fill-rule:evenodd;stroke:none"
         id="path46" /><path
         d="m 330.762,346.582 -30.071,-38.367 17.629,-13.473 12.442,51.84"
         style="fill:none;stroke:#000000;stroke-opacity:1;stroke-width:2.07375;stroke-linecap:butt;stroke-linejoin:round;stroke-miterlimit:10;stroke-dasharray:none"
         id="path48" /><path
         d="m 300.691,308.215 30.071,38.367 -24.543,5.531"
         style="fill:#8080ff;fill-opacity:1;fill-rule:evenodd;stroke:none"
         id="path50" /><path
         d="m 300.691,308.215 30.071,38.367 -24.543,5.531 -5.528,-43.898"
         style="fill:none;stroke:#000000;stroke-opacity:1;stroke-width:2.07375;stroke-linecap:butt;stroke-linejoin:round;stroke-miterlimit:10;stroke-dasharray:none"
         id="path52" /><path
         d="m 328.34,366.973 -22.121,-14.86 24.543,-5.531"
         style="fill:#8080ff;fill-opacity:1;fill-rule:evenodd;stroke:none"
         id="path54" /><path
         d="m 328.34,366.973 -22.121,-14.86 24.543,-5.531 -2.422,20.391"
         style="fill:none;stroke:#000000;stroke-opacity:1;stroke-width:2.07375;stroke-linecap:butt;stroke-linejoin:round;stroke-miterlimit:10;stroke-dasharray:none"
         id="path56" /><path
         d="m 306.219,352.113 -18.66,-25.23 13.132,-18.668"
         style="fill:#8080ff;fill-opacity:1;fill-rule:evenodd;stroke:none"
         id="path58" /><path
         d="m 306.219,352.113 -18.66,-25.23 13.132,-18.668 5.528,43.898"
         style="fill:none;stroke:#000000;stroke-opacity:1;stroke-width:2.07375;stroke-linecap:butt;stroke-linejoin:round;stroke-miterlimit:10;stroke-dasharray:none"
         id="path60" /><path
         d="m 326.27,370.434 -20.051,-18.321 22.121,14.86"
         style="fill:#8080ff;fill-opacity:1;fill-rule:evenodd;stroke:none"
         id="path62" /><path
         d="m 326.27,370.434 -20.051,-18.321 22.121,14.86 -2.07,3.461"
         style="fill:none;stroke:#000000;stroke-opacity:1;stroke-width:2.07375;stroke-linecap:butt;stroke-linejoin:round;stroke-miterlimit:10;stroke-dasharray:none"
         id="path64" /><path
         d="m 306.219,352.113 20.051,18.321 -31.45,-13.832"
         style="fill:#8080ff;fill-opacity:1;fill-rule:evenodd;stroke:none"
         id="path66" /><path
         d="m 306.219,352.113 20.051,18.321 -31.45,-13.832 11.399,-4.489"
         style="fill:none;stroke:#000000;stroke-opacity:1;stroke-width:2.07375;stroke-linecap:butt;stroke-linejoin:round;stroke-miterlimit:10;stroke-dasharray:none"
         id="path68" /><path
         d="m 308.641,389.094 -13.821,-32.492 31.45,13.832"
         style="fill:#8080ff;fill-opacity:1;fill-rule:evenodd;stroke:none"
         id="path70" /><path
         d="m 308.641,389.094 -13.821,-32.492 31.45,13.832 -17.629,18.66"
         style="fill:none;stroke:#000000;stroke-opacity:1;stroke-width:2.07375;stroke-linecap:butt;stroke-linejoin:round;stroke-miterlimit:10;stroke-dasharray:none"
         id="path72" /><path
         d="m 294.82,356.602 -7.261,-29.719 18.66,25.23"
         style="fill:#8080ff;fill-opacity:1;fill-rule:evenodd;stroke:none"
         id="path74" /><path
         d="m 294.82,356.602 -7.261,-29.719 18.66,25.23 -11.399,4.489"
         style="fill:none;stroke:#000000;stroke-opacity:1;stroke-width:2.07375;stroke-linecap:butt;stroke-linejoin:round;stroke-miterlimit:10;stroke-dasharray:none"
         id="path76" /><path
         d="m 266.82,381.492 28,-24.89 13.821,32.492"
         style="fill:#8080ff;fill-opacity:1;fill-rule:evenodd;stroke:none"
         id="path78" /><path
         d="m 266.82,381.492 28,-24.89 13.821,32.492 -41.821,-7.602"
         style="fill:none;stroke:#000000;stroke-opacity:1;stroke-width:2.07375;stroke-linecap:butt;stroke-linejoin:round;stroke-miterlimit:10;stroke-dasharray:none"
         id="path80" /><path
         d="m 294.82,356.602 -28,24.89 -7.601,-47.008"
         style="fill:#8080ff;fill-opacity:1;fill-rule:evenodd;stroke:none"
         id="path82" /><path
         d="m 294.82,356.602 -28,24.89 -7.601,-47.008 35.601,22.118"
         style="fill:none;stroke:#000000;stroke-opacity:1;stroke-width:2.07375;stroke-linecap:butt;stroke-linejoin:round;stroke-miterlimit:10;stroke-dasharray:none"
         id="path84" /><path
         d="m 219.82,348.652 39.399,-14.168 7.601,47.008"
         style="fill:#8080ff;fill-opacity:1;fill-rule:evenodd;stroke:none"
         id="path86" /><path
         d="m 219.82,348.652 39.399,-14.168 7.601,47.008 -47,-32.84"
         style="fill:none;stroke:#000000;stroke-opacity:1;stroke-width:2.07375;stroke-linecap:butt;stroke-linejoin:round;stroke-miterlimit:10;stroke-dasharray:none"
         id="path88" /><path
         d="m 259.219,334.484 28.34,-7.601 7.261,29.719"
         style="fill:#8080ff;fill-opacity:1;fill-rule:evenodd;stroke:none"
         id="path90" /><path
         d="m 259.219,334.484 28.34,-7.601 7.261,29.719 -35.601,-22.118"
         style="fill:none;stroke:#000000;stroke-opacity:1;stroke-width:2.07375;stroke-linecap:butt;stroke-linejoin:round;stroke-miterlimit:10;stroke-dasharray:none"
         id="path92" /><path
         d="m 188.371,196.582 62.207,62.211 -28.34,32.492"
         style="fill:#8080ff;fill-opacity:1;fill-rule:evenodd;stroke:none"
         id="path94" /><path
         d="m 188.371,196.582 62.207,62.211 -28.34,32.492 -33.867,-94.703"
         style="fill:none;stroke:#000000;stroke-opacity:1;stroke-width:2.07375;stroke-linecap:butt;stroke-linejoin:round;stroke-miterlimit:10;stroke-dasharray:none"
         id="path96" /><path
         d="m 222.238,291.285 -85.367,9.68 51.488,-104.383"
         style="fill:#8080ff;fill-opacity:1;fill-rule:evenodd;stroke:none"
         id="path98" /><path
         d="m 222.238,291.285 -85.367,9.68 51.488,-104.383 33.879,94.703"
         style="fill:none;stroke:#000000;stroke-opacity:1;stroke-width:2.07375;stroke-linecap:butt;stroke-linejoin:round;stroke-miterlimit:10;stroke-dasharray:none"
         id="path100" /><path
         d="M 0,7.875 188.359,196.582 136.871,300.965"
         style="fill:#8080ff;fill-opacity:1;fill-rule:evenodd;stroke:none"
         id="path102" /><path
         d="M 0,7.875 188.359,196.582 136.871,300.965 0,7.875"
         style="fill:none;stroke:#000000;stroke-opacity:1;stroke-width:2.07375;stroke-linecap:butt;stroke-linejoin:round;stroke-miterlimit:10;stroke-dasharray:none"
         id="path104" /><path
         d="m 136.871,300.965 85.367,-9.68 -2.418,57.367"
         style="fill:#8080ff;fill-opacity:1;fill-rule:evenodd;stroke:none"
         id="path106" /><path
         d="m 136.871,300.965 85.367,-9.68 -2.418,57.367 -82.949,-47.687"
         style="fill:none;stroke:#000000;stroke-opacity:1;stroke-width:2.07375;stroke-linecap:butt;stroke-linejoin:round;stroke-miterlimit:10;stroke-dasharray:none"
         id="path108" /><path
         d="m 325.23,267.082 -6.91,27.66 -28,-18.32"
         style="fill:#8080ff;fill-opacity:1;fill-rule:evenodd;stroke:none"
         id="path110" /><path
         d="m 325.23,267.082 -6.91,27.66 -28,-18.32 34.91,-9.34"
         style="fill:none;stroke:#000000;stroke-opacity:1;stroke-width:2.07375;stroke-linecap:butt;stroke-linejoin:round;stroke-miterlimit:10;stroke-dasharray:none"
         id="path112" /><path
         d="m 290.32,276.422 -7.601,-45.969 42.511,36.629"
         style="fill:#8080ff;fill-opacity:1;fill-rule:evenodd;stroke:none"
         id="path114" /><path
         d="m 290.32,276.422 -7.601,-45.969 42.511,36.629 -34.91,9.34"
         style="fill:none;stroke:#000000;stroke-opacity:1;stroke-width:2.07375;stroke-linecap:butt;stroke-linejoin:round;stroke-miterlimit:10;stroke-dasharray:none"
         id="path116" /><path
         d="m 339.75,227.684 -14.52,39.398 -42.511,-36.629"
         style="fill:#8080ff;fill-opacity:1;fill-rule:evenodd;stroke:none"
         id="path118" /><path
         d="m 339.75,227.684 -14.52,39.398 -42.511,-36.629 57.031,-2.769"
         style="fill:none;stroke:#000000;stroke-opacity:1;stroke-width:2.07375;stroke-linecap:butt;stroke-linejoin:round;stroke-miterlimit:10;stroke-dasharray:none"
         id="path120" /><path
         d="m 282.719,230.453 7.601,45.969 -39.742,-17.629"
         style="fill:#8080ff;fill-opacity:1;fill-rule:evenodd;stroke:none"
         id="path122" /><path
         d="m 282.719,230.453 7.601,45.969 -39.742,-17.629 32.141,-28.34"
         style="fill:none;stroke:#000000;stroke-opacity:1;stroke-width:2.07375;stroke-linecap:butt;stroke-linejoin:round;stroke-miterlimit:10;stroke-dasharray:none"
         id="path124" /><path
         d="m 356.34,334.832 -28,32.141 2.422,-20.391"
         style="fill:#8080ff;fill-opacity:1;fill-rule:evenodd;stroke:none"
         id="path126" /><path
         d="m 356.34,334.832 -28,32.141 2.422,-20.391 25.578,-11.75"
         style="fill:none;stroke:#000000;stroke-opacity:1;stroke-width:2.07375;stroke-linecap:butt;stroke-linejoin:round;stroke-miterlimit:10;stroke-dasharray:none"
         id="path128" /><path
         d="m 330.762,346.582 15.558,-44.238 10.02,32.488"
         style="fill:#8080ff;fill-opacity:1;fill-rule:evenodd;stroke:none"
         id="path130" /><path
         d="m 330.762,346.582 15.558,-44.238 10.02,32.488 -25.578,11.75"
         style="fill:none;stroke:#000000;stroke-opacity:1;stroke-width:2.07375;stroke-linecap:butt;stroke-linejoin:round;stroke-miterlimit:10;stroke-dasharray:none"
         id="path132" /><path
         d="m 378.461,316.852 -22.121,17.98 -10.02,-32.488"
         style="fill:#8080ff;fill-opacity:1;fill-rule:evenodd;stroke:none"
         id="path134" /><path
         d="m 378.461,316.852 -22.121,17.98 -10.02,-32.488 32.141,14.508"
         style="fill:none;stroke:#000000;stroke-opacity:1;stroke-width:2.07375;stroke-linecap:butt;stroke-linejoin:round;stroke-miterlimit:10;stroke-dasharray:none"
         id="path136" /><path
         d="m 346.32,302.344 -15.558,44.238 -12.442,-51.84"
         style="fill:#8080ff;fill-opacity:1;fill-rule:evenodd;stroke:none"
         id="path138" /><path
         d="m 346.32,302.344 -15.558,44.238 -12.442,-51.84 28,7.602"
         style="fill:none;stroke:#000000;stroke-opacity:1;stroke-width:2.07375;stroke-linecap:butt;stroke-linejoin:round;stroke-miterlimit:10;stroke-dasharray:none"
         id="path140" /><path
         d="m 348.039,402.922 -39.398,-13.828 17.629,-18.66"
         style="fill:#8080ff;fill-opacity:1;fill-rule:evenodd;stroke:none"
         id="path142" /><path
         d="m 348.039,402.922 -39.398,-13.828 17.629,-18.66 21.769,32.488"
         style="fill:none;stroke:#000000;stroke-opacity:1;stroke-width:2.07375;stroke-linecap:butt;stroke-linejoin:round;stroke-miterlimit:10;stroke-dasharray:none"
         id="path144" /><path
         d="m 326.27,370.434 30.07,-3.809 -8.301,36.297"
         style="fill:#8080ff;fill-opacity:1;fill-rule:evenodd;stroke:none"
         id="path146" /><path
         d="m 326.27,370.434 30.07,-3.809 -8.301,36.297 -21.769,-32.488"
         style="fill:none;stroke:#000000;stroke-opacity:1;stroke-width:2.07375;stroke-linecap:butt;stroke-linejoin:round;stroke-miterlimit:10;stroke-dasharray:none"
         id="path148" /><path
         d="m 389.859,399.465 -41.82,3.457 8.301,-36.297"
         style="fill:#8080ff;fill-opacity:1;fill-rule:evenodd;stroke:none"
         id="path150" /><path
         d="m 389.859,399.465 -41.82,3.457 8.301,-36.297 33.519,32.84"
         style="fill:none;stroke:#000000;stroke-opacity:1;stroke-width:2.07375;stroke-linecap:butt;stroke-linejoin:round;stroke-miterlimit:10;stroke-dasharray:none"
         id="path152" /><path
         d="m 356.34,366.625 -30.07,3.809 2.07,-3.461"
         style="fill:#8080ff;fill-opacity:1;fill-rule:evenodd;stroke:none"
         id="path154" /><path
         d="m 356.34,366.625 -30.07,3.809 2.07,-3.461 28,-0.348"
         style="fill:none;stroke:#000000;stroke-opacity:1;stroke-width:2.07375;stroke-linecap:butt;stroke-linejoin:round;stroke-miterlimit:10;stroke-dasharray:none"
         id="path156" /><path
         d="m 213.602,435.402 6.218,-86.75 47,32.84"
         style="fill:#8080ff;fill-opacity:1;fill-rule:evenodd;stroke:none"
         id="path158" /><path
         d="m 213.602,435.402 6.218,-86.75 47,32.84 -53.218,53.91"
         style="fill:none;stroke:#000000;stroke-opacity:1;stroke-width:2.07375;stroke-linecap:butt;stroke-linejoin:round;stroke-miterlimit:10;stroke-dasharray:none"
         id="path160" /><path
         d="m 266.82,381.492 40.442,53.223 -93.66,0.687"
         style="fill:#8080ff;fill-opacity:1;fill-rule:evenodd;stroke:none"
         id="path162" /><path
         d="m 266.82,381.492 40.442,53.223 -93.66,0.687 53.218,-53.91"
         style="fill:none;stroke:#000000;stroke-opacity:1;stroke-width:2.07375;stroke-linecap:butt;stroke-linejoin:round;stroke-miterlimit:10;stroke-dasharray:none"
         id="path164" /><path
         d="m 307.949,518.352 -94.347,-82.95 93.66,-0.687"
         style="fill:#8080ff;fill-opacity:1;fill-rule:evenodd;stroke:none"
         id="path166" /><path
         d="m 307.949,518.352 -94.347,-82.95 93.66,-0.687 0.687,83.637"
         style="fill:none;stroke:#000000;stroke-opacity:1;stroke-width:2.07375;stroke-linecap:butt;stroke-linejoin:round;stroke-miterlimit:10;stroke-dasharray:none"
         id="path168" /><path
         d="m 307.262,434.715 -40.442,-53.223 41.821,7.602"
         style="fill:#8080ff;fill-opacity:1;fill-rule:evenodd;stroke:none"
         id="path170" /><path
         d="m 307.262,434.715 -40.442,-53.223 41.821,7.602 -1.379,45.621"
         style="fill:none;stroke:#000000;stroke-opacity:1;stroke-width:2.07375;stroke-linecap:butt;stroke-linejoin:round;stroke-miterlimit:10;stroke-dasharray:none"
         id="path172" /><path
         d="M 292.398,144.734 188.359,196.582 0,7.875"
         style="fill:#8080ff;fill-opacity:1;fill-rule:evenodd;stroke:none"
         id="path174" /><path
         d="M 292.398,144.734 188.359,196.582 0,7.875 292.398,144.734"
         style="fill:none;stroke:#000000;stroke-opacity:1;stroke-width:2.07375;stroke-linecap:butt;stroke-linejoin:round;stroke-miterlimit:10;stroke-dasharray:none"
         id="path176" /><path
         d="m 188.371,196.582 104.027,-51.848 -9.679,85.719"
         style="fill:#8080ff;fill-opacity:1;fill-rule:evenodd;stroke:none"
         id="path178" /><path
         d="m 188.371,196.582 104.027,-51.848 -9.679,85.719 -94.348,-33.871"
         style="fill:none;stroke:#000000;stroke-opacity:1;stroke-width:2.07375;stroke-linecap:butt;stroke-linejoin:round;stroke-miterlimit:10;stroke-dasharray:none"
         id="path180" /><path
         d="m 339.75,227.684 -57.031,2.769 9.679,-85.719"
         style="fill:#8080ff;fill-opacity:1;fill-rule:evenodd;stroke:none"
         id="path182" /><path
         d="m 339.75,227.684 -57.031,2.769 9.679,-85.719 47.352,82.95"
         style="fill:none;stroke:#000000;stroke-opacity:1;stroke-width:2.07375;stroke-linecap:butt;stroke-linejoin:round;stroke-miterlimit:10;stroke-dasharray:none"
         id="path184" /><path
         d="m 282.719,230.453 -32.141,28.34 -62.219,-62.211"
         style="fill:#8080ff;fill-opacity:1;fill-rule:evenodd;stroke:none"
         id="path186" /><path
         d="m 282.719,230.453 -32.141,28.34 -62.219,-62.211 94.36,33.871"
         style="fill:none;stroke:#000000;stroke-opacity:1;stroke-width:2.07375;stroke-linecap:butt;stroke-linejoin:round;stroke-miterlimit:10;stroke-dasharray:none"
         id="path188" /><path
         d="m 371.891,274.695 -46.661,-7.613 14.52,-39.398"
         style="fill:#8080ff;fill-opacity:1;fill-rule:evenodd;stroke:none"
         id="path190" /><path
         d="m 371.891,274.695 -46.661,-7.613 14.52,-39.398 32.141,47.011"
         style="fill:none;stroke:#000000;stroke-opacity:1;stroke-width:2.07375;stroke-linecap:butt;stroke-linejoin:round;stroke-miterlimit:10;stroke-dasharray:none"
         id="path192" /><path
         d="m 325.23,267.082 46.661,7.613 -25.571,27.649"
         style="fill:#8080ff;fill-opacity:1;fill-rule:evenodd;stroke:none"
         id="path194" /><path
         d="m 325.23,267.082 46.661,7.613 -25.571,27.649 -21.09,-35.262"
         style="fill:none;stroke:#000000;stroke-opacity:1;stroke-width:2.07375;stroke-linecap:butt;stroke-linejoin:round;stroke-miterlimit:10;stroke-dasharray:none"
         id="path196" /><path
         d="M 378.461,316.852 346.32,302.344 371.891,274.695"
         style="fill:#8080ff;fill-opacity:1;fill-rule:evenodd;stroke:none"
         id="path198" /><path
         d="m 378.461,316.852 -32.141,-14.508 25.571,-27.649 6.57,42.157"
         style="fill:none;stroke:#000000;stroke-opacity:1;stroke-width:2.07375;stroke-linecap:butt;stroke-linejoin:round;stroke-miterlimit:10;stroke-dasharray:none"
         id="path200" /><path
         d="m 346.32,302.344 -28,-7.602 6.91,-27.66"
         style="fill:#8080ff;fill-opacity:1;fill-rule:evenodd;stroke:none"
         id="path202" /><path
         d="m 346.32,302.344 -28,-7.602 6.91,-27.66 21.09,35.262"
         style="fill:none;stroke:#000000;stroke-opacity:1;stroke-width:2.07375;stroke-linecap:butt;stroke-linejoin:round;stroke-miterlimit:10;stroke-dasharray:none"
         id="path204" /><path
         d="m 392.629,356.953 -36.289,-22.121 22.121,-17.98"
         style="fill:#8080ff;fill-opacity:1;fill-rule:evenodd;stroke:none"
         id="path206" /><path
         d="m 392.629,356.953 -36.289,-22.121 22.121,-17.98 14.168,40.101"
         style="fill:none;stroke:#000000;stroke-opacity:1;stroke-width:2.07375;stroke-linecap:butt;stroke-linejoin:round;stroke-miterlimit:10;stroke-dasharray:none"
         id="path208" /><path
         d="m 356.34,334.832 36.289,22.121 -36.289,9.672"
         style="fill:#8080ff;fill-opacity:1;fill-rule:evenodd;stroke:none"
         id="path210" /><path
         d="m 356.34,334.832 36.289,22.121 -36.289,9.672 0,-31.793"
         style="fill:none;stroke:#000000;stroke-opacity:1;stroke-width:2.07375;stroke-linecap:butt;stroke-linejoin:round;stroke-miterlimit:10;stroke-dasharray:none"
         id="path212" /><path
         d="m 389.859,399.465 -33.519,-32.84 36.289,-9.672"
         style="fill:#8080ff;fill-opacity:1;fill-rule:evenodd;stroke:none"
         id="path214" /><path
         d="m 389.859,399.465 -33.519,-32.84 36.289,-9.672 -2.77,42.512"
         style="fill:none;stroke:#000000;stroke-opacity:1;stroke-width:2.07375;stroke-linecap:butt;stroke-linejoin:round;stroke-miterlimit:10;stroke-dasharray:none"
         id="path216" /><path
         d="m 356.34,366.625 -28,0.348 28,-32.141"
         style="fill:#8080ff;fill-opacity:1;fill-rule:evenodd;stroke:none"
         id="path218" /><path
         d="m 356.34,366.625 -28,0.348 28,-32.141 0,31.793"
         style="fill:none;stroke:#000000;stroke-opacity:1;stroke-width:2.07375;stroke-linecap:butt;stroke-linejoin:round;stroke-miterlimit:10;stroke-dasharray:none"
         id="path220" /><path
         d="m 397.809,464.445 -49.77,-61.523 41.82,-3.457"
         style="fill:#8080ff;fill-opacity:1;fill-rule:evenodd;stroke:none"
         id="path222" /><path
         d="m 397.809,464.445 -49.77,-61.523 41.82,-3.457 7.95,64.98"
         style="fill:none;stroke:#000000;stroke-opacity:1;stroke-width:2.07375;stroke-linecap:butt;stroke-linejoin:round;stroke-miterlimit:10;stroke-dasharray:none"
         id="path224" /><path
         d="m 348.039,402.922 49.77,61.523 -90.547,-29.73"
         style="fill:#8080ff;fill-opacity:1;fill-rule:evenodd;stroke:none"
         id="path226" /><path
         d="m 348.039,402.922 49.77,61.523 -90.547,-29.73 40.777,-31.793"
         style="fill:none;stroke:#000000;stroke-opacity:1;stroke-width:2.07375;stroke-linecap:butt;stroke-linejoin:round;stroke-miterlimit:10;stroke-dasharray:none"
         id="path228" /><path
         d="m 307.949,518.352 -0.687,-83.637 90.547,29.73"
         style="fill:#8080ff;fill-opacity:1;fill-rule:evenodd;stroke:none"
         id="path230" /><path
         d="m 307.949,518.352 -0.687,-83.637 90.547,29.73 -89.86,53.907"
         style="fill:none;stroke:#000000;stroke-opacity:1;stroke-width:2.07375;stroke-linecap:butt;stroke-linejoin:round;stroke-miterlimit:10;stroke-dasharray:none"
         id="path232" /><path
         d="m 307.262,434.715 1.379,-45.621 39.398,13.828"
         style="fill:#8080ff;fill-opacity:1;fill-rule:evenodd;stroke:none"
         id="path234" /><path
         d="m 307.262,434.715 1.379,-45.621 39.398,13.828 -40.777,31.793"
         style="fill:none;stroke:#000000;stroke-opacity:1;stroke-width:2.07375;stroke-linecap:butt;stroke-linejoin:round;stroke-miterlimit:10;stroke-dasharray:none"
         id="path236" /><path
         d="m 0,628.965 213.602,-193.563 94.347,82.95"
         style="fill:#8080ff;fill-opacity:1;fill-rule:evenodd;stroke:none"
         id="path238" /><path
         d="M 0,628.965 213.602,435.402 307.949,518.352 0,628.965"
         style="fill:none;stroke:#000000;stroke-opacity:1;stroke-width:2.07375;stroke-linecap:butt;stroke-linejoin:round;stroke-miterlimit:10;stroke-dasharray:none"
         id="path240" /><path
         d="M 213.602,435.402 0,628.965 l 136.871,-328"
         style="fill:#8080ff;fill-opacity:1;fill-rule:evenodd;stroke:none"
         id="path242" /><path
         d="M 213.602,435.402 0,628.965 l 136.871,-328 76.731,134.437"
         style="fill:none;stroke:#000000;stroke-opacity:1;stroke-width:2.07375;stroke-linecap:butt;stroke-linejoin:round;stroke-miterlimit:10;stroke-dasharray:none"
         id="path244" /><path
         d="M 0,7.875 136.871,300.965 0,628.965"
         style="fill:#8080ff;fill-opacity:1;fill-rule:evenodd;stroke:none"
         id="path246" /><path
         d="M 0,7.875 136.871,300.965 0,628.965 0,7.875"
         style="fill:none;stroke:#000000;stroke-opacity:1;stroke-width:2.07375;stroke-linecap:butt;stroke-linejoin:round;stroke-miterlimit:10;stroke-dasharray:none"
         id="path248" /><path
         d="m 136.871,300.965 82.949,47.687 -6.218,86.75"
         style="fill:#8080ff;fill-opacity:1;fill-rule:evenodd;stroke:none"
         id="path250" /><path
         d="m 136.871,300.965 82.949,47.687 -6.218,86.75 -76.731,-134.437"
         style="fill:none;stroke:#000000;stroke-opacity:1;stroke-width:2.07375;stroke-linecap:butt;stroke-linejoin:round;stroke-miterlimit:10;stroke-dasharray:none"
         id="path252" /><path
         d="m 426.16,221.813 -86.41,5.871 -47.352,-82.95"
         style="fill:#8080ff;fill-opacity:1;fill-rule:evenodd;stroke:none"
         id="path254" /><path
         d="m 426.16,221.813 -86.41,5.871 -47.352,-82.95 133.762,77.079"
         style="fill:none;stroke:#000000;stroke-opacity:1;stroke-width:2.07375;stroke-linecap:butt;stroke-linejoin:round;stroke-miterlimit:10;stroke-dasharray:none"
         id="path256" /><path
         d="M 292.398,144.734 620.738,7.875 426.16,221.813"
         style="fill:#8080ff;fill-opacity:1;fill-rule:evenodd;stroke:none"
         id="path258" /><path
         d="M 292.398,144.734 620.738,7.875 426.16,221.813 292.398,144.734"
         style="fill:none;stroke:#000000;stroke-opacity:1;stroke-width:2.07375;stroke-linecap:butt;stroke-linejoin:round;stroke-miterlimit:10;stroke-dasharray:none"
         id="path260" /><path
         d="M 509.449,316.164 426.16,221.813 620.738,7.875"
         style="fill:#8080ff;fill-opacity:1;fill-rule:evenodd;stroke:none"
         id="path262" /><path
         d="M 509.449,316.164 426.16,221.813 620.738,7.875 509.449,316.164"
         style="fill:none;stroke:#000000;stroke-opacity:1;stroke-width:2.07375;stroke-linecap:butt;stroke-linejoin:round;stroke-miterlimit:10;stroke-dasharray:none"
         id="path264" /><path
         d="M 620.738,7.875 292.398,144.734 0,7.875"
         style="fill:#8080ff;fill-opacity:1;fill-rule:evenodd;stroke:none"
         id="path266" /><path
         d="M 620.738,7.875 292.398,144.734 0,7.875 l 620.738,0"
         style="fill:none;stroke:#000000;stroke-opacity:1;stroke-width:2.07375;stroke-linecap:butt;stroke-linejoin:round;stroke-miterlimit:10;stroke-dasharray:none"
         id="path268" /><path
         d="m 425.121,315.473 -46.66,1.379 -6.57,-42.157"
         style="fill:#8080ff;fill-opacity:1;fill-rule:evenodd;stroke:none"
         id="path270" /><path
         d="m 425.121,315.473 -46.66,1.379 -6.57,-42.157 53.23,40.778"
         style="fill:none;stroke:#000000;stroke-opacity:1;stroke-width:2.07375;stroke-linecap:butt;stroke-linejoin:round;stroke-miterlimit:10;stroke-dasharray:none"
         id="path272" /><path
         d="m 371.891,274.695 54.269,-52.882 -1.039,93.66"
         style="fill:#8080ff;fill-opacity:1;fill-rule:evenodd;stroke:none"
         id="path274" /><path
         d="m 371.891,274.695 54.269,-52.882 -1.039,93.66 -53.23,-40.778"
         style="fill:none;stroke:#000000;stroke-opacity:1;stroke-width:2.07375;stroke-linecap:butt;stroke-linejoin:round;stroke-miterlimit:10;stroke-dasharray:none"
         id="path276" /><path
         d="m 509.449,316.164 -84.328,-0.691 1.039,-93.66"
         style="fill:#8080ff;fill-opacity:1;fill-rule:evenodd;stroke:none"
         id="path278" /><path
         d="m 509.449,316.164 -84.328,-0.691 1.039,-93.66 83.289,94.351"
         style="fill:none;stroke:#000000;stroke-opacity:1;stroke-width:2.07375;stroke-linecap:butt;stroke-linejoin:round;stroke-miterlimit:10;stroke-dasharray:none"
         id="path280" /><path
         d="M 426.16,221.813 371.891,274.695 339.75,227.684"
         style="fill:#8080ff;fill-opacity:1;fill-rule:evenodd;stroke:none"
         id="path282" /><path
         d="m 426.16,221.813 -54.269,52.882 -32.141,-47.011 86.41,-5.871"
         style="fill:none;stroke:#000000;stroke-opacity:1;stroke-width:2.07375;stroke-linecap:butt;stroke-linejoin:round;stroke-miterlimit:10;stroke-dasharray:none"
         id="path284" /><path
         d="m 455.191,406.723 -65.332,-7.258 2.77,-42.512"
         style="fill:#8080ff;fill-opacity:1;fill-rule:evenodd;stroke:none"
         id="path286" /><path
         d="m 455.191,406.723 -65.332,-7.258 2.77,-42.512 62.562,49.77"
         style="fill:none;stroke:#000000;stroke-opacity:1;stroke-width:2.07375;stroke-linecap:butt;stroke-linejoin:round;stroke-miterlimit:10;stroke-dasharray:none"
         id="path288" /><path
         d="m 392.629,356.953 32.492,-41.48 30.07,91.25"
         style="fill:#8080ff;fill-opacity:1;fill-rule:evenodd;stroke:none"
         id="path290" /><path
         d="m 392.629,356.953 32.492,-41.48 30.07,91.25 -62.562,-49.77"
         style="fill:none;stroke:#000000;stroke-opacity:1;stroke-width:2.07375;stroke-linecap:butt;stroke-linejoin:round;stroke-miterlimit:10;stroke-dasharray:none"
         id="path292" /><path
         d="m 509.449,316.164 -54.258,90.559 -30.07,-91.25"
         style="fill:#8080ff;fill-opacity:1;fill-rule:evenodd;stroke:none"
         id="path294" /><path
         d="m 509.449,316.164 -54.258,90.559 -30.07,-91.25 84.328,0.691"
         style="fill:none;stroke:#000000;stroke-opacity:1;stroke-width:2.07375;stroke-linecap:butt;stroke-linejoin:round;stroke-miterlimit:10;stroke-dasharray:none"
         id="path296" /><path
         d="m 425.121,315.473 -32.492,41.48 -14.168,-40.101"
         style="fill:#8080ff;fill-opacity:1;fill-rule:evenodd;stroke:none"
         id="path298" /><path
         d="m 425.121,315.473 -32.492,41.48 -14.168,-40.101 46.66,-1.379"
         style="fill:none;stroke:#000000;stroke-opacity:1;stroke-width:2.07375;stroke-linecap:butt;stroke-linejoin:round;stroke-miterlimit:10;stroke-dasharray:none"
         id="path300" /><path
         d="M 620.738,628.965 307.949,518.352 397.809,464.445"
         style="fill:#8080ff;fill-opacity:1;fill-rule:evenodd;stroke:none"
         id="path302" /><path
         d="m 620.738,628.965 -312.789,-110.613 89.86,-53.907 222.929,164.52"
         style="fill:none;stroke:#000000;stroke-opacity:1;stroke-width:2.07375;stroke-linecap:butt;stroke-linejoin:round;stroke-miterlimit:10;stroke-dasharray:none"
         id="path304" /><path
         d="m 397.809,464.445 57.382,-57.722 165.547,222.242"
         style="fill:#8080ff;fill-opacity:1;fill-rule:evenodd;stroke:none"
         id="path306" /><path
         d="M 397.809,464.445 455.191,406.723 620.738,628.965 397.809,464.445"
         style="fill:none;stroke:#000000;stroke-opacity:1;stroke-width:2.07375;stroke-linecap:butt;stroke-linejoin:round;stroke-miterlimit:10;stroke-dasharray:none"
         id="path308" /><path
         d="M 509.449,316.164 620.738,628.965 455.191,406.723"
         style="fill:#8080ff;fill-opacity:1;fill-rule:evenodd;stroke:none"
         id="path310" /><path
         d="M 509.449,316.164 620.738,628.965 455.191,406.723 509.449,316.164"
         style="fill:none;stroke:#000000;stroke-opacity:1;stroke-width:2.07375;stroke-linecap:butt;stroke-linejoin:round;stroke-miterlimit:10;stroke-dasharray:none"
         id="path312" /><path
         d="m 455.191,406.723 -57.382,57.722 -7.95,-64.98"
         style="fill:#8080ff;fill-opacity:1;fill-rule:evenodd;stroke:none"
         id="path314" /><path
         d="m 455.191,406.723 -57.382,57.722 -7.95,-64.98 65.332,7.258"
         style="fill:none;stroke:#000000;stroke-opacity:1;stroke-width:2.07375;stroke-linecap:butt;stroke-linejoin:round;stroke-miterlimit:10;stroke-dasharray:none"
         id="path316" /><path
         d="M 509.449,316.164 620.738,7.875 l 0,621.09"
         style="fill:#8080ff;fill-opacity:1;fill-rule:evenodd;stroke:none"
         id="path318" /><path
         d="M 509.449,316.164 620.738,7.875 l 0,621.09 -111.289,-312.801"
         style="fill:none;stroke:#000000;stroke-opacity:1;stroke-width:2.07375;stroke-linecap:butt;stroke-linejoin:round;stroke-miterlimit:10;stroke-dasharray:none"
         id="path320" /><path
         d="M 620.738,628.965 0,628.965 307.949,518.352"
         style="fill:#8080ff;fill-opacity:1;fill-rule:evenodd;stroke:none"
         id="path322" /><path
         d="M 620.738,628.965 0,628.965 307.949,518.352 620.738,628.965"
         style="fill:none;stroke:#000000;stroke-opacity:1;stroke-width:2.07375;stroke-linecap:butt;stroke-linejoin:round;stroke-miterlimit:10;stroke-dasharray:none"
         id="path324" /></g></g></svg>