<?xml version="1.0" encoding="UTF-8" standalone="no"?>
<!-- Created with Inkscape (http://www.inkscape.org/) -->

<svg
   xmlns:dc="http://purl.org/dc/elements/1.1/"
   xmlns:cc="http://creativecommons.org/ns#"
   xmlns:rdf="http://www.w3.org/1999/02/22-rdf-syntax-ns#"
   xmlns:svg="http://www.w3.org/2000/svg"
   xmlns="http://www.w3.org/2000/svg"
   xmlns:inkscape="http://www.inkscape.org/namespaces/inkscape"
   version="1.1"
   width="550.91248"
   height="577.36249"
   id="svg2"
   xml:space="preserve"><metadata
     id="metadata8"><rdf:RDF><cc:Work
         rdf:about=""><dc:format>image/svg+xml</dc:format><dc:type
           rdf:resource="http://purl.org/dc/dcmitype/StillImage" /></cc:Work></rdf:RDF></metadata><defs
     id="defs6"><clipPath
       id="clipPath30"><path
         d="m 0,0 0,4619 4407,0 L 4407,0 0,0 z"
         inkscape:connector-curvature="0"
         id="path32" /></clipPath><clipPath
       id="clipPath36"><path
         d="m 2439.3,4615.99 -210.62,0 c 0,0 0,-1380.22 0,-1777.11 0,-417.71 59.83,-619.29 289.61,-849.07 226.94,-226.94 379.57,-276.54 526.55,-315.93 140.69,-37.69 387.16,-55.65 566.04,-6.58 178.88,49.08 449.3,203.04 572.63,348.84 123.32,145.8 223.78,405.73 223.78,763.5 0,474.86 0,1836.35 0,1836.35 l -473.9,0 c 0,0 0,-1669.78 0,-2040.39 0,-119.48 -75.19,-276.84 -185.37,-361.38 -88.69,-68.05 -327.13,-129.35 -438.92,-129.35 -135.28,0 -326.07,53.29 -402.65,129.87 -74.25,74.25 -204.38,198.45 -204.38,380.32 0,512.85 0,1606.27 0,1606.27 l 66.33,0 c 0,0 0,-1092.78 0,-1559.91 0,-121.96 113.82,-322.93 203.26,-391.56 89.45,-68.63 219.95,-89.3 333.3,-89.3 113.34,0 306.06,36.78 396.62,106.27 90.56,69.49 175.2,227.82 175.2,375.86 0,483.71 0,1552.06 0,1552.06 l -213.24,0 c 0,0 0,-1393 0,-1599.4 0,-88.09 -61.19,-159.6 -116.77,-202.24 -54.38,-41.73 -152.16,-59.15 -220.71,-59.15 -78.45,0 -198.32,26.04 -252.6,67.69 -54.27,41.65 -97.29,169.37 -97.29,247.49 0,551.66 0,1756.23 0,1756.23 l -477.63,0 c 0,0 0,-1367.85 0,-1711.29 0,-139.12 78.95,-418.31 236.38,-575.74 160.75,-160.75 234.64,-142.62 367.84,-181.7 133.2,-39.07 379.65,-23.05 508.12,13.17 128.48,36.21 257.89,115.93 343.62,210.53 85.74,94.61 180.59,330.49 180.59,454.07 0,360.47 0,1784.38 0,1784.38 l 55,0 c 0,0 0,-1547.46 0,-1869.26 0,0 -35.25,-198.28 -113.57,-333.94 -81.1,-140.46 -137.97,-167.75 -260.02,-240.27 -119.25,-70.86 -360.39,-110.12 -473.76,-110.12 -113.95,0 -331.06,20.7 -442.7,72.4 -111.65,51.69 -221.24,163.8 -288.56,244.4 -67.31,80.6 -118.28,164.75 -141.22,245.89 -22.94,81.15 -26.33,273.02 -26.33,273.02 l -4.63,1935.08 z"
         inkscape:connector-curvature="0"
         id="path38" /></clipPath><linearGradient
       x1="615.72998"
       y1="549.89203"
       x2="889.05603"
       y2="549.89203"
       id="linearGradient40"
       gradientUnits="userSpaceOnUse"
       gradientTransform="matrix(0.8,0,0,-0.8,-270.116,752.584)"
       spreadMethod="pad"><stop
         id="stop42"
         style="stop-color:#e56b3a;stop-opacity:1"
         offset="0" /><stop
         id="stop44"
         style="stop-color:#de3166;stop-opacity:1"
         offset="1" /></linearGradient></defs><g
     transform="matrix(1.25,0,0,-1.25,0,577.3625)"
     id="g10"><g
       transform="scale(0.1,0.1)"
       id="g12"><path
         d="M 4,4615.99 4,1713.38 c 0,0 1062.34,-6.59 1395.36,-6.59 177.77,0 737.18,219.92 737.18,816.16 0,602.82 -295.1,631.9 -500.23,750.34 212.8,57.01 368.59,283.53 368.59,631.86 0,348.76 -255.93,710.84 -980.7,710.84 -126.669,-3.19 -1020.2,0 -1020.2,0"
         inkscape:connector-curvature="0"
         id="path14"
         style="fill:#000000;fill-opacity:1;fill-rule:evenodd;stroke:none" /><path
         d="M 4,4615.99 4,1713.38 c 0,0 1062.34,-6.59 1395.36,-6.59 177.77,0 737.18,219.92 737.18,816.16 0,602.82 -295.1,631.9 -500.23,750.34 212.8,57.01 368.59,283.53 368.59,631.86 0,348.76 -255.93,710.84 -980.7,710.84 -126.669,-3.19 -1020.2,0 -1020.2,0 z"
         inkscape:connector-curvature="0"
         id="path16"
         style="fill:none;stroke:#000000;stroke-width:8;stroke-linecap:butt;stroke-linejoin:miter;stroke-miterlimit:10;stroke-opacity:1;stroke-dasharray:none" /><path
         d="m 708.328,3951.15 0,-440.85 449.122,0 c 0,0 149.64,41.23 149.7,230.3 0.06,195.65 -163.31,210.55 -163.31,210.55 l -435.512,0"
         inkscape:connector-curvature="0"
         id="path18"
         style="fill:#ffffff;fill-opacity:1;fill-rule:evenodd;stroke:none" /><path
         d="m 708.328,3951.15 0,-440.85 449.122,0 c 0,0 149.64,41.23 149.7,230.3 0.06,195.65 -163.31,210.55 -163.31,210.55 l -435.512,0 z"
         inkscape:connector-curvature="0"
         id="path20"
         style="fill:none;stroke:#000000;stroke-width:8.13309002;stroke-linecap:butt;stroke-linejoin:miter;stroke-miterlimit:10;stroke-opacity:1;stroke-dasharray:none" /><path
         d="m 709.359,2897.59 0,-554.55 561.111,0 c 0,0 186.96,51.86 187.03,289.69 0.08,246.11 -204.04,264.86 -204.04,264.86 l -544.101,0"
         inkscape:connector-curvature="0"
         id="path22"
         style="fill:#ffffff;fill-opacity:1;fill-rule:evenodd;stroke:none" /><path
         d="m 709.359,2897.59 0,-554.55 561.111,0 c 0,0 186.96,51.86 187.03,289.69 0.08,246.11 -204.04,264.86 -204.04,264.86 l -544.101,0 z"
         inkscape:connector-curvature="0"
         id="path24"
         style="fill:none;stroke:#000000;stroke-width:10.19569969;stroke-linecap:butt;stroke-linejoin:miter;stroke-miterlimit:10;stroke-opacity:1;stroke-dasharray:none" /><g
         id="g26"><g
           clip-path="url(#clipPath30)"
           id="g28"><g
             clip-path="url(#clipPath36)"
             id="g34"><path
               d="m 3316,1637 0,1 -25,0 0,1 -20,0 0,1 -14,0 0,1 -15,0 0,1 -11,0 0,1 -11,0 0,1 -10,0 0,1 -10,0 0,1 -8,0 0,1 -8,0 0,1 -8,0 0,1 -9,0 0,1 -6,0 0,1 -7,0 0,1 -7,0 0,1 -6,0 0,1 -7,0 0,1 -6,0 0,1 -5,0 0,1 -6,0 0,1 -5,0 0,1 -6,0 0,1 -5,0 0,1 -5,0 0,1 -5,0 0,1 -5,0 0,1 -4,0 0,1 -5,0 0,1 -5,0 0,1 -4,0 0,1 -4,0 0,1 -4,0 0,1 -4,0 0,1 -4,0 0,1 -4,0 0,1 -4,0 0,1 -4,0 0,1 -3,0 0,1 -4,0 0,1 -4,0 0,1 -3,0 0,1 -4,0 0,1 -4,0 0,1 -3,0 0,1 -4,0 0,1 -3,0 0,1 -4,0 0,1 -3,0 0,1 -4,0 0,1 -3,0 0,1 -4,0 0,1 -3,0 0,1 -3,0 0,1 -3,0 0,1 -4,0 0,1 -3,0 0,1 -3,0 0,1 -3,0 0,1 -3,0 0,1 -4,0 0,1 -3,0 0,1 -3,0 0,1 -3,0 0,1 -3,0 0,1 -2,0 0,1 -3,0 0,1 -3,0 0,1 -3,0 0,1 -3,0 0,1 -3,0 0,1 -3,0 0,1 -2,0 0,1 -3,0 0,1 -3,0 0,1 -2,0 0,1 -3,0 0,1 -3,0 0,1 -2,0 0,1 -3,0 0,1 -3,0 0,1 -2,0 0,1 -3,0 0,1 -2,0 0,1 -3,0 0,1 -2,0 0,1 -2,0 0,1 -3,0 0,1 -2,0 0,1 -3,0 0,1 -2,0 0,1 -2,0 0,1 -3,0 0,1 -2,0 0,1 -2,0 0,1 -3,0 0,1 -2,0 0,1 -2,0 0,1 -2,0 0,1 -2,0 0,1 -2,0 0,1 -3,0 0,1 -2,0 0,1 -2,0 0,1 -2,0 0,1 -2,0 0,1 -2,0 0,1 -3,0 0,1 -2,0 0,1 -2,0 0,1 -2,0 0,1 -2,0 0,1 -1,0 0,1 -2,0 0,1 -2,0 0,1 -2,0 0,1 -2,0 0,1 -2,0 0,1 -2,0 0,1 -2,0 0,1 -2,0 0,1 -2,0 0,1 -2,0 0,1 -2,0 0,1 -2,0 0,1 -2,0 0,1 -1,0 0,1 -2,0 0,1 -2,0 0,1 -2,0 0,1 -1,0 0,1 -2,0 0,1 -2,0 0,1 -2,0 0,1 -1,0 0,1 -2,0 0,1 -2,0 0,1 -2,0 0,1 -2,0 0,1 -1,0 0,1 -2,0 0,1 -2,0 0,1 -2,0 0,1 -1,0 0,1 -2,0 0,1 -1,0 0,1 -2,0 0,1 -2,0 0,1 -1,0 0,1 -2,0 0,1 -1,0 0,1 -2,0 0,1 -2,0 0,1 -1,0 0,1 -2,0 0,1 -2,0 0,1 -1,0 0,1 -2,0 0,1 -1,0 0,1 -2,0 0,1 -2,0 0,1 -1,0 0,1 -2,0 0,1 -1,0 0,1 -2,0 0,1 -1,0 0,1 -2,0 0,1 -1,0 0,1 -2,0 0,1 -1,0 0,1 -2,0 0,1 -1,0 0,1 -2,0 0,1 -1,0 0,1 -2,0 0,1 -1,0 0,1 -2,0 0,1 -1,0 0,1 -1,0 0,1 -2,0 0,1 -1,0 0,1 -2,0 0,1 -1,0 0,1 -2,0 0,1 -1,0 0,1 -2,0 0,1 -1,0 0,1 -2,0 0,1 -1,0 0,1 -1,0 0,1 -2,0 0,1 -1,0 0,1 -1,0 0,1 -2,0 0,1 -1,0 0,1 -1,0 0,1 -2,0 0,1 -1,0 0,1 -2,0 0,1 -1,0 0,1 -1,0 0,1 -2,0 0,1 -1,0 0,1 -1,0 0,1 -2,0 0,1 -1,0 0,1 -1,0 0,1 -2,0 0,1 -1,0 0,1 -1,0 0,1 -2,0 0,1 -1,0 0,1 -2,0 0,1 -1,0 0,1 -1,0 0,1 -1,0 0,1 -2,0 0,1 -1,0 0,1 -1,0 0,1 -1,0 0,1 -2,0 0,1 -1,0 0,1 -1,0 0,1 -1,0 0,1 -2,0 0,1 -1,0 0,1 -1,0 0,1 -1,0 0,1 -2,0 0,1 -1,0 0,1 -1,0 0,1 -1,0 0,1 -2,0 0,1 -1,0 0,1 -1,0 0,1 -1,0 0,1 -2,0 0,1 -1,0 0,1 -1,0 0,1 -1,0 0,1 -2,0 0,1 -1,0 0,1 -1,0 0,1 -1,0 0,1 -2,0 0,1 -1,0 0,1 -1,0 0,1 -1,0 0,1 -1,0 0,1 -1,0 0,1 -2,0 0,1 -1,0 0,1 -1,0 0,1 -1,0 0,1 -1,0 0,1 -1,0 0,1 -2,0 0,1 -1,0 0,1 -1,0 0,1 -1,0 0,1 -1,0 0,1 -1,0 0,1 -2,0 0,1 -1,0 0,1 -1,0 0,1 -1,0 0,1 -1,0 0,1 -1,0 0,1 -2,0 0,1 -1,0 0,1 -1,0 0,1 -1,0 0,1 -1,0 0,1 -1,0 0,1 -2,0 0,1 -1,0 0,1 -1,0 0,1 -1,0 0,1 -1,0 0,1 -1,0 0,1 -1,0 0,1 -1,0 0,1 -1,0 0,1 -2,0 0,1 -1,0 0,1 -1,0 0,1 -1,0 0,1 -1,0 0,1 -1,0 0,1 -1,0 0,1 -1,0 0,1 -1,0 0,1 -1,0 0,1 -1,0 0,1 -2,0 0,1 -1,0 0,1 -1,0 0,1 -1,0 0,1 -1,0 0,1 -1,0 0,1 -1,0 0,1 -1,0 0,1 -1,0 0,1 -1,0 0,1 -2,0 0,1 -1,0 0,1 -1,0 0,1 -1,0 0,1 -1,0 0,1 -1,0 0,1 -1,0 0,1 -1,0 0,1 -1,0 0,1 -1,0 0,1 -1,0 0,1 -1,0 0,1 -1,0 0,1 -1,0 0,1 -1,0 0,1 -1,0 0,1 -1,0 0,1 -1,0 0,1 -2,0 0,1 -1,0 0,1 -1,0 0,1 -1,0 0,1 -1,0 0,1 -1,0 0,1 -1,0 0,1 -1,0 0,1 -1,0 0,1 -1,0 0,1 -1,0 0,1 -1,0 0,1 -1,0 0,1 -1,0 0,1 -1,0 0,1 -1,0 0,1 -1,0 0,1 -1,0 0,1 -1,0 0,1 -1,0 0,1 -1,0 0,1 -1,0 0,1 -1,0 0,1 -1,0 0,1 -1,0 0,1 -1,0 0,1 -1,0 0,1 -1,0 0,1 -1,0 0,1 -1,0 0,1 -1,0 0,1 -1,0 0,1 -1,0 0,1 -1,0 0,1 -1,0 0,1 -1,0 0,1 -1,0 0,1 -1,0 0,1 -1,0 0,1 -1,0 0,1 -1,0 0,1 -1,0 0,1 -1,0 0,1 -1,0 0,1 -1,0 0,1 -1,0 0,1 -1,0 0,1 -1,0 0,1 -1,0 0,1 -1,0 0,1 -1,0 0,1 -1,0 0,1 -1,0 0,1 -1,0 0,1 -1,0 0,1 -1,0 0,1 -1,0 0,1 -1,0 0,1 -1,0 0,1 -1,0 0,2 -1,0 0,1 -1,0 0,1 -1,0 0,1 -1,0 0,1 -1,0 0,1 -1,0 0,1 -1,0 0,1 -1,0 0,1 -1,0 0,1 -1,0 0,1 -1,0 0,1 -1,0 0,1 -1,0 0,1 -1,0 0,2 -1,0 0,1 -1,0 0,1 -1,0 0,1 -1,0 0,1 -1,0 0,1 -1,0 0,1 -1,0 0,1 -1,0 0,1 -1,0 0,2 -1,0 0,1 -1,0 0,1 -1,0 0,1 -1,0 0,1 -1,0 0,1 -1,0 0,1 -1,0 0,1 -1,0 0,1 -1,0 0,2 -1,0 0,1 -1,0 0,1 -1,0 0,1 -1,0 0,1 -1,0 0,1 -1,0 0,2 -1,0 0,1 -1,0 0,1 -1,0 0,1 -1,0 0,1 -1,0 0,1 -1,0 0,2 -1,0 0,1 -1,0 0,1 -1,0 0,1 -1,0 0,1 -1,0 0,1 -1,0 0,2 -1,0 0,1 -1,0 0,1 -1,0 0,1 -1,0 0,2 -1,0 0,1 -1,0 0,1 -1,0 0,1 -1,0 0,2 -1,0 0,1 -1,0 0,1 -1,0 0,1 -1,0 0,1 -1,0 0,2 -1,0 0,1 -1,0 0,1 -1,0 0,1 -1,0 0,2 -1,0 0,1 -1,0 0,1 -1,0 0,2 -1,0 0,1 -1,0 0,1 -1,0 0,1 -1,0 0,2 -1,0 0,1 -1,0 0,1 -1,0 0,2 -1,0 0,1 -1,0 0,1 -1,0 0,2 -1,0 0,1 -1,0 0,1 -1,0 0,2 -1,0 0,1 -1,0 0,1 -1,0 0,2 -1,0 0,1 -1,0 0,1 -1,0 0,2 -1,0 0,1 -1,0 0,2 -1,0 0,1 -1,0 0,1 -1,0 0,2 -1,0 0,1 -1,0 0,1 -1,0 0,2 -1,0 0,1 -1,0 0,2 -1,0 0,1 -1,0 0,2 -1,0 0,1 -1,0 0,2 -1,0 0,1 -1,0 0,2 -1,0 0,1 -1,0 0,1 -1,0 0,2 -1,0 0,1 -1,0 0,2 -1,0 0,1 -1,0 0,2 -1,0 0,1 -1,0 0,2 -1,0 0,1 -1,0 0,2 -1,0 0,2 -1,0 0,1 -1,0 0,2 -1,0 0,1 -1,0 0,2 -1,0 0,2 -1,0 0,1 -1,0 0,2 -1,0 0,1 -1,0 0,2 -1,0 0,1 -1,0 0,2 -1,0 0,2 -1,0 0,2 -1,0 0,1 -1,0 0,2 -1,0 0,2 -1,0 0,1 -1,0 0,2 -1,0 0,2 -1,0 0,1 -1,0 0,2 -1,0 0,2 -1,0 0,1 -1,0 0,2 -1,0 0,2 -1,0 0,2 -1,0 0,2 -1,0 0,2 -1,0 0,1 -1,0 0,2 -1,0 0,2 -1,0 0,2 -1,0 0,2 -1,0 0,2 -1,0 0,1 -1,0 0,2 -1,0 0,2 -1,0 0,2 -1,0 0,2 -1,0 0,2 -1,0 0,2 -1,0 0,2 -1,0 0,2 -1,0 0,2 -1,0 0,2 -1,0 0,2 -1,0 0,2 -1,0 0,2 -1,0 0,3 -1,0 0,2 -1,0 0,2 -1,0 0,2 -1,0 0,2 -1,0 0,2 -1,0 0,2 -1,0 0,3 -1,0 0,2 -1,0 0,2 -1,0 0,3 -1,0 0,2 -1,0 0,2 -1,0 0,3 -1,0 0,2 -1,0 0,2 -1,0 0,3 -1,0 0,2 -1,0 0,2 -1,0 0,3 -1,0 0,3 -1,0 0,2 -1,0 0,3 -1,0 0,2 -1,0 0,3 -1,0 0,2 -1,0 0,3 -1,0 0,3 -1,0 0,2 -1,0 0,3 -1,0 0,3 -1,0 0,3 -1,0 0,3 -1,0 0,3 -1,0 0,3 -1,0 0,2 -1,0 0,3 -1,0 0,4 -1,0 0,3 -1,0 0,3 -1,0 0,3 -1,0 0,3 -1,0 0,3 -1,0 0,4 -1,0 0,3 -1,0 0,3 -1,0 0,4 -1,0 0,4 -1,0 0,3 -1,0 0,4 -1,0 0,3 -1,0 0,4 -1,0 0,4 -1,0 0,4 -1,0 0,4 -1,0 0,4 -1,0 0,4 -1,0 0,4 -1,0 0,4 -1,0 0,5 -1,0 0,4 -1,0 0,5 -1,0 0,4 -1,0 0,5 -1,0 0,5 -1,0 0,5 -1,0 0,5 -1,0 0,5 -1,0 0,5 -1,0 0,5 -1,0 0,6 -1,0 0,6 -1,0 0,6 -1,0 0,6 -1,0 0,7 -1,0 0,6 -1,0 0,7 -1,0 0,7 -1,0 0,7 -1,0 0,9 -1,0 0,8 -1,0 0,8 -1,0 0,9 -1,0 0,10 -1,0 0,9 -1,0 0,11 -1,0 0,12 -1,0 0,11 -1,0 0,14 -1,0 0,15 -1,0 0,17 -1,0 0,19 -1,0 0,24 -1,0 0,30 -1,0 0,51 -1,0 0,1825 212,0 0,-290 1,0 0,-418 1,0 0,-418 1,0 0,-418 1,0 0,-394 1,0 0,-33 1,0 0,-24 1,0 0,-20 1,0 0,-17 1,0 0,-16 1,0 0,-14 1,0 0,-13 1,0 0,-12 1,0 0,-11 1,0 0,-10 1,0 0,-9 1,0 0,-9 1,0 0,-9 1,0 0,-7 1,0 0,-8 1,0 0,-7 1,0 0,-6 1,0 0,-6 1,0 0,-6 1,0 0,-5 1,0 0,-5 1,0 0,-5 1,0 0,-4 1,0 0,-4 1,0 0,-5 1,0 0,-4 1,0 0,-3 1,0 0,-3 1,0 0,-3 1,0 0,-3 1,0 0,-3 1,0 0,-3 1,0 0,-3 1,0 0,-4 1,0 0,-3 1,0 0,-3 1,0 0,-2 1,0 0,-3 1,0 0,-2 1,0 0,-3 1,0 0,-2 1,0 0,-3 1,0 0,-2 1,0 0,-3 1,0 0,-2 1,0 0,-3 1,0 0,-2 1,0 0,-3 1,0 0,-2 1,0 0,-2 1,0 0,-2 1,0 0,-2 1,0 0,-2 1,0 0,-2 1,0 0,-2 1,0 0,-3 1,0 0,-2 1,0 0,-2 1,0 0,-2 1,0 0,-2 1,0 0,-2 1,0 0,-2 1,0 0,-2 1,0 0,-2 1,0 0,-2 1,0 0,-2 1,0 0,-2 1,0 0,-1 1,0 0,-2 1,0 0,-2 1,0 0,-2 1,0 0,-2 1,0 0,-2 1,0 0,-1 1,0 0,-2 1,0 0,-2 1,0 0,-2 1,0 0,-2 1,0 0,-2 1,0 0,-1 1,0 0,-2 1,0 0,-2 1,0 0,-1 1,0 0,-2 1,0 0,-2 1,0 0,-1 1,0 0,-2 1,0 0,-1 1,0 0,-2 1,0 0,-2 1,0 0,-1 1,0 0,-2 1,0 0,-1 1,0 0,-2 1,0 0,-2 1,0 0,-1 1,0 0,-2 1,0 0,-2 1,0 0,-1 1,0 0,-2 1,0 0,-1 1,0 0,-2 1,0 0,-1 1,0 0,-2 1,0 0,-1 1,0 0,-2 1,0 0,-1 1,0 0,-2 1,0 0,-1 1,0 0,-1 1,0 0,-2 1,0 0,-1 1,0 0,-2 1,0 0,-1 1,0 0,-2 1,0 0,-1 1,0 0,-2 1,0 0,-1 1,0 0,-2 1,0 0,-1 1,0 0,-2 1,0 0,-1 1,0 0,-1 1,0 0,-2 1,0 0,-1 1,0 0,-1 1,0 0,-2 1,0 0,-1 1,0 0,-1 1,0 0,-2 1,0 0,-1 1,0 0,-1 1,0 0,-2 1,0 0,-1 1,0 0,-1 1,0 0,-2 1,0 0,-1 1,0 0,-1 1,0 0,-2 1,0 0,-1 1,0 0,-1 1,0 0,-2 1,0 0,-1 1,0 0,-1 1,0 0,-2 1,0 0,-1 1,0 0,-1 1,0 0,-1 1,0 0,-2 1,0 0,-1 1,0 0,-1 1,0 0,-1 1,0 0,-2 1,0 0,-1 1,0 0,-1 1,0 0,-1 1,0 0,-1 1,0 0,-2 1,0 0,-1 1,0 0,-1 1,0 0,-1 1,0 0,-2 1,0 0,-1 1,0 0,-1 1,0 0,-1 1,0 0,-2 1,0 0,-1 1,0 0,-1 1,0 0,-1 1,0 0,-1 1,0 0,-2 1,0 0,-1 1,0 0,-1 1,0 0,-1 1,0 0,-1 1,0 0,-2 1,0 0,-1 1,0 0,-1 1,0 0,-1 1,0 0,-1 1,0 0,-1 1,0 0,-2 1,0 0,-1 1,0 0,-1 1,0 0,-1 1,0 0,-1 1,0 0,-1 1,0 0,-1 1,0 0,-2 1,0 0,-1 1,0 0,-1 1,0 0,-1 1,0 0,-1 1,0 0,-1 1,0 0,-1 1,0 0,-2 1,0 0,-1 1,0 0,-1 1,0 0,-1 1,0 0,-1 1,0 0,-1 1,0 0,-1 1,0 0,-1 1,0 0,-1 1,0 0,-2 1,0 0,-1 1,0 0,-1 1,0 0,-1 1,0 0,-1 1,0 0,-1 1,0 0,-1 1,0 0,-1 1,0 0,-1 1,0 0,-1 1,0 0,-1 1,0 0,-1 1,0 0,-2 1,0 0,-1 1,0 0,-1 1,0 0,-1 1,0 0,-1 1,0 0,-1 1,0 0,-1 1,0 0,-1 1,0 0,-1 1,0 0,-1 1,0 0,-1 1,0 0,-1 1,0 0,-1 1,0 0,-1 1,0 0,-1 1,0 0,-1 1,0 0,-1 1,0 0,-1 1,0 0,-2 1,0 0,-1 1,0 0,-1 1,0 0,-1 1,0 0,-1 1,0 0,-1 1,0 0,-1 1,0 0,-1 1,0 0,-1 1,0 0,-1 1,0 0,-1 1,0 0,-1 1,0 0,-1 1,0 0,-1 1,0 0,-1 1,0 0,-1 1,0 0,-1 1,0 0,-1 1,0 0,-1 1,0 0,-1 1,0 0,-1 1,0 0,-1 1,0 0,-1 1,0 0,-1 1,0 0,-1 1,0 0,-1 1,0 0,-1 1,0 0,-1 1,0 0,-1 2,0 0,-1 1,0 0,-1 1,0 0,-1 1,0 0,-1 1,0 0,-1 1,0 0,-1 1,0 0,-1 1,0 0,-1 1,0 0,-1 1,0 0,-1 1,0 0,-1 1,0 0,-1 1,0 0,-1 1,0 0,-1 1,0 0,-1 1,0 0,-1 1,0 0,-1 1,0 0,-1 2,0 0,-1 1,0 0,-1 1,0 0,-1 1,0 0,-1 1,0 0,-1 1,0 0,-1 1,0 0,-1 1,0 0,-1 1,0 0,-1 1,0 0,-1 1,0 0,-1 2,0 0,-1 1,0 0,-1 1,0 0,-1 1,0 0,-1 1,0 0,-1 1,0 0,-1 1,0 0,-1 2,0 0,-1 1,0 0,-1 1,0 0,-1 1,0 0,-1 1,0 0,-1 1,0 0,-1 1,0 0,-1 2,0 0,-1 1,0 0,-1 1,0 0,-1 1,0 0,-1 1,0 0,-1 1,0 0,-1 2,0 0,-1 1,0 0,-1 1,0 0,-1 1,0 0,-1 2,0 0,-1 1,0 0,-1 1,0 0,-1 1,0 0,-1 1,0 0,-1 2,0 0,-1 1,0 0,-1 1,0 0,-1 1,0 0,-1 1,0 0,-1 2,0 0,-1 1,0 0,-1 1,0 0,-1 2,0 0,-1 1,0 0,-1 1,0 0,-1 1,0 0,-1 2,0 0,-1 1,0 0,-1 1,0 0,-1 2,0 0,-1 1,0 0,-1 1,0 0,-1 1,0 0,-1 2,0 0,-1 1,0 0,-1 1,0 0,-1 2,0 0,-1 1,0 0,-1 1,0 0,-1 2,0 0,-1 1,0 0,-1 2,0 0,-1 1,0 0,-1 1,0 0,-1 2,0 0,-1 1,0 0,-1 1,0 0,-1 2,0 0,-1 1,0 0,-1 2,0 0,-1 1,0 0,-1 2,0 0,-1 1,0 0,-1 2,0 0,-1 1,0 0,-1 2,0 0,-1 1,0 0,-1 1,0 0,-1 2,0 0,-1 1,0 0,-1 2,0 0,-1 1,0 0,-1 2,0 0,-1 2,0 0,-1 1,0 0,-1 2,0 0,-1 1,0 0,-1 2,0 0,-1 2,0 0,-1 1,0 0,-1 2,0 0,-1 1,0 0,-1 2,0 0,-1 2,0 0,-1 1,0 0,-1 2,0 0,-1 2,0 0,-1 2,0 0,-1 1,0 0,-1 2,0 0,-1 2,0 0,-1 2,0 0,-1 1,0 0,-1 2,0 0,-1 2,0 0,-1 2,0 0,-1 2,0 0,-1 2,0 0,-1 2,0 0,-1 2,0 0,-1 2,0 0,-1 2,0 0,-1 2,0 0,-1 2,0 0,-1 2,0 0,-1 2,0 0,-1 2,0 0,-1 2,0 0,-1 2,0 0,-1 3,0 0,-1 2,0 0,-1 2,0 0,-1 3,0 0,-1 2,0 0,-1 3,0 0,-1 2,0 0,-1 2,0 0,-1 3,0 0,-1 3,0 0,-1 3,0 0,-1 3,0 0,-1 2,0 0,-1 3,0 0,-1 3,0 0,-1 3,0 0,-1 3,0 0,-1 3,0 0,-1 4,0 0,-1 3,0 0,-1 3,0 0,-1 4,0 0,-1 3,0 0,-1 3,0 0,-1 4,0 0,-1 4,0 0,-1 3,0 0,-1 4,0 0,-1 4,0 0,-1 4,0 0,-1 4,0 0,-1 4,0 0,-1 4,0 0,-1 5,0 0,-1 4,0 0,-1 4,0 0,-1 5,0 0,-1 4,0 0,-1 5,0 0,-1 5,0 0,-1 5,0 0,-1 5,0 0,-1 5,0 0,-1 5,0 0,-1 6,0 0,-1 6,0 0,-1 6,0 0,-1 6,0 0,-1 5,0 0,-1 7,0 0,-1 6,0 0,-1 7,0 0,-1 6,0 0,-1 7,0 0,-1 8,0 0,-1 7,0 0,-1 8,0 0,-1 7,0 0,-1 9,0 0,-1 9,0 0,-1 9,0 0,-1 9,0 0,-1 11,0 0,-1 10,0 0,-1 12,0 0,-1 12,0 0,-1 13,0 0,-1 16,0 0,-1 18,0 0,-1 23,0 0,-1 69,0 0,1 19,0 0,1 12,0 0,1 12,0 0,1 11,0 0,1 9,0 0,1 9,0 0,1 9,0 0,1 7,0 0,1 8,0 0,1 8,0 0,1 7,0 0,1 6,0 0,1 7,0 0,1 7,0 0,1 6,0 0,1 6,0 0,1 6,0 0,1 6,0 0,1 5,0 0,1 6,0 0,1 6,0 0,1 5,0 0,1 5,0 0,1 5,0 0,1 5,0 0,1 5,0 0,1 5,0 0,1 5,0 0,1 5,0 0,1 4,0 0,1 5,0 0,1 4,0 0,1 5,0 0,1 4,0 0,1 5,0 0,1 4,0 0,1 4,0 0,1 4,0 0,1 4,0 0,1 4,0 0,1 4,0 0,1 4,0 0,1 4,0 0,1 4,0 0,1 4,0 0,1 3,0 0,1 4,0 0,1 3,0 0,1 4,0 0,1 4,0 0,1 3,0 0,1 4,0 0,1 3,0 0,1 3,0 0,1 4,0 0,1 3,0 0,1 3,0 0,1 3,0 0,1 3,0 0,1 4,0 0,1 3,0 0,1 3,0 0,1 3,0 0,1 3,0 0,1 2,0 0,1 3,0 0,1 3,0 0,1 3,0 0,1 3,0 0,1 3,0 0,1 2,0 0,1 3,0 0,1 3,0 0,1 3,0 0,1 2,0 0,1 3,0 0,1 2,0 0,1 3,0 0,1 2,0 0,1 3,0 0,1 2,0 0,1 2,0 0,1 3,0 0,1 2,0 0,1 3,0 0,1 2,0 0,1 2,0 0,1 2,0 0,1 2,0 0,1 2,0 0,1 3,0 0,1 2,0 0,1 2,0 0,1 2,0 0,1 2,0 0,1 2,0 0,1 2,0 0,1 2,0 0,1 2,0 0,1 2,0 0,1 2,0 0,1 2,0 0,1 1,0 0,1 2,0 0,1 2,0 0,1 2,0 0,1 2,0 0,1 2,0 0,1 1,0 0,1 2,0 0,1 2,0 0,1 2,0 0,1 1,0 0,1 2,0 0,1 2,0 0,1 1,0 0,1 2,0 0,1 2,0 0,1 1,0 0,1 2,0 0,1 2,0 0,1 1,0 0,1 2,0 0,1 2,0 0,1 1,0 0,1 2,0 0,1 2,0 0,1 2,0 0,1 1,0 0,1 2,0 0,1 2,0 0,1 1,0 0,1 2,0 0,1 2,0 0,1 1,0 0,1 2,0 0,1 2,0 0,1 1,0 0,1 2,0 0,1 2,0 0,1 1,0 0,1 2,0 0,1 2,0 0,1 1,0 0,1 2,0 0,1 2,0 0,1 1,0 0,1 2,0 0,1 2,0 0,1 1,0 0,1 2,0 0,1 1,0 0,1 2,0 0,1 2,0 0,1 1,0 0,1 2,0 0,1 2,0 0,1 1,0 0,1 2,0 0,1 1,0 0,1 2,0 0,1 1,0 0,1 2,0 0,1 1,0 0,1 2,0 0,1 2,0 0,1 1,0 0,1 2,0 0,1 1,0 0,1 2,0 0,1 1,0 0,1 2,0 0,1 1,0 0,1 2,0 0,1 1,0 0,1 1,0 0,1 2,0 0,1 1,0 0,1 2,0 0,1 1,0 0,1 2,0 0,1 1,0 0,1 1,0 0,1 2,0 0,1 1,0 0,1 1,0 0,1 2,0 0,1 1,0 0,1 1,0 0,1 2,0 0,1 1,0 0,1 2,0 0,1 1,0 0,1 1,0 0,1 1,0 0,1 1,0 0,1 2,0 0,1 1,0 0,1 1,0 0,1 1,0 0,1 2,0 0,1 1,0 0,1 1,0 0,1 1,0 0,1 2,0 0,1 1,0 0,1 1,0 0,1 1,0 0,1 1,0 0,1 1,0 0,1 1,0 0,1 1,0 0,1 2,0 0,1 1,0 0,1 1,0 0,1 1,0 0,1 1,0 0,1 1,0 0,1 1,0 0,1 1,0 0,1 1,0 0,1 1,0 0,1 1,0 0,1 1,0 0,1 1,0 0,1 1,0 0,1 1,0 0,1 1,0 0,1 1,0 0,1 1,0 0,1 1,0 0,1 1,0 0,1 1,0 0,1 1,0 0,1 1,0 0,1 1,0 0,1 1,0 0,1 1,0 0,1 1,0 0,1 1,0 0,1 1,0 0,2 1,0 0,1 1,0 0,1 1,0 0,1 1,0 0,1 1,0 0,1 1,0 0,1 1,0 0,1 1,0 0,2 1,0 0,1 1,0 0,1 1,0 0,1 1,0 0,1 1,0 0,2 1,0 0,1 1,0 0,1 1,0 0,1 1,0 0,1 1,0 0,2 1,0 0,1 1,0 0,1 1,0 0,2 1,0 0,1 1,0 0,1 1,0 0,2 1,0 0,1 1,0 0,1 1,0 0,2 1,0 0,1 1,0 0,1 1,0 0,2 1,0 0,1 1,0 0,1 1,0 0,2 1,0 0,1 1,0 0,1 1,0 0,2 1,0 0,1 1,0 0,2 1,0 0,1 1,0 0,2 1,0 0,1 1,0 0,2 1,0 0,1 1,0 0,1 1,0 0,2 1,0 0,1 1,0 0,2 1,0 0,1 1,0 0,2 1,0 0,2 1,0 0,1 1,0 0,2 1,0 0,1 1,0 0,2 1,0 0,1 1,0 0,2 1,0 0,1 1,0 0,2 1,0 0,2 1,0 0,1 1,0 0,2 1,0 0,1 1,0 0,2 1,0 0,2 1,0 0,1 1,0 0,2 1,0 0,2 1,0 0,1 1,0 0,2 1,0 0,2 1,0 0,2 1,0 0,1 1,0 0,2 1,0 0,2 1,0 0,1 1,0 0,2 1,0 0,2 1,0 0,2 1,0 0,1 1,0 0,2 1,0 0,2 1,0 0,2 1,0 0,2 1,0 0,2 1,0 0,2 1,0 0,1 1,0 0,2 1,0 0,2 1,0 0,2 1,0 0,2 1,0 0,2 1,0 0,2 1,0 0,2 1,0 0,2 1,0 0,2 1,0 0,2 1,0 0,2 1,0 0,2 1,0 0,2 1,0 0,2 1,0 0,2 1,0 0,3 1,0 0,2 1,0 0,2 1,0 0,2 1,0 0,3 1,0 0,2 1,0 0,2 1,0 0,2 1,0 0,3 1,0 0,2 1,0 0,2 1,0 0,3 1,0 0,2 1,0 0,2 1,0 0,3 1,0 0,2 1,0 0,3 1,0 0,2 1,0 0,3 1,0 0,2 1,0 0,3 1,0 0,2 1,0 0,3 1,0 0,2 1,0 0,3 1,0 0,2 1,0 0,3 1,0 0,3 1,0 0,3 1,0 0,2 1,0 0,3 1,0 0,3 1,0 0,3 1,0 0,2 1,0 0,3 1,0 0,3 1,0 0,3 1,0 0,3 1,0 0,3 1,0 0,3 1,0 0,3 1,0 0,3 1,0 0,3 1,0 0,3 1,0 0,3 1,0 0,3 1,0 0,3 1,0 0,3 1,0 0,4 1,0 0,3 1,0 0,3 1,0 0,3 1,0 0,3 1,0 0,4 1,0 0,3 1,0 0,4 1,0 0,3 1,0 0,4 1,0 0,3 1,0 0,4 1,0 0,3 1,0 0,4 1,0 0,4 1,0 0,3 1,0 0,4 1,0 0,4 1,0 0,3 1,0 0,4 1,0 0,4 1,0 0,4 1,0 0,4 1,0 0,4 1,0 0,4 1,0 0,4 1,0 0,4 1,0 0,5 1,0 0,4 1,0 0,4 1,0 0,4 1,0 0,5 1,0 0,4 1,0 0,5 1,0 0,5 1,0 0,4 1,0 0,5 1,0 0,5 1,0 0,5 1,0 0,6 1,0 0,1868 -54,0 0,-1786 -1,0 0,-23 -1,0 0,-8 -1,0 0,-8 -1,0 0,-9 -1,0 0,-6 -1,0 0,-6 -1,0 0,-5 -1,0 0,-6 -1,0 0,-5 -1,0 0,-5 -1,0 0,-5 -1,0 0,-4 -1,0 0,-4 -1,0 0,-5 -1,0 0,-4 -1,0 0,-5 -1,0 0,-3 -1,0 0,-4 -1,0 0,-4 -1,0 0,-3 -1,0 0,-4 -1,0 0,-4 -1,0 0,-3 -1,0 0,-4 -1,0 0,-4 -1,0 0,-3 -1,0 0,-3 -1,0 0,-3 -1,0 0,-4 -1,0 0,-3 -1,0 0,-3 -1,0 0,-3 -1,0 0,-3 -1,0 0,-4 -1,0 0,-3 -1,0 0,-3 -1,0 0,-3 -1,0 0,-2 -1,0 0,-3 -1,0 0,-3 -1,0 0,-3 -1,0 0,-3 -1,0 0,-3 -1,0 0,-3 -1,0 0,-3 -1,0 0,-2 -1,0 0,-3 -1,0 0,-3 -1,0 0,-2 -1,0 0,-3 -1,0 0,-3 -1,0 0,-2 -1,0 0,-3 -1,0 0,-2 -1,0 0,-3 -1,0 0,-3 -1,0 0,-2 -1,0 0,-3 -1,0 0,-2 -1,0 0,-3 -1,0 0,-2 -1,0 0,-2 -1,0 0,-3 -1,0 0,-2 -1,0 0,-3 -1,0 0,-2 -1,0 0,-2 -1,0 0,-3 -1,0 0,-2 -1,0 0,-3 -1,0 0,-2 -1,0 0,-2 -1,0 0,-3 -1,0 0,-2 -1,0 0,-2 -1,0 0,-2 -1,0 0,-2 -1,0 0,-3 -1,0 0,-2 -1,0 0,-2 -1,0 0,-2 -1,0 0,-2 -1,0 0,-3 -1,0 0,-2 -1,0 0,-2 -1,0 0,-2 -1,0 0,-2 -1,0 0,-2 -1,0 0,-2 -1,0 0,-2 -1,0 0,-2 -1,0 0,-2 -1,0 0,-2 -1,0 0,-2 -1,0 0,-2 -1,0 0,-2 -1,0 0,-2 -1,0 0,-2 -1,0 0,-3 -1,0 0,-2 -1,0 0,-2 -1,0 0,-1 -1,0 0,-2 -1,0 0,-2 -1,0 0,-2 -1,0 0,-2 -1,0 0,-2 -1,0 0,-2 -1,0 0,-1 -1,0 0,-2 -1,0 0,-2 -1,0 0,-2 -1,0 0,-2 -1,0 0,-2 -1,0 0,-2 -1,0 0,-1 -1,0 0,-2 -1,0 0,-2 -1,0 0,-2 -1,0 0,-1 -1,0 0,-2 -1,0 0,-2 -1,0 0,-1 -1,0 0,-2 -1,0 0,-2 -1,0 0,-2 -1,0 0,-1 -1,0 0,-2 -1,0 0,-2 -1,0 0,-1 -1,0 0,-2 -1,0 0,-2 -1,0 0,-1 -1,0 0,-2 -1,0 0,-1 -1,0 0,-2 -1,0 0,-1 -1,0 0,-2 -1,0 0,-1 -1,0 0,-2 -1,0 0,-2 -1,0 0,-1 -1,0 0,-2 -1,0 0,-1 -1,0 0,-2 -1,0 0,-1 -1,0 0,-2 -1,0 0,-1 -1,0 0,-2 -1,0 0,-1 -1,0 0,-1 -1,0 0,-2 -1,0 0,-1 -1,0 0,-2 -1,0 0,-1 -1,0 0,-1 -1,0 0,-2 -1,0 0,-1 -1,0 0,-1 -1,0 0,-2 -1,0 0,-1 -1,0 0,-2 -1,0 0,-1 -1,0 0,-1 -1,0 0,-2 -1,0 0,-1 -1,0 0,-1 -1,0 0,-1 -1,0 0,-1 -1,0 0,-2 -1,0 0,-1 -1,0 0,-1 -1,0 0,-1 -1,0 0,-1 -1,0 0,-2 -1,0 0,-1 -1,0 0,-1 -1,0 0,-1 -1,0 0,-1 -1,0 0,-2 -1,0 0,-1 -1,0 0,-1 -1,0 0,-1 -1,0 0,-1 -1,0 0,-1 -1,0 0,-1 -1,0 0,-1 -1,0 0,-1 -1,0 0,-1 -1,0 0,-1 -1,0 0,-1 -1,0 0,-1 -1,0 0,-1 -1,0 0,-1 -1,0 0,-2 -1,0 0,-1 -1,0 0,-1 -1,0 0,-1 -1,0 0,-1 -1,0 0,-1 -1,0 0,-1 -1,0 0,-1 -1,0 0,-1 -2,0 0,-1 -1,0 0,-1 -1,0 0,-1 -1,0 0,-1 -1,0 0,-1 -1,0 0,-1 -1,0 0,-1 -1,0 0,-1 -1,0 0,-1 -1,0 0,-1 -1,0 0,-1 -1,0 0,-1 -1,0 0,-1 -1,0 0,-1 -1,0 0,-1 -1,0 0,-1 -1,0 0,-1 -1,0 0,-1 -2,0 0,-1 -1,0 0,-1 -1,0 0,-1 -1,0 0,-1 -1,0 0,-1 -1,0 0,-1 -1,0 0,-1 -1,0 0,-1 -1,0 0,-1 -1,0 0,-1 -2,0 0,-1 -1,0 0,-1 -1,0 0,-1 -1,0 0,-1 -1,0 0,-1 -2,0 0,-1 -1,0 0,-1 -1,0 0,-1 -1,0 0,-1 -1,0 0,-1 -1,0 0,-1 -2,0 0,-1 -1,0 0,-1 -1,0 0,-1 -1,0 0,-1 -1,0 0,-1 -2,0 0,-1 -1,0 0,-1 -1,0 0,-1 -1,0 0,-1 -2,0 0,-1 -1,0 0,-1 -1,0 0,-1 -1,0 0,-1 -2,0 0,-1 -1,0 0,-1 -1,0 0,-1 -2,0 0,-1 -1,0 0,-1 -1,0 0,-1 -1,0 0,-1 -2,0 0,-1 -1,0 0,-1 -1,0 0,-1 -2,0 0,-1 -1,0 0,-1 -1,0 0,-1 -2,0 0,-1 -1,0 0,-1 -2,0 0,-1 -1,0 0,-1 -1,0 0,-1 -2,0 0,-1 -1,0 0,-1 -1,0 0,-1 -2,0 0,-1 -1,0 0,-1 -2,0 0,-1 -1,0 0,-1 -1,0 0,-1 -2,0 0,-1 -1,0 0,-1 -2,0 0,-1 -1,0 0,-1 -2,0 0,-1 -1,0 0,-1 -2,0 0,-1 -1,0 0,-1 -2,0 0,-1 -1,0 0,-1 -2,0 0,-1 -1,0 0,-1 -2,0 0,-1 -1,0 0,-1 -2,0 0,-1 -1,0 0,-1 -2,0 0,-1 -1,0 0,-1 -2,0 0,-1 -2,0 0,-1 -1,0 0,-1 -2,0 0,-1 -1,0 0,-1 -2,0 0,-1 -1,0 0,-1 -2,0 0,-1 -2,0 0,-1 -1,0 0,-1 -2,0 0,-1 -2,0 0,-1 -2,0 0,-1 -1,0 0,-1 -2,0 0,-1 -2,0 0,-1 -1,0 0,-1 -2,0 0,-1 -2,0 0,-1 -1,0 0,-1 -2,0 0,-1 -2,0 0,-1 -2,0 0,-1 -2,0 0,-1 -1,0 0,-1 -2,0 0,-1 -2,0 0,-1 -2,0 0,-1 -2,0 0,-1 -1,0 0,-1 -2,0 0,-1 -2,0 0,-1 -2,0 0,-1 -2,0 0,-1 -2,0 0,-1 -2,0 0,-1 -2,0 0,-1 -2,0 0,-1 -2,0 0,-1 -2,0 0,-1 -2,0 0,-1 -2,0 0,-1 -2,0 0,-1 -2,0 0,-1 -2,0 0,-1 -2,0 0,-1 -2,0 0,-1 -2,0 0,-1 -2,0 0,-1 -2,0 0,-1 -2,0 0,-1 -3,0 0,-1 -2,0 0,-1 -2,0 0,-1 -2,0 0,-1 -2,0 0,-1 -2,0 0,-1 -3,0 0,-1 -2,0 0,-1 -2,0 0,-1 -3,0 0,-1 -2,0 0,-1 -3,0 0,-1 -2,0 0,-1 -2,0 0,-1 -3,0 0,-1 -2,0 0,-1 -3,0 0,-1 -2,0 0,-1 -3,0 0,-1 -2,0 0,-1 -3,0 0,-1 -3,0 0,-1 -2,0 0,-1 -3,0 0,-1 -3,0 0,-1 -2,0 0,-1 -3,0 0,-1 -3,0 0,-1 -3,0 0,-1 -3,0 0,-1 -3,0 0,-1 -3,0 0,-1 -3,0 0,-1 -3,0 0,-1 -3,0 0,-1 -4,0 0,-1 -3,0 0,-1 -3,0 0,-1 -4,0 0,-1 -3,0 0,-1 -4,0 0,-1 -4,0 0,-1 -4,0 0,-1 -3,0 0,-1 -4,0 0,-1 -4,0 0,-1 -4,0 0,-1 -5,0 0,-1 -5,0 0,-1 -4,0 0,-1 -5,0 0,-1 -4,0 0,-1 -5,0 0,-1 -6,0 0,-1 -5,0 0,-1 -6,0 0,-1 -5,0 0,-1 -6,0 0,-1 -6,0 0,-1 -7,0 0,-1 -6,0 0,-1 -7,0 0,-1 -6,0 0,-1 -8,0 0,-1 -8,0 0,-1 -8,0 0,-1 -8,0 0,-1 -10,0 0,-1 -10,0 0,-1 -10,0 0,-1 -11,0 0,-1 -14,0 0,-1 -13,0 0,-1 -18,0 0,-1 -20,0 0,-1 -103,0 0,1 -18,0 0,1 -16,0 0,1 -11,0 0,1 -11,0 0,1 -10,0 0,1 -8,0 0,1 -7,0 0,1 -7,0 0,1 -7,0 0,1 -7,0 0,1 -5,0 0,1 -5,0 0,1 -5,0 0,1 -5,0 0,1 -6,0 0,1 -4,0 0,1 -4,0 0,1 -3,0 0,1 -4,0 0,1 -4,0 0,1 -4,0 0,1 -4,0 0,1 -4,0 0,1 -3,0 0,1 -4,0 0,1 -4,0 0,1 -3,0 0,1 -4,0 0,1 -4,0 0,1 -4,0 0,1 -4,0 0,1 -4,0 0,1 -4,0 0,1 -4,0 0,1 -4,0 0,1 -5,0 0,1 -4,0 0,1 -4,0 0,1 -5,0 0,1 -4,0 0,1 -5,0 0,1 -4,0 0,1 -5,0 0,1 -4,0 0,1 -5,0 0,1 -4,0 0,1 -4,0 0,1 -5,0 0,1 -4,0 0,1 -4,0 0,1 -4,0 0,1 -4,0 0,1 -4,0 0,1 -4,0 0,1 -3,0 0,1 -3,0 0,1 -4,0 0,1 -3,0 0,1 -4,0 0,1 -3,0 0,1 -3,0 0,1 -3,0 0,1 -3,0 0,1 -3,0 0,1 -3,0 0,1 -3,0 0,1 -3,0 0,1 -2,0 0,1 -3,0 0,1 -2,0 0,1 -3,0 0,1 -2,0 0,1 -3,0 0,1 -2,0 0,1 -2,0 0,1 -3,0 0,1 -2,0 0,1 -2,0 0,1 -2,0 0,1 -2,0 0,1 -2,0 0,1 -2,0 0,1 -2,0 0,1 -2,0 0,1 -3,0 0,1 -2,0 0,1 -1,0 0,1 -2,0 0,1 -2,0 0,1 -2,0 0,1 -2,0 0,1 -1,0 0,1 -2,0 0,1 -2,0 0,1 -2,0 0,1 -2,0 0,1 -1,0 0,1 -2,0 0,1 -2,0 0,1 -1,0 0,1 -2,0 0,1 -1,0 0,1 -2,0 0,1 -2,0 0,1 -1,0 0,1 -2,0 0,1 -1,0 0,1 -2,0 0,1 -1,0 0,1 -2,0 0,1 -1,0 0,1 -2,0 0,1 -2,0 0,1 -1,0 0,1 -1,0 0,1 -2,0 0,1 -1,0 0,1 -1,0 0,1 -2,0 0,1 -1,0 0,1 -2,0 0,1 -1,0 0,1 -1,0 0,1 -2,0 0,1 -1,0 0,1 -2,0 0,1 -1,0 0,1 -1,0 0,1 -2,0 0,1 -1,0 0,1 -1,0 0,1 -2,0 0,1 -1,0 0,1 -1,0 0,1 -1,0 0,1 -2,0 0,1 -1,0 0,1 -1,0 0,1 -1,0 0,1 -1,0 0,1 -2,0 0,1 -1,0 0,1 -1,0 0,1 -1,0 0,1 -2,0 0,1 -1,0 0,1 -1,0 0,1 -1,0 0,1 -2,0 0,1 -1,0 0,1 -1,0 0,1 -1,0 0,1 -1,0 0,1 -1,0 0,1 -2,0 0,1 -1,0 0,1 -1,0 0,1 -1,0 0,1 -1,0 0,1 -1,0 0,1 -1,0 0,1 -1,0 0,1 -2,0 0,1 -1,0 0,1 -1,0 0,1 -1,0 0,1 -1,0 0,1 -1,0 0,1 -1,0 0,1 -2,0 0,1 -1,0 0,1 -1,0 0,1 -1,0 0,1 -1,0 0,1 -1,0 0,1 -1,0 0,1 -1,0 0,1 -1,0 0,1 -1,0 0,1 -1,0 0,1 -1,0 0,1 -1,0 0,1 -1,0 0,1 -2,0 0,1 -1,0 0,1 -1,0 0,1 -1,0 0,1 -1,0 0,1 -1,0 0,1 -1,0 0,1 -1,0 0,1 -1,0 0,1 -1,0 0,1 -1,0 0,1 -1,0 0,1 -1,0 0,1 -1,0 0,1 -1,0 0,1 -1,0 0,1 -1,0 0,1 -1,0 0,1 -1,0 0,1 -1,0 0,1 -1,0 0,1 -1,0 0,1 -1,0 0,1 -1,0 0,1 -1,0 0,1 -1,0 0,1 -1,0 0,1 -1,0 0,1 -1,0 0,1 -1,0 0,2 -1,0 0,1 -1,0 0,1 -1,0 0,1 -1,0 0,1 -1,0 0,1 -1,0 0,1 -1,0 0,1 -1,0 0,1 -1,0 0,1 -1,0 0,1 -1,0 0,1 -1,0 0,2 -1,0 0,1 -1,0 0,1 -1,0 0,1 -1,0 0,1 -1,0 0,1 -1,0 0,1 -1,0 0,1 -1,0 0,1 -1,0 0,2 -1,0 0,1 -1,0 0,1 -1,0 0,1 -1,0 0,2 -1,0 0,1 -1,0 0,1 -1,0 0,1 -1,0 0,2 -1,0 0,1 -1,0 0,1 -1,0 0,1 -1,0 0,2 -1,0 0,1 -1,0 0,1 -1,0 0,1 -1,0 0,2 -1,0 0,1 -1,0 0,1 -1,0 0,1 -1,0 0,2 -1,0 0,1 -1,0 0,1 -1,0 0,1 -1,0 0,2 -1,0 0,1 -1,0 0,1 -1,0 0,2 -1,0 0,1 -1,0 0,2 -1,0 0,1 -1,0 0,1 -1,0 0,2 -1,0 0,1 -1,0 0,2 -1,0 0,1 -1,0 0,2 -1,0 0,1 -1,0 0,1 -1,0 0,2 -1,0 0,1 -1,0 0,2 -1,0 0,1 -1,0 0,1 -1,0 0,2 -1,0 0,1 -1,0 0,2 -1,0 0,1 -1,0 0,2 -1,0 0,1 -1,0 0,2 -1,0 0,1 -1,0 0,2 -1,0 0,1 -1,0 0,2 -1,0 0,2 -1,0 0,1 -1,0 0,2 -1,0 0,1 -1,0 0,2 -1,0 0,2 -1,0 0,1 -1,0 0,2 -1,0 0,1 -1,0 0,2 -1,0 0,2 -1,0 0,1 -1,0 0,2 -1,0 0,2 -1,0 0,1 -1,0 0,2 -1,0 0,1 -1,0 0,2 -1,0 0,2 -1,0 0,2 -1,0 0,1 -1,0 0,2 -1,0 0,2 -1,0 0,2 -1,0 0,2 -1,0 0,1 -1,0 0,2 -1,0 0,2 -1,0 0,2 -1,0 0,2 -1,0 0,1 -1,0 0,2 -1,0 0,2 -1,0 0,2 -1,0 0,2 -1,0 0,1 -1,0 0,2 -1,0 0,2 -1,0 0,2 -1,0 0,2 -1,0 0,2 -1,0 0,2 -1,0 0,2 -1,0 0,2 -1,0 0,2 -1,0 0,2 -1,0 0,2 -1,0 0,2 -1,0 0,2 -1,0 0,2 -1,0 0,2 -1,0 0,2 -1,0 0,2 -1,0 0,2 -1,0 0,2 -1,0 0,2 -1,0 0,2 -1,0 0,2 -1,0 0,2 -1,0 0,3 -1,0 0,2 -1,0 0,2 -1,0 0,3 -1,0 0,2 -1,0 0,2 -1,0 0,2 -1,0 0,3 -1,0 0,2 -1,0 0,2 -1,0 0,2 -1,0 0,3 -1,0 0,2 -1,0 0,2 -1,0 0,3 -1,0 0,2 -1,0 0,2 -1,0 0,2 -1,0 0,3 -1,0 0,3 -1,0 0,2 -1,0 0,3 -1,0 0,2 -1,0 0,3 -1,0 0,2 -1,0 0,3 -1,0 0,2 -1,0 0,3 -1,0 0,3 -1,0 0,2 -1,0 0,3 -1,0 0,2 -1,0 0,3 -1,0 0,3 -1,0 0,2 -1,0 0,3 -1,0 0,3 -1,0 0,3 -1,0 0,3 -1,0 0,3 -1,0 0,3 -1,0 0,3 -1,0 0,2 -1,0 0,3 -1,0 0,3 -1,0 0,3 -1,0 0,3 -1,0 0,3 -1,0 0,3 -1,0 0,4 -1,0 0,3 -1,0 0,3 -1,0 0,4 -1,0 0,3 -1,0 0,3 -1,0 0,3 -1,0 0,4 -1,0 0,3 -1,0 0,3 -1,0 0,4 -1,0 0,4 -1,0 0,3 -1,0 0,4 -1,0 0,4 -1,0 0,4 -1,0 0,3 -1,0 0,4 -1,0 0,4 -1,0 0,4 -1,0 0,4 -1,0 0,4 -1,0 0,5 -1,0 0,4 -1,0 0,5 -1,0 0,4 -1,0 0,5 -1,0 0,4 -1,0 0,5 -1,0 0,5 -1,0 0,6 -1,0 0,5 -1,0 0,6 -1,0 0,5 -1,0 0,6 -1,0 0,6 -1,0 0,8 -1,0 0,7 -1,0 0,7 -1,0 0,8 -1,0 0,11 -1,0 0,11 -1,0 0,20 -1,0 0,1726 479,0 0,-1775 1,0 0,-11 1,0 0,-8 1,0 0,-7 1,0 0,-6 1,0 0,-6 1,0 0,-5 1,0 0,-5 1,0 0,-5 1,0 0,-4 1,0 0,-4 1,0 0,-5 1,0 0,-3 1,0 0,-4 1,0 0,-4 1,0 0,-4 1,0 0,-3 1,0 0,-3 1,0 0,-4 1,0 0,-3 1,0 0,-3 1,0 0,-3 1,0 0,-3 1,0 0,-3 1,0 0,-3 1,0 0,-3 1,0 0,-3 1,0 0,-2 1,0 0,-3 1,0 0,-3 1,0 0,-2 1,0 0,-3 1,0 0,-2 1,0 0,-3 1,0 0,-2 1,0 0,-3 1,0 0,-2 1,0 0,-2 1,0 0,-2 1,0 0,-3 1,0 0,-2 1,0 0,-2 1,0 0,-2 1,0 0,-2 1,0 0,-2 1,0 0,-2 1,0 0,-2 1,0 0,-2 1,0 0,-2 1,0 0,-2 1,0 0,-2 1,0 0,-2 1,0 0,-1 1,0 0,-2 1,0 0,-2 1,0 0,-2 1,0 0,-1 1,0 0,-2 1,0 0,-2 1,0 0,-2 1,0 0,-1 1,0 0,-2 1,0 0,-1 1,0 0,-2 1,0 0,-1 1,0 0,-2 1,0 0,-1 1,0 0,-2 1,0 0,-1 1,0 0,-1 1,0 0,-2 1,0 0,-1 1,0 0,-1 1,0 0,-2 1,0 0,-1 1,0 0,-1 1,0 0,-2 1,0 0,-1 1,0 0,-1 1,0 0,-1 1,0 0,-1 1,0 0,-1 1,0 0,-1 1,0 0,-1 1,0 0,-1 1,0 0,-2 1,0 0,-1 1,0 0,-1 2,0 0,-1 1,0 0,-1 1,0 0,-1 1,0 0,-1 1,0 0,-1 1,0 0,-1 1,0 0,-1 2,0 0,-1 1,0 0,-1 1,0 0,-1 2,0 0,-1 1,0 0,-1 2,0 0,-1 1,0 0,-1 1,0 0,-1 2,0 0,-1 2,0 0,-1 1,0 0,-1 2,0 0,-1 2,0 0,-1 1,0 0,-1 2,0 0,-1 2,0 0,-1 2,0 0,-1 2,0 0,-1 2,0 0,-1 2,0 0,-1 2,0 0,-1 2,0 0,-1 2,0 0,-1 2,0 0,-1 2,0 0,-1 2,0 0,-1 3,0 0,-1 2,0 0,-1 2,0 0,-1 3,0 0,-1 2,0 0,-1 3,0 0,-1 2,0 0,-1 3,0 0,-1 2,0 0,-1 3,0 0,-1 3,0 0,-1 3,0 0,-1 3,0 0,-1 3,0 0,-1 3,0 0,-1 3,0 0,-1 3,0 0,-1 4,0 0,-1 3,0 0,-1 3,0 0,-1 4,0 0,-1 4,0 0,-1 3,0 0,-1 4,0 0,-1 4,0 0,-1 4,0 0,-1 4,0 0,-1 5,0 0,-1 4,0 0,-1 5,0 0,-1 5,0 0,-1 5,0 0,-1 5,0 0,-1 5,0 0,-1 6,0 0,-1 6,0 0,-1 7,0 0,-1 6,0 0,-1 8,0 0,-1 9,0 0,-1 10,0 0,-1 12,0 0,-1 27,0 0,-1 2,0 0,1 28,0 0,1 11,0 0,1 12,0 0,1 8,0 0,1 7,0 0,1 7,0 0,1 7,0 0,1 6,0 0,1 5,0 0,1 4,0 0,1 5,0 0,1 5,0 0,1 5,0 0,1 5,0 0,1 3,0 0,1 4,0 0,1 3,0 0,1 4,0 0,1 4,0 0,1 3,0 0,1 4,0 0,1 3,0 0,1 3,0 0,1 3,0 0,1 3,0 0,1 2,0 0,1 3,0 0,1 3,0 0,1 3,0 0,1 2,0 0,1 3,0 0,1 3,0 0,1 2,0 0,1 2,0 0,1 2,0 0,1 2,0 0,1 2,0 0,1 2,0 0,1 2,0 0,1 3,0 0,1 2,0 0,1 2,0 0,1 2,0 0,1 2,0 0,1 2,0 0,1 1,0 0,1 2,0 0,1 1,0 0,1 2,0 0,1 1,0 0,1 2,0 0,1 1,0 0,1 2,0 0,1 1,0 0,1 2,0 0,1 2,0 0,1 1,0 0,1 2,0 0,1 1,0 0,1 1,0 0,1 2,0 0,1 1,0 0,1 1,0 0,1 1,0 0,1 2,0 0,1 1,0 0,1 1,0 0,1 1,0 0,1 2,0 0,1 1,0 0,1 1,0 0,1 1,0 0,1 1,0 0,1 1,0 0,1 2,0 0,1 1,0 0,1 1,0 0,1 1,0 0,1 1,0 0,1 1,0 0,1 1,0 0,1 1,0 0,1 1,0 0,1 1,0 0,1 2,0 0,1 1,0 0,1 1,0 0,1 1,0 0,1 1,0 0,1 1,0 0,1 1,0 0,1 1,0 0,1 1,0 0,1 1,0 0,1 1,0 0,1 1,0 0,1 1,0 0,1 1,0 0,2 1,0 0,1 1,0 0,1 1,0 0,1 1,0 0,1 1,0 0,1 1,0 0,1 1,0 0,1 1,0 0,1 1,0 0,1 1,0 0,2 1,0 0,1 1,0 0,1 1,0 0,1 1,0 0,1 1,0 0,2 1,0 0,1 1,0 0,1 1,0 0,1 1,0 0,2 1,0 0,1 1,0 0,1 1,0 0,1 1,0 0,2 1,0 0,1 1,0 0,1 1,0 0,2 1,0 0,1 1,0 0,2 1,0 0,1 1,0 0,1 1,0 0,2 1,0 0,1 1,0 0,2 1,0 0,1 1,0 0,2 1,0 0,1 1,0 0,2 1,0 0,2 1,0 0,1 1,0 0,2 1,0 0,2 1,0 0,1 1,0 0,2 1,0 0,2 1,0 0,2 1,0 0,1 1,0 0,2 1,0 0,2 1,0 0,2 1,0 0,2 1,0 0,2 1,0 0,2 1,0 0,2 1,0 0,3 1,0 0,2 1,0 0,2 1,0 0,2 1,0 0,3 1,0 0,3 1,0 0,2 1,0 0,3 1,0 0,3 1,0 0,3 1,0 0,4 1,0 0,3 1,0 0,3 1,0 0,4 1,0 0,5 1,0 0,5 1,0 0,5 1,0 0,8 1,0 0,10 1,0 0,1612 214,0 0,-1575 -1,0 0,-14 -1,0 0,-9 -1,0 0,-10 -1,0 0,-6 -1,0 0,-7 -1,0 0,-6 -1,0 0,-6 -1,0 0,-5 -1,0 0,-5 -1,0 0,-4 -1,0 0,-5 -1,0 0,-4 -1,0 0,-4 -1,0 0,-5 -1,0 0,-3 -1,0 0,-4 -1,0 0,-3 -1,0 0,-4 -1,0 0,-3 -1,0 0,-4 -1,0 0,-3 -1,0 0,-4 -1,0 0,-3 -1,0 0,-3 -1,0 0,-3 -1,0 0,-2 -1,0 0,-3 -1,0 0,-3 -1,0 0,-3 -1,0 0,-3 -1,0 0,-3 -1,0 0,-3 -1,0 0,-2 -1,0 0,-3 -1,0 0,-2 -1,0 0,-3 -1,0 0,-2 -1,0 0,-3 -1,0 0,-2 -1,0 0,-3 -1,0 0,-2 -1,0 0,-2 -1,0 0,-3 -1,0 0,-2 -1,0 0,-2 -1,0 0,-2 -1,0 0,-2 -1,0 0,-3 -1,0 0,-2 -1,0 0,-2 -1,0 0,-2 -1,0 0,-2 -1,0 0,-2 -1,0 0,-2 -1,0 0,-2 -1,0 0,-2 -1,0 0,-2 -1,0 0,-2 -1,0 0,-2 -1,0 0,-2 -1,0 0,-2 -1,0 0,-2 -1,0 0,-2 -1,0 0,-2 -1,0 0,-2 -1,0 0,-2 -1,0 0,-1 -1,0 0,-2 -1,0 0,-2 -1,0 0,-1 -1,0 0,-2 -1,0 0,-2 -1,0 0,-2 -1,0 0,-1 -1,0 0,-2 -1,0 0,-2 -1,0 0,-1 -1,0 0,-2 -1,0 0,-2 -1,0 0,-1 -1,0 0,-2 -1,0 0,-2 -1,0 0,-1 -1,0 0,-2 -1,0 0,-1 -1,0 0,-2 -1,0 0,-1 -1,0 0,-2 -1,0 0,-1 -1,0 0,-2 -1,0 0,-1 -1,0 0,-2 -1,0 0,-2 -1,0 0,-1 -1,0 0,-1 -1,0 0,-2 -1,0 0,-1 -1,0 0,-2 -1,0 0,-1 -1,0 0,-1 -1,0 0,-2 -1,0 0,-1 -1,0 0,-1 -1,0 0,-2 -1,0 0,-1 -1,0 0,-2 -1,0 0,-1 -1,0 0,-1 -1,0 0,-2 -1,0 0,-1 -1,0 0,-1 -1,0 0,-1 -1,0 0,-2 -1,0 0,-1 -1,0 0,-1 -1,0 0,-1 -1,0 0,-1 -1,0 0,-2 -1,0 0,-1 -1,0 0,-1 -1,0 0,-1 -1,0 0,-2 -1,0 0,-1 -1,0 0,-1 -1,0 0,-1 -1,0 0,-1 -1,0 0,-1 -1,0 0,-2 -1,0 0,-1 -1,0 0,-1 -1,0 0,-1 -1,0 0,-1 -1,0 0,-1 -1,0 0,-1 -1,0 0,-1 -1,0 0,-1 -1,0 0,-1 -1,0 0,-1 -1,0 0,-2 -1,0 0,-1 -1,0 0,-1 -1,0 0,-1 -1,0 0,-1 -1,0 0,-1 -1,0 0,-1 -1,0 0,-1 -1,0 0,-1 -2,0 0,-1 -1,0 0,-1 -1,0 0,-1 -1,0 0,-1 -1,0 0,-1 -1,0 0,-1 -1,0 0,-1 -1,0 0,-1 -1,0 0,-1 -1,0 0,-1 -1,0 0,-1 -1,0 0,-1 -1,0 0,-1 -2,0 0,-1 -1,0 0,-1 -1,0 0,-1 -1,0 0,-1 -2,0 0,-1 -1,0 0,-1 -1,0 0,-1 -1,0 0,-1 -1,0 0,-1 -2,0 0,-1 -1,0 0,-1 -1,0 0,-1 -2,0 0,-1 -1,0 0,-1 -1,0 0,-1 -2,0 0,-1 -1,0 0,-1 -2,0 0,-1 -1,0 0,-1 -2,0 0,-1 -1,0 0,-1 -1,0 0,-1 -2,0 0,-1 -1,0 0,-1 -2,0 0,-1 -2,0 0,-1 -1,0 0,-1 -2,0 0,-1 -2,0 0,-1 -2,0 0,-1 -1,0 0,-1 -2,0 0,-1 -2,0 0,-1 -1,0 0,-1 -2,0 0,-1 -2,0 0,-1 -2,0 0,-1 -2,0 0,-1 -2,0 0,-1 -2,0 0,-1 -2,0 0,-1 -2,0 0,-1 -2,0 0,-1 -2,0 0,-1 -2,0 0,-1 -2,0 0,-1 -2,0 0,-1 -2,0 0,-1 -3,0 0,-1 -2,0 0,-1 -2,0 0,-1 -2,0 0,-1 -3,0 0,-1 -2,0 0,-1 -2,0 0,-1 -3,0 0,-1 -2,0 0,-1 -3,0 0,-1 -2,0 0,-1 -3,0 0,-1 -2,0 0,-1 -3,0 0,-1 -3,0 0,-1 -2,0 0,-1 -3,0 0,-1 -3,0 0,-1 -2,0 0,-1 -3,0 0,-1 -3,0 0,-1 -3,0 0,-1 -3,0 0,-1 -3,0 0,-1 -3,0 0,-1 -3,0 0,-1 -3,0 0,-1 -4,0 0,-1 -3,0 0,-1 -3,0 0,-1 -4,0 0,-1 -3,0 0,-1 -4,0 0,-1 -3,0 0,-1 -3,0 0,-1 -4,0 0,-1 -4,0 0,-1 -4,0 0,-1 -4,0 0,-1 -4,0 0,-1 -3,0 0,-1 -4,0 0,-1 -4,0 0,-1 -5,0 0,-1 -4,0 0,-1 -5,0 0,-1 -4,0 0,-1 -4,0 0,-1 -5,0 0,-1 -5,0 0,-1 -5,0 0,-1 -5,0 0,-1 -5,0 0,-1 -5,0 0,-1 -6,0 0,-1 -6,0 0,-1 -6,0 0,-1 -6,0 0,-1 -6,0 0,-1 -7,0 0,-1 -7,0 0,-1 -7,0 0,-1 -8,0 0,-1 -9,0 0,-1 -8,0 0,-1 -10,0 0,-1 -12,0 0,-1 -14,0 0,-1 -18,0 0,-1 -50,0 0,1 -24,0 0,1 -16,0 0,1 -11,0 0,1 -11,0 0,1 -9,0 0,1 -8,0 0,1 -8,0 0,1 -7,0 0,1 -6,0 0,1 -7,0 0,1 -5,0 0,1 -6,0 0,1 -5,0 0,1 -6,0 0,1 -4,0 0,1 -5,0 0,1 -4,0 0,1 -5,0 0,1 -4,0 0,1 -4,0 0,1 -4,0 0,1 -4,0 0,1 -4,0 0,1 -4,0 0,1 -3,0 0,1 -3,0 0,1 -4,0 0,1 -3,0 0,1 -3,0 0,1 -3,0 0,1 -4,0 0,1 -2,0 0,1 -3,0 0,1 -3,0 0,1 -3,0 0,1 -3,0 0,1 -3,0 0,1 -2,0 0,1 -3,0 0,1 -2,0 0,1 -3,0 0,1 -2,0 0,1 -3,0 0,1 -2,0 0,1 -3,0 0,1 -2,0 0,1 -2,0 0,1 -2,0 0,1 -2,0 0,1 -3,0 0,1 -2,0 0,1 -2,0 0,1 -2,0 0,1 -2,0 0,1 -2,0 0,1 -2,0 0,1 -2,0 0,1 -2,0 0,1 -2,0 0,1 -2,0 0,1 -1,0 0,1 -2,0 0,1 -2,0 0,1 -2,0 0,1 -2,0 0,1 -2,0 0,1 -1,0 0,1 -2,0 0,1 -1,0 0,1 -2,0 0,1 -2,0 0,1 -1,0 0,1 -2,0 0,1 -1,0 0,1 -2,0 0,1 -2,0 0,1 -1,0 0,1 -2,0 0,1 -1,0 0,1 -1,0 0,1 -2,0 0,1 -1,0 0,1 -2,0 0,1 -1,0 0,1 -1,0 0,1 -2,0 0,1 -1,0 0,1 -2,0 0,1 -1,0 0,1 -1,0 0,1 -1,0 0,1 -2,0 0,1 -1,0 0,1 -1,0 0,1 -1,0 0,1 -1,0 0,1 -1,0 0,1 -2,0 0,1 -1,0 0,1 -1,0 0,1 -1,0 0,1 -1,0 0,1 -2,0 0,1 -1,0 0,1 -1,0 0,1 -1,0 0,1 -1,0 0,1 -1,0 0,1 -1,0 0,1 -1,0 0,1 -1,0 0,1 -1,0 0,1 -1,0 0,1 -1,0 0,1 -1,0 0,1 -1,0 0,1 -1,0 0,1 -1,0 0,1 -1,0 0,1 -1,0 0,1 -1,0 0,1 -1,0 0,1 -1,0 0,2 -1,0 0,1 -1,0 0,1 -1,0 0,1 -1,0 0,1 -1,0 0,1 -1,0 0,1 -1,0 0,1 -1,0 0,1 -1,0 0,2 -1,0 0,1 -1,0 0,1 -1,0 0,1 -1,0 0,1 -1,0 0,1 -1,0 0,1 -1,0 0,2 -1,0 0,1 -1,0 0,1 -1,0 0,1 -1,0 0,2 -1,0 0,1 -1,0 0,1 -1,0 0,1 -1,0 0,2 -1,0 0,1 -1,0 0,1 -1,0 0,1 -1,0 0,2 -1,0 0,1 -1,0 0,1 -1,0 0,1 -1,0 0,2 -1,0 0,1 -1,0 0,1 -1,0 0,2 -1,0 0,1 -1,0 0,1 -1,0 0,2 -1,0 0,1 -1,0 0,2 -1,0 0,1 -1,0 0,1 -1,0 0,2 -1,0 0,1 -1,0 0,1 -1,0 0,2 -1,0 0,1 -1,0 0,2 -1,0 0,1 -1,0 0,1 -1,0 0,2 -1,0 0,1 -1,0 0,2 -1,0 0,1 -1,0 0,2 -1,0 0,1 -1,0 0,2 -1,0 0,1 -1,0 0,2 -1,0 0,1 -1,0 0,2 -1,0 0,1 -1,0 0,2 -1,0 0,1 -1,0 0,2 -1,0 0,1 -1,0 0,2 -1,0 0,2 -1,0 0,1 -1,0 0,2 -1,0 0,2 -1,0 0,1 -1,0 0,2 -1,0 0,1 -1,0 0,2 -1,0 0,2 -1,0 0,1 -1,0 0,2 -1,0 0,2 -1,0 0,1 -1,0 0,2 -1,0 0,1 -1,0 0,2 -1,0 0,2 -1,0 0,2 -1,0 0,2 -1,0 0,1 -1,0 0,2 -1,0 0,2 -1,0 0,2 -1,0 0,2 -1,0 0,1 -1,0 0,2 -1,0 0,2 -1,0 0,2 -1,0 0,1 -1,0 0,2 -1,0 0,2 -1,0 0,2 -1,0 0,2 -1,0 0,2 -1,0 0,2 -1,0 0,2 -1,0 0,2 -1,0 0,2 -1,0 0,2 -1,0 0,2 -1,0 0,2 -1,0 0,2 -1,0 0,2 -1,0 0,2 -1,0 0,2 -1,0 0,2 -1,0 0,2 -1,0 0,2 -1,0 0,2 -1,0 0,2 -1,0 0,3 -1,0 0,2 -1,0 0,2 -1,0 0,2 -1,0 0,2 -1,0 0,2 -1,0 0,3 -1,0 0,2 -1,0 0,2 -1,0 0,3 -1,0 0,2 -1,0 0,3 -1,0 0,2 -1,0 0,3 -1,0 0,2 -1,0 0,2 -1,0 0,3 -1,0 0,2 -1,0 0,3 -1,0 0,2 -1,0 0,3 -1,0 0,3 -1,0 0,3 -1,0 0,3 -1,0 0,2 -1,0 0,3 -1,0 0,3 -1,0 0,3 -1,0 0,3 -1,0 0,3 -1,0 0,3 -1,0 0,4 -1,0 0,3 -1,0 0,3 -1,0 0,4 -1,0 0,3 -1,0 0,4 -1,0 0,4 -1,0 0,4 -1,0 0,4 -1,0 0,5 -1,0 0,4 -1,0 0,5 -1,0 0,5 -1,0 0,7 -1,0 0,6 -1,0 0,7 -1,0 0,15 -1,0 0,1571 -65,0 0,-1626 1,0 0,-16 1,0 0,-8 1,0 0,-7 1,0 0,-8 1,0 0,-7 1,0 0,-4 1,0 0,-5 1,0 0,-4 1,0 0,-5 1,0 0,-5 1,0 0,-4 1,0 0,-4 1,0 0,-3 1,0 0,-4 1,0 0,-3 1,0 0,-3 1,0 0,-3 1,0 0,-4 1,0 0,-3 1,0 0,-3 1,0 0,-3 1,0 0,-3 1,0 0,-2 1,0 0,-3 1,0 0,-3 1,0 0,-2 1,0 0,-3 1,0 0,-2 1,0 0,-3 1,0 0,-2 1,0 0,-3 1,0 0,-2 1,0 0,-2 1,0 0,-3 1,0 0,-2 1,0 0,-2 1,0 0,-2 1,0 0,-2 1,0 0,-2 1,0 0,-2 1,0 0,-2 1,0 0,-3 1,0 0,-2 1,0 0,-2 1,0 0,-2 1,0 0,-1 1,0 0,-2 1,0 0,-2 1,0 0,-2 1,0 0,-2 1,0 0,-2 1,0 0,-1 1,0 0,-2 1,0 0,-2 1,0 0,-2 1,0 0,-2 1,0 0,-1 1,0 0,-2 1,0 0,-2 1,0 0,-2 1,0 0,-1 1,0 0,-2 1,0 0,-1 1,0 0,-2 1,0 0,-2 1,0 0,-1 1,0 0,-2 1,0 0,-1 1,0 0,-2 1,0 0,-2 1,0 0,-1 1,0 0,-2 1,0 0,-1 1,0 0,-2 1,0 0,-1 1,0 0,-2 1,0 0,-1 1,0 0,-2 1,0 0,-1 1,0 0,-1 1,0 0,-2 1,0 0,-1 1,0 0,-2 1,0 0,-1 1,0 0,-2 1,0 0,-1 1,0 0,-1 1,0 0,-2 1,0 0,-1 1,0 0,-2 1,0 0,-1 1,0 0,-1 1,0 0,-2 1,0 0,-1 1,0 0,-1 1,0 0,-1 1,0 0,-2 1,0 0,-1 1,0 0,-1 1,0 0,-2 1,0 0,-1 1,0 0,-1 1,0 0,-2 1,0 0,-1 1,0 0,-1 1,0 0,-2 1,0 0,-1 1,0 0,-1 1,0 0,-1 1,0 0,-1 1,0 0,-2 1,0 0,-1 1,0 0,-1 1,0 0,-1 1,0 0,-1 1,0 0,-2 1,0 0,-1 1,0 0,-1 1,0 0,-1 1,0 0,-1 1,0 0,-2 1,0 0,-1 1,0 0,-1 1,0 0,-1 1,0 0,-1 1,0 0,-2 1,0 0,-1 1,0 0,-1 1,0 0,-1 1,0 0,-1 1,0 0,-1 1,0 0,-1 1,0 0,-1 1,0 0,-2 1,0 0,-1 1,0 0,-1 1,0 0,-1 1,0 0,-1 1,0 0,-1 1,0 0,-1 1,0 0,-1 1,0 0,-2 1,0 0,-1 1,0 0,-1 1,0 0,-1 1,0 0,-1 1,0 0,-1 1,0 0,-1 1,0 0,-1 1,0 0,-1 1,0 0,-1 1,0 0,-1 1,0 0,-1 1,0 0,-1 1,0 0,-2 1,0 0,-1 1,0 0,-1 1,0 0,-1 1,0 0,-1 1,0 0,-1 1,0 0,-1 1,0 0,-1 1,0 0,-1 1,0 0,-1 1,0 0,-1 1,0 0,-1 1,0 0,-1 1,0 0,-1 1,0 0,-1 1,0 0,-1 1,0 0,-1 1,0 0,-1 1,0 0,-1 1,0 0,-1 1,0 0,-1 1,0 0,-1 1,0 0,-1 1,0 0,-1 1,0 0,-1 1,0 0,-1 1,0 0,-1 1,0 0,-1 1,0 0,-1 1,0 0,-1 1,0 0,-1 1,0 0,-1 1,0 0,-1 1,0 0,-1 1,0 0,-1 1,0 0,-1 1,0 0,-1 1,0 0,-1 1,0 0,-1 1,0 0,-1 1,0 0,-1 1,0 0,-1 1,0 0,-1 1,0 0,-1 1,0 0,-1 1,0 0,-1 1,0 0,-1 1,0 0,-1 1,0 0,-1 1,0 0,-1 1,0 0,-1 1,0 0,-1 1,0 0,-1 1,0 0,-1 1,0 0,-1 1,0 0,-1 1,0 0,-1 2,0 0,-1 1,0 0,-1 1,0 0,-1 1,0 0,-1 1,0 0,-1 1,0 0,-1 1,0 0,-1 1,0 0,-1 2,0 0,-1 1,0 0,-1 2,0 0,-1 1,0 0,-1 1,0 0,-1 2,0 0,-1 1,0 0,-1 1,0 0,-1 2,0 0,-1 1,0 0,-1 1,0 0,-1 2,0 0,-1 1,0 0,-1 2,0 0,-1 1,0 0,-1 2,0 0,-1 1,0 0,-1 2,0 0,-1 1,0 0,-1 2,0 0,-1 2,0 0,-1 1,0 0,-1 2,0 0,-1 1,0 0,-1 2,0 0,-1 2,0 0,-1 1,0 0,-1 2,0 0,-1 2,0 0,-1 2,0 0,-1 2,0 0,-1 1,0 0,-1 2,0 0,-1 2,0 0,-1 2,0 0,-1 2,0 0,-1 2,0 0,-1 1,0 0,-1 3,0 0,-1 2,0 0,-1 2,0 0,-1 2,0 0,-1 2,0 0,-1 2,0 0,-1 2,0 0,-1 2,0 0,-1 2,0 0,-1 2,0 0,-1 2,0 0,-1 3,0 0,-1 2,0 0,-1 2,0 0,-1 3,0 0,-1 2,0 0,-1 2,0 0,-1 3,0 0,-1 2,0 0,-1 3,0 0,-1 2,0 0,-1 2,0 0,-1 3,0 0,-1 3,0 0,-1 2,0 0,-1 3,0 0,-1 3,0 0,-1 2,0 0,-1 3,0 0,-1 3,0 0,-1 2,0 0,-1 3,0 0,-1 3,0 0,-1 3,0 0,-1 3,0 0,-1 3,0 0,-1 3,0 0,-1 3,0 0,-1 3,0 0,-1 3,0 0,-1 4,0 0,-1 3,0 0,-1 3,0 0,-1 4,0 0,-1 3,0 0,-1 4,0 0,-1 3,0 0,-1 4,0 0,-1 3,0 0,-1 4,0 0,-1 4,0 0,-1 4,0 0,-1 4,0 0,-1 4,0 0,-1 4,0 0,-1 4,0 0,-1 4,0 0,-1 5,0 0,-1 5,0 0,-1 4,0 0,-1 5,0 0,-1 5,0 0,-1 5,0 0,-1 5,0 0,-1 6,0 0,-1 5,0 0,-1 6,0 0,-1 6,0 0,-1 7,0 0,-1 7,0 0,-1 7,0 0,-1 7,0 0,-1 10,0 0,-1 9,0 0,-1 11,0 0,-1 15,0 0,-1 28,0 0,-1 9,0 0,1 23,0 0,1 12,0 0,1 11,0 0,1 8,0 0,1 8,0 0,1 8,0 0,1 7,0 0,1 6,0 0,1 6,0 0,1 7,0 0,1 6,0 0,1 5,0 0,1 5,0 0,1 6,0 0,1 5,0 0,1 5,0 0,1 5,0 0,1 5,0 0,1 4,0 0,1 5,0 0,1 5,0 0,1 4,0 0,1 5,0 0,1 4,0 0,1 4,0 0,1 4,0 0,1 4,0 0,1 5,0 0,1 4,0 0,1 4,0 0,1 4,0 0,1 4,0 0,1 3,0 0,1 4,0 0,1 4,0 0,1 3,0 0,1 4,0 0,1 4,0 0,1 4,0 0,1 3,0 0,1 3,0 0,1 4,0 0,1 3,0 0,1 4,0 0,1 3,0 0,1 3,0 0,1 4,0 0,1 3,0 0,1 3,0 0,1 3,0 0,1 3,0 0,1 4,0 0,1 3,0 0,1 3,0 0,1 3,0 0,1 3,0 0,1 3,0 0,1 3,0 0,1 3,0 0,1 3,0 0,1 2,0 0,1 3,0 0,1 3,0 0,1 3,0 0,1 3,0 0,1 2,0 0,1 3,0 0,1 3,0 0,1 3,0 0,1 2,0 0,1 3,0 0,1 2,0 0,1 3,0 0,1 2,0 0,1 3,0 0,1 2,0 0,1 3,0 0,1 2,0 0,1 3,0 0,1 2,0 0,1 3,0 0,1 2,0 0,1 2,0 0,1 3,0 0,1 2,0 0,1 2,0 0,1 2,0 0,1 3,0 0,1 2,0 0,1 2,0 0,1 2,0 0,1 3,0 0,1 2,0 0,1 2,0 0,1 2,0 0,1 2,0 0,1 2,0 0,1 2,0 0,1 2,0 0,1 2,0 0,1 2,0 0,1 2,0 0,1 2,0 0,1 2,0 0,1 1,0 0,1 2,0 0,1 2,0 0,1 1,0 0,1 2,0 0,1 2,0 0,1 2,0 0,1 1,0 0,1 2,0 0,1 2,0 0,1 2,0 0,1 1,0 0,1 2,0 0,1 1,0 0,1 2,0 0,1 1,0 0,1 2,0 0,1 1,0 0,1 2,0 0,1 1,0 0,1 1,0 0,1 2,0 0,1 1,0 0,1 2,0 0,1 1,0 0,1 1,0 0,1 2,0 0,1 1,0 0,1 1,0 0,1 1,0 0,1 2,0 0,1 1,0 0,1 1,0 0,1 1,0 0,1 1,0 0,1 2,0 0,1 1,0 0,1 1,0 0,1 1,0 0,1 1,0 0,1 2,0 0,1 1,0 0,1 1,0 0,1 1,0 0,1 1,0 0,1 1,0 0,1 1,0 0,1 1,0 0,1 1,0 0,1 1,0 0,1 1,0 0,1 1,0 0,1 2,0 0,1 1,0 0,1 1,0 0,1 1,0 0,1 1,0 0,1 1,0 0,1 1,0 0,1 1,0 0,1 1,0 0,1 1,0 0,1 1,0 0,1 1,0 0,1 1,0 0,1 1,0 0,1 1,0 0,1 1,0 0,2 1,0 0,1 1,0 0,1 1,0 0,1 1,0 0,1 1,0 0,1 1,0 0,1 1,0 0,1 1,0 0,1 1,0 0,1 1,0 0,1 1,0 0,1 1,0 0,2 1,0 0,1 1,0 0,1 1,0 0,1 1,0 0,1 1,0 0,2 1,0 0,1 1,0 0,1 1,0 0,1 1,0 0,1 1,0 0,2 1,0 0,1 1,0 0,1 1,0 0,1 1,0 0,1 1,0 0,1 1,0 0,2 1,0 0,1 1,0 0,1 1,0 0,2 1,0 0,1 1,0 0,1 1,0 0,2 1,0 0,1 1,0 0,1 1,0 0,2 1,0 0,1 1,0 0,1 1,0 0,2 1,0 0,1 1,0 0,1 1,0 0,2 1,0 0,1 1,0 0,2 1,0 0,1 1,0 0,2 1,0 0,1 1,0 0,2 1,0 0,1 1,0 0,2 1,0 0,1 1,0 0,2 1,0 0,1 1,0 0,2 1,0 0,1 1,0 0,2 1,0 0,1 1,0 0,2 1,0 0,1 1,0 0,2 1,0 0,2 1,0 0,1 1,0 0,2 1,0 0,2 1,0 0,1 1,0 0,2 1,0 0,2 1,0 0,1 1,0 0,2 1,0 0,2 1,0 0,1 1,0 0,2 1,0 0,2 1,0 0,2 1,0 0,2 1,0 0,1 1,0 0,2 1,0 0,2 1,0 0,2 1,0 0,2 1,0 0,2 1,0 0,2 1,0 0,2 1,0 0,1 1,0 0,2 1,0 0,2 1,0 0,2 1,0 0,3 1,0 0,2 1,0 0,2 1,0 0,2 1,0 0,2 1,0 0,2 1,0 0,2 1,0 0,2 1,0 0,3 1,0 0,2 1,0 0,2 1,0 0,3 1,0 0,2 1,0 0,2 1,0 0,3 1,0 0,2 1,0 0,3 1,0 0,2 1,0 0,3 1,0 0,2 1,0 0,3 1,0 0,3 1,0 0,3 1,0 0,2 1,0 0,3 1,0 0,3 1,0 0,3 1,0 0,3 1,0 0,3 1,0 0,3 1,0 0,3 1,0 0,4 1,0 0,3 1,0 0,4 1,0 0,3 1,0 0,3 1,0 0,5 1,0 0,4 1,0 0,4 1,0 0,4 1,0 0,5 1,0 0,4 1,0 0,6 1,0 0,6 1,0 0,5 1,0 0,6 1,0 0,9 1,0 0,9 1,0 0,18 1,0 0,2050 474,0 0,-1905 -1,0 0,-19 -1,0 0,-19 -1,0 0,-18 -1,0 0,-14 -1,0 0,-11 -1,0 0,-11 -1,0 0,-11 -1,0 0,-11 -1,0 0,-10 -1,0 0,-8 -1,0 0,-8 -1,0 0,-8 -1,0 0,-8 -1,0 0,-7 -1,0 0,-8 -1,0 0,-8 -1,0 0,-7 -1,0 0,-6 -1,0 0,-6 -1,0 0,-6 -1,0 0,-6 -1,0 0,-6 -1,0 0,-6 -1,0 0,-5 -1,0 0,-6 -1,0 0,-6 -1,0 0,-5 -1,0 0,-5 -1,0 0,-5 -1,0 0,-4 -1,0 0,-5 -1,0 0,-5 -1,0 0,-5 -1,0 0,-5 -1,0 0,-5 -1,0 0,-4 -1,0 0,-5 -1,0 0,-4 -1,0 0,-4 -1,0 0,-4 -1,0 0,-4 -1,0 0,-4 -1,0 0,-4 -1,0 0,-4 -1,0 0,-4 -1,0 0,-4 -1,0 0,-4 -1,0 0,-4 -1,0 0,-4 -1,0 0,-4 -1,0 0,-4 -1,0 0,-3 -1,0 0,-3 -1,0 0,-4 -1,0 0,-3 -1,0 0,-4 -1,0 0,-3 -1,0 0,-3 -1,0 0,-4 -1,0 0,-3 -1,0 0,-4 -1,0 0,-3 -1,0 0,-3 -1,0 0,-4 -1,0 0,-3 -1,0 0,-3 -1,0 0,-3 -1,0 0,-3 -1,0 0,-3 -1,0 0,-3 -1,0 0,-3 -1,0 0,-3 -1,0 0,-2 -1,0 0,-3 -1,0 0,-3 -1,0 0,-3 -1,0 0,-3 -1,0 0,-3 -1,0 0,-3 -1,0 0,-3 -1,0 0,-3 -1,0 0,-2 -1,0 0,-3 -1,0 0,-2 -1,0 0,-3 -1,0 0,-3 -1,0 0,-2 -1,0 0,-3 -1,0 0,-2 -1,0 0,-3 -1,0 0,-2 -1,0 0,-3 -1,0 0,-3 -1,0 0,-2 -1,0 0,-3 -1,0 0,-2 -1,0 0,-3 -1,0 0,-2 -1,0 0,-2 -1,0 0,-3 -1,0 0,-2 -1,0 0,-2 -1,0 0,-2 -1,0 0,-3 -1,0 0,-2 -1,0 0,-2 -1,0 0,-3 -1,0 0,-2 -1,0 0,-2 -1,0 0,-2 -1,0 0,-3 -1,0 0,-2 -1,0 0,-2 -1,0 0,-2 -1,0 0,-3 -1,0 0,-2 -1,0 0,-2 -1,0 0,-2 -1,0 0,-2 -1,0 0,-2 -1,0 0,-2 -1,0 0,-2 -1,0 0,-2 -1,0 0,-2 -1,0 0,-2 -1,0 0,-2 -1,0 0,-2 -1,0 0,-2 -1,0 0,-2 -1,0 0,-2 -1,0 0,-2 -1,0 0,-2 -1,0 0,-2 -1,0 0,-2 -1,0 0,-2 -1,0 0,-2 -1,0 0,-2 -1,0 0,-1 -1,0 0,-2 -1,0 0,-2 -1,0 0,-2 -1,0 0,-1 -1,0 0,-2 -1,0 0,-2 -1,0 0,-2 -1,0 0,-2 -1,0 0,-1 -1,0 0,-2 -1,0 0,-2 -1,0 0,-2 -1,0 0,-1 -1,0 0,-2 -1,0 0,-2 -1,0 0,-2 -1,0 0,-2 -1,0 0,-1 -1,0 0,-2 -1,0 0,-2 -1,0 0,-1 -1,0 0,-2 -1,0 0,-1 -1,0 0,-2 -1,0 0,-1 -1,0 0,-2 -1,0 0,-2 -1,0 0,-1 -1,0 0,-2 -1,0 0,-1 -1,0 0,-2 -1,0 0,-2 -1,0 0,-1 -1,0 0,-2 -1,0 0,-1 -1,0 0,-2 -1,0 0,-1 -1,0 0,-2 -1,0 0,-2 -1,0 0,-1 -1,0 0,-2 -1,0 0,-1 -1,0 0,-1 -1,0 0,-2 -1,0 0,-1 -1,0 0,-2 -1,0 0,-1 -1,0 0,-1 -1,0 0,-2 -1,0 0,-1 -1,0 0,-2 -1,0 0,-1 -1,0 0,-1 -1,0 0,-2 -1,0 0,-1 -1,0 0,-2 -1,0 0,-1 -1,0 0,-2 -1,0 0,-1 -1,0 0,-1 -1,0 0,-2 -1,0 0,-1 -1,0 0,-1 -1,0 0,-2 -1,0 0,-1 -1,0 0,-1 -1,0 0,-1 -1,0 0,-2 -1,0 0,-1 -1,0 0,-1 -1,0 0,-1 -1,0 0,-2 -1,0 0,-1 -1,0 0,-1 -1,0 0,-1 -1,0 0,-2 -1,0 0,-1 -1,0 0,-1 -1,0 0,-1 -1,0 0,-2 -1,0 0,-1 -1,0 0,-1 -1,0 0,-1 -1,0 0,-2 -1,0 0,-1 -1,0 0,-1 -1,0 0,-1 -1,0 0,-1 -1,0 0,-1 -1,0 0,-1 -1,0 0,-2 -1,0 0,-1 -1,0 0,-1 -1,0 0,-1 -1,0 0,-1 -1,0 0,-1 -1,0 0,-1 -1,0 0,-1 -1,0 0,-1 -1,0 0,-2 -1,0 0,-1 -1,0 0,-1 -1,0 0,-1 -1,0 0,-1 -1,0 0,-1 -1,0 0,-1 -1,0 0,-1 -1,0 0,-1 -1,0 0,-1 -1,0 0,-1 -1,0 0,-1 -1,0 0,-1 -1,0 0,-1 -1,0 0,-1 -1,0 0,-1 -1,0 0,-1 -1,0 0,-1 -1,0 0,-1 -1,0 0,-1 -1,0 0,-1 -1,0 0,-1 -1,0 0,-1 -1,0 0,-1 -1,0 0,-1 -1,0 0,-1 -1,0 0,-1 -1,0 0,-1 -1,0 0,-1 -1,0 0,-1 -1,0 0,-1 -1,0 0,-1 -1,0 0,-1 -1,0 0,-1 -1,0 0,-1 -1,0 0,-1 -1,0 0,-1 -1,0 0,-1 -1,0 0,-1 -1,0 0,-1 -1,0 0,-1 -1,0 0,-1 -2,0 0,-1 -1,0 0,-1 -1,0 0,-1 -1,0 0,-1 -1,0 0,-1 -1,0 0,-1 -1,0 0,-1 -1,0 0,-1 -1,0 0,-1 -2,0 0,-1 -1,0 0,-1 -1,0 0,-1 -1,0 0,-1 -1,0 0,-1 -1,0 0,-1 -1,0 0,-1 -1,0 0,-1 -2,0 0,-1 -1,0 0,-1 -1,0 0,-1 -1,0 0,-1 -1,0 0,-1 -1,0 0,-1 -1,0 0,-1 -2,0 0,-1 -1,0 0,-1 -1,0 0,-1 -1,0 0,-1 -1,0 0,-1 -2,0 0,-1 -1,0 0,-1 -1,0 0,-1 -1,0 0,-1 -2,0 0,-1 -1,0 0,-1 -1,0 0,-1 -1,0 0,-1 -1,0 0,-1 -2,0 0,-1 -1,0 0,-1 -1,0 0,-1 -1,0 0,-1 -2,0 0,-1 -1,0 0,-1 -1,0 0,-1 -1,0 0,-1 -1,0 0,-1 -2,0 0,-1 -1,0 0,-1 -1,0 0,-1 -1,0 0,-1 -2,0 0,-1 -1,0 0,-1 -1,0 0,-1 -2,0 0,-1 -1,0 0,-1 -1,0 0,-1 -2,0 0,-1 -1,0 0,-1 -1,0 0,-1 -2,0 0,-1 -1,0 0,-1 -1,0 0,-1 -2,0 0,-1 -1,0 0,-1 -1,0 0,-1 -2,0 0,-1 -1,0 0,-1 -1,0 0,-1 -2,0 0,-1 -1,0 0,-1 -1,0 0,-1 -1,0 0,-1 -2,0 0,-1 -1,0 0,-1 -1,0 0,-1 -2,0 0,-1 -1,0 0,-1 -2,0 0,-1 -1,0 0,-1 -1,0 0,-1 -2,0 0,-1 -1,0 0,-1 -2,0 0,-1 -1,0 0,-1 -2,0 0,-1 -1,0 0,-1 -1,0 0,-1 -2,0 0,-1 -1,0 0,-1 -2,0 0,-1 -1,0 0,-1 -1,0 0,-1 -2,0 0,-1 -1,0 0,-1 -2,0 0,-1 -1,0 0,-1 -2,0 0,-1 -1,0 0,-1 -1,0 0,-1 -2,0 0,-1 -1,0 0,-1 -2,0 0,-1 -1,0 0,-1 -2,0 0,-1 -1,0 0,-1 -2,0 0,-1 -1,0 0,-1 -2,0 0,-1 -1,0 0,-1 -2,0 0,-1 -1,0 0,-1 -2,0 0,-1 -1,0 0,-1 -2,0 0,-1 -1,0 0,-1 -2,0 0,-1 -1,0 0,-1 -2,0 0,-1 -2,0 0,-1 -1,0 0,-1 -2,0 0,-1 -1,0 0,-1 -2,0 0,-1 -1,0 0,-1 -2,0 0,-1 -1,0 0,-1 -2,0 0,-1 -1,0 0,-1 -2,0 0,-1 -1,0 0,-1 -2,0 0,-1 -2,0 0,-1 -1,0 0,-1 -2,0 0,-1 -2,0 0,-1 -1,0 0,-1 -2,0 0,-1 -1,0 0,-1 -2,0 0,-1 -2,0 0,-1 -1,0 0,-1 -2,0 0,-1 -2,0 0,-1 -1,0 0,-1 -2,0 0,-1 -1,0 0,-1 -2,0 0,-1 -2,0 0,-1 -1,0 0,-1 -2,0 0,-1 -2,0 0,-1 -1,0 0,-1 -2,0 0,-1 -2,0 0,-1 -1,0 0,-1 -2,0 0,-1 -2,0 0,-1 -2,0 0,-1 -1,0 0,-1 -2,0 0,-1 -2,0 0,-1 -2,0 0,-1 -1,0 0,-1 -2,0 0,-1 -2,0 0,-1 -1,0 0,-1 -2,0 0,-1 -2,0 0,-1 -2,0 0,-1 -1,0 0,-1 -2,0 0,-1 -2,0 0,-1 -2,0 0,-1 -1,0 0,-1 -2,0 0,-1 -2,0 0,-1 -2,0 0,-1 -2,0 0,-1 -2,0 0,-1 -1,0 0,-1 -2,0 0,-1 -2,0 0,-1 -2,0 0,-1 -2,0 0,-1 -2,0 0,-1 -1,0 0,-1 -2,0 0,-1 -2,0 0,-1 -2,0 0,-1 -2,0 0,-1 -2,0 0,-1 -2,0 0,-1 -1,0 0,-1 -2,0 0,-1 -2,0 0,-1 -2,0 0,-1 -2,0 0,-1 -2,0 0,-1 -2,0 0,-1 -2,0 0,-1 -2,0 0,-1 -2,0 0,-1 -2,0 0,-1 -2,0 0,-1 -2,0 0,-1 -2,0 0,-1 -2,0 0,-1 -2,0 0,-1 -2,0 0,-1 -2,0 0,-1 -2,0 0,-1 -2,0 0,-1 -2,0 0,-1 -2,0 0,-1 -2,0 0,-1 -2,0 0,-1 -2,0 0,-1 -2,0 0,-1 -2,0 0,-1 -2,0 0,-1 -2,0 0,-1 -2,0 0,-1 -2,0 0,-1 -3,0 0,-1 -2,0 0,-1 -2,0 0,-1 -2,0 0,-1 -2,0 0,-1 -2,0 0,-1 -2,0 0,-1 -3,0 0,-1 -2,0 0,-1 -2,0 0,-1 -2,0 0,-1 -2,0 0,-1 -2,0 0,-1 -3,0 0,-1 -2,0 0,-1 -2,0 0,-1 -3,0 0,-1 -2,0 0,-1 -2,0 0,-1 -3,0 0,-1 -2,0 0,-1 -2,0 0,-1 -3,0 0,-1 -2,0 0,-1 -2,0 0,-1 -2,0 0,-1 -3,0 0,-1 -2,0 0,-1 -2,0 0,-1 -3,0 0,-1 -3,0 0,-1 -2,0 0,-1 -3,0 0,-1 -2,0 0,-1 -3,0 0,-1 -2,0 0,-1 -3,0 0,-1 -2,0 0,-1 -3,0 0,-1 -3,0 0,-1 -2,0 0,-1 -3,0 0,-1 -2,0 0,-1 -3,0 0,-1 -3,0 0,-1 -3,0 0,-1 -2,0 0,-1 -3,0 0,-1 -3,0 0,-1 -3,0 0,-1 -3,0 0,-1 -3,0 0,-1 -3,0 0,-1 -3,0 0,-1 -2,0 0,-1 -3,0 0,-1 -3,0 0,-1 -4,0 0,-1 -3,0 0,-1 -3,0 0,-1 -4,0 0,-1 -3,0 0,-1 -3,0 0,-1 -4,0 0,-1 -3,0 0,-1 -3,0 0,-1 -4,0 0,-1 -4,0 0,-1 -4,0 0,-1 -4,0 0,-1 -4,0 0,-1 -4,0 0,-1 -4,0 0,-1 -4,0 0,-1 -4,0 0,-1 -5,0 0,-1 -6,0 0,-1 -5,0 0,-1 -5,0 0,-1 -5,0 0,-1 -5,0 0,-1 -5,0 0,-1 -7,0 0,-1 -7,0 0,-1 -6,0 0,-1 -7,0 0,-1 -7,0 0,-1 -7,0 0,-1 -9,0 0,-1 -10,0 0,-1 -9,0 0,-1 -10,0 0,-1 -14,0 0,-1 -13,0 0,-1 -19,0 0,-1 -23,0 0,-1"
               inkscape:connector-curvature="0"
               id="path46"
               style="fill:url(#linearGradient40);fill-opacity:1;fill-rule:nonzero;stroke:none" /></g></g></g><path
         d="m 370.336,1084.95 c 14.207,-9.63 26.012,-22.23 35.406,-37.82 9.395,-15.58 14.094,-34.49 14.094,-56.716 0,-22.687 -4.926,-42.394 -14.781,-59.125 -9.856,-16.726 -22.688,-30.476 -38.5,-41.25 -15.356,-10.539 -32.715,-18.562 -52.078,-24.062 -19.364,-5.5 -39.36,-8.25 -59.985,-8.25 l -230.9998,0 0,24.406 c 5.5,0.461 13.5195,1.433 24.0625,2.922 10.543,1.492 18.1055,3.265 22.6875,5.328 7.1055,3.211 12.1445,7.508 15.125,12.89 2.9805,5.387 4.4687,12.321 4.4687,20.797 l 0,350.63 c 0,7.79 -1.3164,14.66 -3.9531,20.62 -2.6367,5.96 -7.8476,10.77 -15.6406,14.44 -6.875,3.44 -14.5508,6.07 -23.0313,7.9 -8.4804,1.84 -15.582,2.98 -21.3125,3.44 l 0,24.41 225.1566,0 c 17.418,0 34.09,-1.72 50.015,-5.16 15.926,-3.44 31.11,-9.51 45.547,-18.22 13.52,-8.02 24.637,-18.9 33.344,-32.65 8.707,-13.75 13.062,-30.48 13.062,-50.19 0,-17.19 -3.093,-32.49 -9.281,-45.89 -6.187,-13.41 -14.894,-24.92 -26.125,-34.55 -10.543,-9.16 -22.629,-16.9 -36.265,-23.2 -13.637,-6.3 -28.36,-11.17 -44.172,-14.61 l 0,-3.09 c 13.98,-1.61 29.621,-5.1 46.922,-10.49 17.3,-5.38 32.714,-12.89 46.234,-22.51 l 0,0 z m -82.844,73.56 c 8.481,9.85 14.379,20.62 17.703,32.31 3.325,11.69 4.985,25.56 4.985,41.59 0,26.82 -7.332,47.84 -22,63.08 -14.668,15.24 -37.813,22.86 -69.438,22.86 -7.332,0 -16.558,-0.17 -27.672,-0.51 -11.113,-0.35 -20.453,-0.63 -28.015,-0.86 l 0,-187.35 43.656,0 c 18.793,0 34.891,2.41 48.297,7.22 13.406,4.81 24.234,12.03 32.484,21.66 l 0,0 z m 47.438,-155.72 c 0,28.87 -9.684,52.59 -29.047,71.16 -19.363,18.56 -47.035,27.84 -83.016,27.84 -14.668,0 -27.043,-0.17 -37.125,-0.52 -10.082,-0.34 -17.644,-0.63 -22.687,-0.86 l 0,-171.871 c 0,-14.437 5.843,-25.32 17.531,-32.656 11.687,-7.332 27.957,-11 48.812,-11 34.145,0 60.27,9.969 78.375,29.906 18.106,19.938 27.157,49.274 27.157,88.001 l 0,0"
         inkscape:connector-curvature="0"
         id="path48"
         style="fill:#000000;fill-opacity:1;fill-rule:nonzero;stroke:none" /><path
         d="m 806.555,1030.63 c 0,-23.83 -3.782,-47.263 -11.344,-70.294 -7.563,-23.031 -18.332,-42.566 -32.313,-58.609 -15.812,-18.332 -34.144,-31.969 -55,-40.907 -20.855,-8.937 -44.23,-13.406 -70.125,-13.406 -21.543,0 -42.05,4.07 -61.531,12.203 -19.48,8.137 -36.781,19.996 -51.906,35.578 -14.895,15.356 -26.754,34.09 -35.578,56.203 -8.824,22.118 -13.235,46.922 -13.235,74.422 0,52.94 15.411,96.25 46.235,129.94 30.824,33.69 71.215,50.53 121.172,50.53 47.437,0 86.566,-15.99 117.39,-47.95 30.825,-31.97 46.235,-74.54 46.235,-127.71 l 0,0 z m -71.157,-0.68 c 0,17.18 -1.718,35.35 -5.156,54.48 -3.437,19.14 -8.594,35.35 -15.469,48.64 -7.332,14.21 -16.957,25.61 -28.875,34.2 -11.918,8.6 -26.468,12.89 -43.656,12.89 -17.644,0 -32.715,-4.35 -45.203,-13.06 -12.488,-8.71 -22.629,-20.62 -30.422,-35.75 -7.332,-13.97 -12.488,-29.9 -15.469,-47.78 -2.98,-17.87 -4.468,-35.18 -4.468,-51.91 0,-22 1.777,-42.332 5.328,-61.012 3.551,-18.675 9.222,-35.347 17.015,-50.015 7.793,-14.664 17.59,-26.18 29.391,-34.547 11.801,-8.363 26.41,-12.547 43.828,-12.547 28.645,0 51.332,13.867 68.063,41.594 16.73,27.73 25.093,66 25.093,114.817 l 0,0"
         inkscape:connector-curvature="0"
         id="path50"
         style="fill:#000000;fill-opacity:1;fill-rule:nonzero;stroke:none" /><path
         d="m 1219.05,863.914 -110.34,-7.562 -5.16,4.812 0,42.969 -2.06,0 c -5.5,-5.727 -11.69,-11.86 -18.56,-18.391 -6.88,-6.531 -14.78,-12.429 -23.72,-17.703 -10.31,-6.187 -20.28,-10.883 -29.91,-14.094 -9.62,-3.207 -23.26,-4.812 -40.902,-4.812 -30.019,0 -52.878,9.797 -68.578,29.39 -15.699,19.594 -23.547,48.071 -23.547,85.422 l 0,162.255 c 0,8.25 -1.546,15.18 -4.64,20.79 -3.094,5.62 -7.621,10.49 -13.578,14.61 -4.125,2.75 -9.282,4.76 -15.469,6.02 -6.188,1.26 -12.719,2.12 -19.594,2.58 l 0,22.34 113.094,8.25 5.156,-4.81 0,-235.472 c 0,-24.52 5.5,-42.969 16.5,-55.344 11,-12.375 24.178,-18.562 39.528,-18.562 12.61,0 23.84,1.949 33.69,5.843 9.86,3.899 18.11,8.481 24.75,13.75 6.19,4.813 11.63,9.914 16.33,15.297 4.7,5.387 8.31,10.371 10.83,14.953 l 0,192.155 c 0,7.56 -1.61,14.27 -4.82,20.11 -3.2,5.84 -7.67,10.83 -13.4,14.95 -4.13,2.75 -10.26,4.42 -18.39,4.99 -8.14,0.57 -17.25,1.09 -27.33,1.55 l 0,22.34 123.06,8.25 5.16,-4.81 0,-269.16 c 0,-7.789 1.6,-14.437 4.81,-19.937 3.21,-5.5 7.68,-10.195 13.41,-14.094 4.12,-2.519 9.05,-4.18 14.78,-4.984 5.73,-0.801 12.03,-1.317 18.9,-1.547 l 0,-22.344"
         inkscape:connector-curvature="0"
         id="path52"
         style="fill:#000000;fill-opacity:1;fill-rule:nonzero;stroke:none" /><path
         d="m 1520.87,1153.01 c 0,-11.69 -2.87,-22.06 -8.6,-31.11 -5.73,-9.05 -14.55,-13.58 -26.47,-13.58 -12.83,0 -22.62,3.32 -29.39,9.97 -6.76,6.65 -10.14,13.98 -10.14,22 0,5.04 0.41,9.62 1.21,13.75 0.8,4.12 1.54,8.25 2.23,12.37 -10.77,0 -23.37,-4.35 -37.81,-13.06 -14.44,-8.71 -26.7,-21.08 -36.78,-37.12 l 0,-197.316 c 0,-8.019 1.54,-14.551 4.64,-19.594 3.09,-5.039 7.96,-8.82 14.61,-11.343 5.73,-2.289 13.12,-4.008 22.17,-5.157 9.05,-1.144 16.9,-1.945 23.55,-2.406 l 0,-22.687 -178.75,0 0,22.687 c 5.27,0.461 10.71,0.918 16.32,1.375 5.62,0.461 10.49,1.375 14.61,2.75 6.42,2.063 11.18,5.672 14.27,10.828 3.09,5.156 4.64,11.86 4.64,20.11 l 0,209.343 c 0,7.11 -1.66,14.09 -4.98,20.97 -3.33,6.87 -7.97,12.37 -13.93,16.5 -4.35,2.75 -9.51,4.76 -15.47,6.01 -5.95,1.27 -12.37,2.13 -19.25,2.58 l 0,22.35 112.75,7.56 4.82,-4.81 0,-47.78 1.72,0 c 14.2,18.56 30.02,32.65 47.43,42.28 17.42,9.62 33.35,14.43 47.78,14.43 14.44,0 26.19,-4.69 35.24,-14.09 9.05,-9.39 13.58,-22 13.58,-37.81 l 0,0"
         inkscape:connector-curvature="0"
         id="path54"
         style="fill:#000000;fill-opacity:1;fill-rule:nonzero;stroke:none" /><path
         d="m 1924.43,857.727 -166.03,0 0,22.687 c 5.27,0.461 11.06,0.918 17.36,1.375 6.3,0.461 11.51,1.375 15.64,2.75 6.42,2.063 11.17,5.672 14.26,10.828 3.1,5.156 4.64,11.86 4.64,20.11 l 0,174.283 c 0,24.06 -5.67,42.62 -17.01,55.69 -11.34,13.06 -25.15,19.59 -41.42,19.59 -12.15,0 -23.26,-1.89 -33.35,-5.67 -10.08,-3.78 -19.02,-8.42 -26.81,-13.92 -7.56,-5.27 -13.58,-10.95 -18.05,-17.02 -4.46,-6.07 -7.73,-10.94 -9.79,-14.61 l 0,-194.906 c 0,-7.789 1.6,-14.207 4.81,-19.25 3.21,-5.039 8.02,-8.937 14.44,-11.687 4.81,-2.289 10.02,-4.008 15.64,-5.157 5.61,-1.144 11.4,-1.945 17.36,-2.406 l 0,-22.687 -166.03,0 0,22.687 c 5.27,0.461 10.71,0.918 16.32,1.375 5.62,0.461 10.49,1.375 14.61,2.75 6.42,2.063 11.18,5.672 14.27,10.828 3.09,5.156 4.64,11.86 4.64,20.11 l 0,209.343 c 0,7.79 -1.66,14.95 -4.98,21.48 -3.33,6.54 -7.97,11.86 -13.93,15.99 -4.35,2.75 -9.51,4.76 -15.47,6.01 -5.95,1.27 -12.37,2.13 -19.25,2.58 l 0,22.35 112.75,7.56 4.82,-4.81 0,-47.78 1.72,0 c 5.5,5.5 12.37,12.09 20.62,19.76 8.25,7.68 16.04,13.92 23.38,18.74 8.48,5.5 18.56,10.08 30.25,13.75 11.68,3.66 24.86,5.5 39.53,5.5 32.54,0 56.66,-10.15 72.36,-30.43 15.7,-20.28 23.54,-47.26 23.54,-80.95 l 0,-176.343 c 0,-8.02 1.38,-14.493 4.13,-19.422 2.75,-4.926 7.45,-8.766 14.09,-11.516 5.5,-2.289 10.26,-3.894 14.27,-4.812 4.01,-0.914 9.56,-1.602 16.67,-2.063 l 0,-22.687"
         inkscape:connector-curvature="0"
         id="path56"
         style="fill:#000000;fill-opacity:1;fill-rule:nonzero;stroke:none" /><path
         d="m 2267.84,937.477 c -14.21,-27.039 -33.23,-48.582 -57.07,-64.625 -23.83,-16.039 -51.22,-24.063 -82.15,-24.063 -27.27,0 -51.16,4.813 -71.67,14.438 -20.52,9.625 -37.41,22.687 -50.71,39.187 -13.29,16.5 -23.2,35.75 -29.73,57.75 -6.53,22 -9.8,45.266 -9.8,69.786 0,22 3.5,43.6 10.49,64.79 6.98,21.2 17.24,40.28 30.76,57.24 13.06,16.27 29.28,29.39 48.64,39.36 19.36,9.96 41.08,14.95 65.14,14.95 24.75,0 45.95,-3.9 63.6,-11.69 17.64,-7.79 31.96,-18.44 42.96,-31.97 10.55,-12.83 18.4,-27.95 23.55,-45.37 5.16,-17.42 7.74,-36.32 7.74,-56.72 l 0,-22.69 -224.47,0 c 0,-22.22 2.12,-42.393 6.36,-60.498 4.23,-18.102 10.94,-34.032 20.11,-47.782 8.93,-13.289 20.62,-23.773 35.06,-31.453 14.44,-7.676 31.62,-11.515 51.56,-11.515 20.4,0 37.99,4.757 52.77,14.265 14.78,9.512 29.04,26.641 42.79,51.391 l 24.07,-14.781 z m -75.97,129.253 c 0,12.83 -1.09,26.58 -3.27,41.25 -2.17,14.66 -5.67,26.93 -10.48,36.78 -5.27,10.54 -12.49,19.13 -21.66,25.78 -9.17,6.65 -20.97,9.97 -35.41,9.97 -24.06,0 -44.05,-10.03 -59.98,-30.08 -15.93,-20.05 -24.58,-47.95 -25.95,-83.7 l 156.75,0"
         inkscape:connector-curvature="0"
         id="path58"
         style="fill:#000000;fill-opacity:1;fill-rule:nonzero;stroke:none" /><path
         d="m 2888.3,857.727 -165.34,0 0,22.687 c 5.27,0.461 10.6,0.918 15.99,1.375 5.38,0.461 10.14,1.375 14.26,2.75 6.42,2.063 11.17,5.672 14.27,10.828 3.09,5.156 4.64,11.86 4.64,20.11 l 0,174.973 c 0,23.83 -5.44,42.22 -16.33,55.17 -10.89,12.95 -24.47,19.42 -40.74,19.42 -11.23,0 -21.76,-1.72 -31.62,-5.16 -9.86,-3.43 -18.91,-8.25 -27.16,-14.43 -6.64,-5.04 -12.2,-10.49 -16.67,-16.33 -4.47,-5.85 -7.85,-10.71 -10.14,-14.61 l 0,-195.596 c 0,-8.019 1.38,-14.609 4.13,-19.766 2.75,-5.156 7.45,-9.109 14.09,-11.859 5.27,-2.062 10.03,-3.609 14.27,-4.641 4.23,-1.031 9.79,-1.773 16.67,-2.234 l 0,-22.687 -161.91,0 0,22.687 c 5.27,0.461 10.37,0.918 15.3,1.375 4.92,0.461 9.45,1.375 13.58,2.75 6.41,2.063 11.17,5.672 14.26,10.828 3.1,5.156 4.64,11.86 4.64,20.11 l 0,174.973 c 0,23.83 -5.44,42.22 -16.33,55.17 -10.88,12.95 -24.46,19.42 -40.73,19.42 -11.23,0 -21.77,-1.77 -31.63,-5.33 -9.85,-3.55 -18.9,-8.42 -27.15,-14.61 -6.65,-5.04 -12.26,-10.71 -16.85,-17.01 -4.58,-6.3 -8.01,-11.06 -10.31,-14.27 l 0,-194.218 c 0,-7.789 1.61,-14.321 4.81,-19.594 3.21,-5.27 8.02,-9.281 14.44,-12.031 4.81,-2.289 9.74,-4.008 14.78,-5.157 5.05,-1.144 10.66,-1.945 16.85,-2.406 l 0,-22.687 -164.66,0 0,22.687 c 5.27,0.461 10.72,0.918 16.33,1.375 5.61,0.461 10.48,1.375 14.61,2.75 6.42,2.063 11.17,5.672 14.26,10.828 3.1,5.156 4.64,11.86 4.64,20.11 l 0,210.723 c 0,7.33 -1.66,13.92 -4.98,19.76 -3.32,5.84 -7.96,10.83 -13.92,14.95 -4.36,2.75 -9.74,4.99 -16.16,6.71 -6.42,1.72 -13.06,2.81 -19.94,3.26 l 0,22.35 113.44,7.56 4.81,-4.81 0,-48.47 2.41,0 c 5.73,5.73 12.72,12.49 20.97,20.28 8.25,7.79 15.93,14.09 23.03,18.91 8.02,5.5 18.05,10.08 30.08,13.75 12.03,3.66 25.03,5.5 39.01,5.5 22,0 40.91,-5.9 56.72,-17.71 15.82,-11.8 27.16,-26.06 34.03,-42.79 8.25,8.02 15.53,15.07 21.83,21.14 6.3,6.07 14.61,12.54 24.92,19.42 8.71,5.96 18.97,10.77 30.77,14.44 11.8,3.66 24.92,5.5 39.36,5.5 28.64,0 51.33,-9.4 68.06,-28.19 16.73,-18.79 25.1,-47.67 25.1,-86.63 l 0,-172.216 c 0,-8.019 1.37,-14.609 4.12,-19.766 2.75,-5.156 7.45,-9.109 14.09,-11.859 5.27,-2.062 10.49,-3.609 15.65,-4.641 5.15,-1.031 10.94,-1.773 17.35,-2.234 l 0,-22.687"
         inkscape:connector-curvature="0"
         id="path60"
         style="fill:#000000;fill-opacity:1;fill-rule:nonzero;stroke:none" /><path
         d="m 3258.18,1030.63 c 0,-23.83 -3.78,-47.263 -11.34,-70.294 -7.57,-23.031 -18.34,-42.566 -32.32,-58.609 -15.81,-18.332 -34.14,-31.969 -55,-40.907 -20.85,-8.937 -44.23,-13.406 -70.12,-13.406 -21.54,0 -42.05,4.07 -61.53,12.203 -19.48,8.137 -36.78,19.996 -51.91,35.578 -14.89,15.356 -26.75,34.09 -35.58,56.203 -8.82,22.118 -13.23,46.922 -13.23,74.422 0,52.94 15.41,96.25 46.23,129.94 30.83,33.69 71.22,50.53 121.17,50.53 47.44,0 86.57,-15.99 117.4,-47.95 30.82,-31.97 46.23,-74.54 46.23,-127.71 l 0,0 z m -71.16,-0.68 c 0,17.18 -1.72,35.35 -5.15,54.48 -3.44,19.14 -8.6,35.35 -15.47,48.64 -7.33,14.21 -16.96,25.61 -28.88,34.2 -11.91,8.6 -26.47,12.89 -43.65,12.89 -17.65,0 -32.72,-4.35 -45.21,-13.06 -12.48,-8.71 -22.62,-20.62 -30.42,-35.75 -7.33,-13.97 -12.49,-29.9 -15.47,-47.78 -2.98,-17.87 -4.47,-35.18 -4.47,-51.91 0,-22 1.78,-42.332 5.33,-61.012 3.55,-18.675 9.23,-35.347 17.02,-50.015 7.79,-14.664 17.59,-26.18 29.39,-34.547 11.8,-8.363 26.41,-12.547 43.83,-12.547 28.64,0 51.33,13.867 68.06,41.594 16.73,27.73 25.09,66 25.09,114.817 l 0,0"
         inkscape:connector-curvature="0"
         id="path62"
         style="fill:#000000;fill-opacity:1;fill-rule:nonzero;stroke:none" /><path
         d="m 3670.68,863.914 -110.34,-7.562 -5.16,4.812 0,42.969 -2.06,0 c -5.5,-5.727 -11.69,-11.86 -18.57,-18.391 -6.87,-6.531 -14.78,-12.429 -23.71,-17.703 -10.32,-6.187 -20.29,-10.883 -29.91,-14.094 -9.63,-3.207 -23.26,-4.812 -40.91,-4.812 -30.02,0 -52.88,9.797 -68.57,29.39 -15.7,19.594 -23.55,48.071 -23.55,85.422 l 0,162.255 c 0,8.25 -1.55,15.18 -4.64,20.79 -3.1,5.62 -7.62,10.49 -13.58,14.61 -4.13,2.75 -9.28,4.76 -15.47,6.02 -6.19,1.26 -12.72,2.12 -19.59,2.58 l 0,22.34 113.09,8.25 5.16,-4.81 0,-235.472 c 0,-24.52 5.5,-42.969 16.5,-55.344 11,-12.375 24.17,-18.562 39.53,-18.562 12.6,0 23.83,1.949 33.69,5.843 9.85,3.899 18.1,8.481 24.75,13.75 6.18,4.813 11.62,9.914 16.32,15.297 4.7,5.387 8.31,10.371 10.83,14.953 l 0,192.155 c 0,7.56 -1.6,14.27 -4.81,20.11 -3.21,5.84 -7.68,10.83 -13.41,14.95 -4.12,2.75 -10.25,4.42 -18.39,4.99 -8.13,0.57 -17.24,1.09 -27.33,1.55 l 0,22.34 123.07,8.25 5.15,-4.81 0,-269.16 c 0,-7.789 1.61,-14.437 4.82,-19.937 3.2,-5.5 7.67,-10.195 13.4,-14.094 4.13,-2.519 9.05,-4.18 14.78,-4.984 5.73,-0.801 12.03,-1.317 18.91,-1.547 l 0,-22.344"
         inkscape:connector-curvature="0"
         id="path64"
         style="fill:#000000;fill-opacity:1;fill-rule:nonzero;stroke:none" /><path
         d="m 3922.3,872.508 c -14.89,-6.188 -28.98,-11.399 -42.28,-15.641 -13.29,-4.238 -29.56,-6.359 -48.81,-6.359 -28.42,0 -48.41,7.164 -59.98,21.484 -11.58,14.324 -17.36,34.547 -17.36,60.672 l 0,229.626 -61.19,0 0,33 62.56,0 0,105.53 62.56,0 0,-105.53 97.29,0 0,-33 -96.6,0 0,-189.407 c 0,-14.207 0.52,-26.067 1.55,-35.578 1.03,-9.508 3.5,-17.817 7.39,-24.922 3.67,-6.645 9.17,-11.688 16.5,-15.125 7.33,-3.438 17.19,-5.156 29.56,-5.156 5.73,0 14.15,0.515 25.27,1.546 11.11,1.032 18.96,2.352 23.54,3.954 l 0,-25.094"
         inkscape:connector-curvature="0"
         id="path66"
         style="fill:#000000;fill-opacity:1;fill-rule:nonzero;stroke:none" /><path
         d="m 4324.49,857.727 -166.37,0 0,22.687 c 5.27,0.461 11.11,0.918 17.53,1.375 6.42,0.461 11.69,1.375 15.81,2.75 6.42,2.063 11.17,5.672 14.27,10.828 3.09,5.156 4.64,11.86 4.64,20.11 l 0,174.283 c 0,24.06 -5.67,42.62 -17.02,55.69 -11.34,13.06 -25.15,19.59 -41.42,19.59 -11.92,0 -22.97,-1.89 -33.17,-5.67 -10.2,-3.78 -19.31,-8.42 -27.33,-13.92 -7.79,-5.73 -13.75,-11.46 -17.88,-17.19 -4.12,-5.73 -7.33,-10.54 -9.62,-14.44 l 0,-194.906 c 0,-7.789 1.55,-14.207 4.64,-19.25 3.09,-5.039 7.85,-8.937 14.27,-11.687 5.04,-2.289 10.25,-4.008 15.64,-5.157 5.38,-1.144 11.28,-1.945 17.7,-2.406 l 0,-22.687 -166.38,0 0,22.687 c 5.27,0.461 10.77,0.977 16.5,1.547 5.74,0.574 10.55,1.434 14.44,2.578 6.42,2.063 11.23,5.672 14.44,10.828 3.21,5.156 4.81,11.86 4.81,20.11 l 0,394.623 c 0,7.79 -1.78,15.59 -5.33,23.38 -3.55,7.79 -8.19,13.63 -13.92,17.53 -4.12,2.98 -11.4,5.1 -21.83,6.36 -10.42,1.26 -18.84,2.12 -25.26,2.58 l 0,22 125.47,7.9 4.81,-5.15 0,-236.5 1.37,0 c 7.57,7.56 14.44,14.26 20.63,20.1 6.19,5.85 14.32,11.98 24.41,18.4 8.7,5.5 18.96,10.08 30.76,13.75 11.8,3.66 25.04,5.5 39.7,5.5 30.25,0 53.52,-9.57 69.79,-28.71 16.27,-19.13 24.4,-46.69 24.4,-82.67 l 0,-176.343 c 0,-8.02 1.44,-14.493 4.3,-19.422 2.86,-4.926 7.62,-8.766 14.26,-11.516 5.27,-2.062 10.03,-3.609 14.27,-4.641 4.24,-1.031 9.8,-1.773 16.67,-2.234 l 0,-22.687"
         inkscape:connector-curvature="0"
         id="path68"
         style="fill:#000000;fill-opacity:1;fill-rule:nonzero;stroke:none" /><path
         d="m 517.805,617.102 c -6.418,-0.227 -15.813,-1.602 -28.188,-4.125 -12.375,-2.52 -22.457,-6.301 -30.25,-11.344 -7.793,-5.27 -13.176,-16.156 -16.156,-32.656 -2.981,-16.5 -4.469,-36.664 -4.469,-60.5 l 0,-212.094 c 0,-27.039 -5.613,-50.531 -16.844,-70.469 -11.23,-19.937 -26.011,-36.32 -44.343,-49.156 -18.106,-12.375 -37.184,-21.254 -57.235,-26.641 -20.05,-5.383 -39.246,-8.078 -57.578,-8.078 -29.332,0 -55.457,3.84 -78.375,11.516 -22.918,7.679 -42.168,18.047 -57.75,31.109 -15.355,13.063 -26.9256,28.016 -34.7186,44.859 -7.7929,16.844 -11.6875,34.434 -11.6875,52.766 l 0,288.406 c 0,8.024 -1.3164,14.727 -3.9531,20.11 -2.6367,5.386 -7.9648,10.371 -15.9844,14.953 -5.7304,3.211 -13.0625,5.789 -22,7.734 -8.9375,1.949 -16.2695,3.153 -22,3.61 l 0,24.406 203.1566,0 0,-24.406 c -6.418,-0.227 -14.496,-1.258 -24.235,-3.094 -9.738,-1.832 -16.902,-3.551 -21.484,-5.156 -7.793,-2.75 -13.004,-7.332 -15.641,-13.75 -2.636,-6.414 -3.953,-13.407 -3.953,-20.969 l 0,-269.5 c 0,-13.063 1.434,-26.754 4.297,-41.078 2.863,-14.321 8.535,-27.672 17.016,-40.047 8.937,-12.602 21.082,-22.914 36.437,-30.938 15.356,-8.019 36.438,-12.031 63.25,-12.031 25.207,0 46.348,4.012 63.422,12.031 17.074,8.024 30.535,18.563 40.391,31.625 9.394,12.375 16.043,25.325 19.937,38.844 3.895,13.524 5.844,27.156 5.844,40.906 l 0,200.063 c 0,25.437 -1.832,46.234 -5.5,62.39 -3.668,16.157 -9.051,26.758 -16.156,31.797 -8.02,5.731 -18.965,10.2 -32.828,13.407 -13.864,3.211 -24.465,5.043 -31.797,5.5 l 0,24.406 199.375,0 0,-24.406"
         inkscape:connector-curvature="0"
         id="path70"
         style="fill:#000000;fill-opacity:1;fill-rule:nonzero;stroke:none" /><path
         d="m 922.055,153.727 -166.032,0 0,22.687 c 5.27,0.461 11.059,0.918 17.36,1.375 6.301,0.461 11.515,1.375 15.64,2.75 6.418,2.063 11.172,5.672 14.266,10.828 3.094,5.156 4.641,11.86 4.641,20.11 l 0,174.281 c 0,24.062 -5.672,42.625 -17.016,55.687 -11.344,13.063 -25.152,19.594 -41.422,19.594 -12.144,0 -23.262,-1.891 -33.344,-5.672 -10.082,-3.781 -19.019,-8.422 -26.812,-13.922 -7.563,-5.269 -13.578,-10.941 -18.047,-17.015 -4.469,-6.071 -7.734,-10.942 -9.797,-14.61 l 0,-194.906 c 0,-7.789 1.606,-14.207 4.813,-19.25 3.207,-5.039 8.019,-8.937 14.437,-11.687 4.813,-2.289 10.028,-4.008 15.641,-5.157 5.613,-1.144 11.402,-1.945 17.359,-2.406 l 0,-22.687 -166.031,0 0,22.687 c 5.269,0.461 10.715,0.918 16.328,1.375 5.613,0.461 10.484,1.375 14.609,2.75 6.418,2.063 11.172,5.672 14.266,10.828 3.094,5.156 4.641,11.86 4.641,20.11 l 0,209.343 c 0,7.793 -1.66,14.953 -4.985,21.485 -3.324,6.531 -7.965,11.859 -13.922,15.984 -4.355,2.75 -9.511,4.758 -15.468,6.016 -5.957,1.261 -12.375,2.121 -19.25,2.578 l 0,22.344 112.75,7.562 4.812,-4.812 0,-47.782 1.719,0 c 5.5,5.5 12.375,12.09 20.625,19.766 8.25,7.68 16.043,13.922 23.375,18.734 8.48,5.5 18.562,10.086 30.25,13.75 11.687,3.668 24.863,5.5 39.531,5.5 32.543,0 56.66,-10.14 72.36,-30.422 15.699,-20.281 23.546,-47.265 23.546,-80.953 l 0,-176.343 c 0,-8.02 1.375,-14.493 4.125,-19.422 2.75,-4.926 7.45,-8.766 14.094,-11.516 5.5,-2.289 10.254,-3.894 14.266,-4.812 4.012,-0.914 9.566,-1.602 16.672,-2.063 l 0,-22.687"
         inkscape:connector-curvature="0"
         id="path72"
         style="fill:#000000;fill-opacity:1;fill-rule:nonzero;stroke:none" /><path
         d="m 1128.99,153.727 -163.967,0 0,22.687 c 5.27,0.461 10.715,0.918 16.329,1.375 5.613,0.461 10.484,1.375 14.609,2.75 6.419,2.063 11.169,5.672 14.269,10.828 3.09,5.156 4.64,11.86 4.64,20.11 l 0,209.343 c 0,7.336 -1.66,14.039 -4.99,20.11 -3.32,6.074 -7.96,11.172 -13.919,15.297 -4.356,2.75 -10.656,5.101 -18.906,7.046 -8.25,1.95 -15.813,3.153 -22.688,3.61 l 0,22.344 119.623,7.562 4.81,-4.812 0,-276.375 c 0,-8.02 1.55,-14.664 4.65,-19.938 3.09,-5.269 7.96,-9.164 14.6,-11.687 5.05,-2.063 9.97,-3.723 14.79,-4.985 4.81,-1.258 10.2,-2.117 16.15,-2.578 l 0,-22.687 z m -43.31,476.781 c 0,-13.063 -4.3,-24.461 -12.89,-34.203 -8.59,-9.739 -19.19,-14.61 -31.8,-14.61 -11.69,0 -21.83,4.641 -30.42,13.922 -8.59,9.281 -12.89,19.883 -12.89,31.797 0,12.606 4.3,23.606 12.89,33 8.59,9.399 18.73,14.094 30.42,14.094 13.06,0 23.78,-4.41 32.14,-13.235 8.37,-8.82 12.55,-19.078 12.55,-30.765 l 0,0"
         inkscape:connector-curvature="0"
         id="path74"
         style="fill:#000000;fill-opacity:1;fill-rule:nonzero;stroke:none" /><path
         d="m 1505.4,471.695 c -10.31,-1.832 -20.11,-5.554 -29.39,-11.172 -9.28,-5.613 -17.25,-15.523 -23.89,-29.734 -13.52,-30.707 -27.5,-62.734 -41.94,-96.078 -14.44,-33.344 -29.45,-68.348 -45.03,-105.016 -4.58,-10.539 -9.45,-23.031 -14.61,-37.468 -5.16,-14.438 -9.91,-28.301 -14.27,-41.594 l -26.81,0 c -21.77,53.855 -41.82,102.953 -60.16,147.297 -18.33,44.343 -37.35,89.777 -57.06,136.297 -4.58,10.543 -11.97,18.734 -22.17,24.578 -10.2,5.843 -20.45,9.57 -30.77,11.172 l 0,22.687 156.75,0 0,-24.062 c -6.87,-0.227 -15.46,-1.661 -25.78,-4.297 -10.31,-2.633 -15.47,-6.242 -15.47,-10.828 0,-0.688 0.58,-2.461 1.72,-5.329 1.15,-2.863 2.3,-6.128 3.44,-9.796 9.4,-23.375 22.69,-56.032 39.88,-97.969 17.18,-41.938 31.16,-75.738 41.93,-101.406 8.25,19.711 18.62,44.23 31.11,73.562 12.49,29.336 25.96,62.106 40.39,98.313 2.3,6.187 4.47,11.976 6.53,17.359 2.07,5.387 3.1,10.828 3.1,16.328 0,3.899 -1.89,7.391 -5.67,10.484 -3.78,3.094 -8.31,5.79 -13.58,8.079 -5.27,2.293 -10.43,4.011 -15.47,5.156 -5.04,1.148 -9.17,1.949 -12.38,2.406 l 0,22 129.6,0 0,-20.969"
         inkscape:connector-curvature="0"
         id="path76"
         style="fill:#000000;fill-opacity:1;fill-rule:nonzero;stroke:none" /><path
         d="m 1820.96,233.477 c -14.21,-27.039 -33.23,-48.582 -57.06,-64.625 -23.83,-16.039 -51.22,-24.063 -82.16,-24.063 -27.27,0 -51.16,4.813 -71.67,14.438 -20.51,9.625 -37.41,22.687 -50.7,39.187 -13.3,16.5 -23.21,35.75 -29.74,57.75 -6.53,22 -9.79,45.262 -9.79,69.781 0,22 3.49,43.602 10.48,64.797 6.99,21.199 17.25,40.278 30.77,57.235 13.06,16.273 29.27,29.39 48.64,39.359 19.36,9.969 41.07,14.953 65.14,14.953 24.75,0 45.95,-3.894 63.59,-11.687 17.65,-7.789 31.97,-18.446 42.97,-31.969 10.54,-12.832 18.39,-27.957 23.55,-45.375 5.15,-17.414 7.73,-36.32 7.73,-56.719 l 0,-22.687 -224.47,0 c 0,-22.227 2.12,-42.395 6.36,-60.5 4.24,-18.102 10.94,-34.032 20.11,-47.782 8.94,-13.289 20.63,-23.773 35.06,-31.453 14.44,-7.676 31.63,-11.515 51.57,-11.515 20.39,0 37.98,4.757 52.76,14.265 14.78,9.512 29.05,26.641 42.8,51.391 l 24.06,-14.781 z m -75.97,129.25 c 0,12.836 -1.09,26.586 -3.26,41.25 -2.18,14.668 -5.68,26.929 -10.49,36.781 -5.27,10.543 -12.49,19.137 -21.65,25.781 -9.17,6.649 -20.97,9.969 -35.41,9.969 -24.06,0 -44.06,-10.024 -59.98,-30.078 -15.93,-20.051 -24.58,-47.953 -25.96,-83.703 l 156.75,0"
         inkscape:connector-curvature="0"
         id="path78"
         style="fill:#000000;fill-opacity:1;fill-rule:nonzero;stroke:none" /><path
         d="m 2120.37,449.008 c 0,-11.688 -2.87,-22.055 -8.6,-31.11 -5.73,-9.05 -14.55,-13.578 -26.47,-13.578 -12.83,0 -22.62,3.325 -29.39,9.969 -6.76,6.649 -10.14,13.981 -10.14,22 0,5.043 0.41,9.625 1.21,13.75 0.8,4.125 1.54,8.25 2.23,12.375 -10.77,0 -23.37,-4.351 -37.81,-13.062 -14.44,-8.707 -26.7,-21.082 -36.78,-37.125 l 0,-197.313 c 0,-8.019 1.54,-14.551 4.64,-19.594 3.09,-5.039 7.96,-8.82 14.61,-11.343 5.73,-2.289 13.12,-4.008 22.17,-5.157 9.05,-1.144 16.9,-1.945 23.55,-2.406 l 0,-22.687 -178.75,0 0,22.687 c 5.27,0.461 10.71,0.918 16.32,1.375 5.62,0.461 10.49,1.375 14.61,2.75 6.42,2.063 11.18,5.672 14.27,10.828 3.09,5.156 4.64,11.86 4.64,20.11 l 0,209.343 c 0,7.106 -1.66,14.094 -4.98,20.969 -3.33,6.875 -7.97,12.375 -13.93,16.5 -4.35,2.75 -9.51,4.758 -15.47,6.016 -5.95,1.261 -12.37,2.121 -19.25,2.578 l 0,22.344 112.75,7.562 4.82,-4.812 0,-47.782 1.72,0 c 14.2,18.563 30.02,32.657 47.43,42.282 17.42,9.625 33.35,14.437 47.78,14.437 14.44,0 26.19,-4.695 35.24,-14.094 9.05,-9.394 13.58,-22 13.58,-37.812 l 0,0"
         inkscape:connector-curvature="0"
         id="path80"
         style="fill:#000000;fill-opacity:1;fill-rule:nonzero;stroke:none" /><path
         d="m 2373.37,319.758 c 9.39,-8.25 16.61,-17.758 21.65,-28.531 5.05,-10.77 7.57,-23.946 7.57,-39.532 0,-31.394 -11.75,-57.062 -35.24,-77 -23.49,-19.937 -53.91,-29.906 -91.26,-29.906 -19.71,0 -37.88,3.555 -54.49,10.656 -16.61,7.106 -28.47,13.637 -35.58,19.594 l -6.87,-22.344 -25.78,0 -3.44,117.907 23.72,0 c 1.83,-8.938 5.73,-19.364 11.69,-31.282 5.95,-11.914 13.17,-22.687 21.65,-32.312 8.94,-10.082 19.65,-18.563 32.14,-25.438 12.49,-6.875 26.53,-10.312 42.11,-10.312 22,0 38.96,4.984 50.88,14.953 11.92,9.969 17.87,24.234 17.87,42.797 0,9.625 -1.89,17.933 -5.67,24.922 -3.78,6.992 -9.34,13.121 -16.67,18.39 -7.56,5.274 -16.85,10.028 -27.85,14.266 -11,4.242 -23.26,8.422 -36.78,12.547 -10.77,3.211 -22.74,7.621 -35.92,13.234 -13.17,5.617 -24.46,12.203 -33.86,19.766 -10.08,8.023 -18.33,17.875 -24.75,29.562 -6.42,11.688 -9.62,25.438 -9.62,41.25 0,27.731 10.31,51.219 30.93,70.469 20.63,19.25 48.24,28.875 82.85,28.875 13.29,0 26.87,-1.719 40.73,-5.156 13.87,-3.438 25.16,-7.563 33.86,-12.375 l 7.91,17.875 24.75,0 5.15,-108.969 -23.71,0 c -4.82,24.293 -15.19,44.059 -31.11,59.297 -15.93,15.242 -35.35,22.859 -58.27,22.859 -18.79,0 -33.57,-4.695 -44.34,-14.093 -10.77,-9.395 -16.16,-20.739 -16.16,-34.032 0,-10.312 1.78,-18.906 5.33,-25.781 3.55,-6.875 8.88,-12.719 15.98,-17.531 6.88,-4.582 15.53,-8.879 25.96,-12.891 10.42,-4.008 23.31,-8.535 38.67,-13.578 15.12,-4.812 29.39,-10.426 42.8,-16.844 13.4,-6.414 24.46,-13.519 33.17,-21.312 l 0,0"
         inkscape:connector-curvature="0"
         id="path82"
         style="fill:#000000;fill-opacity:1;fill-rule:nonzero;stroke:none" /><path
         d="m 2618.12,153.727 -163.97,0 0,22.687 c 5.27,0.461 10.71,0.918 16.33,1.375 5.61,0.461 10.48,1.375 14.61,2.75 6.41,2.063 11.17,5.672 14.26,10.828 3.1,5.156 4.64,11.86 4.64,20.11 l 0,209.343 c 0,7.336 -1.66,14.039 -4.98,20.11 -3.33,6.074 -7.97,11.172 -13.92,15.297 -4.36,2.75 -10.66,5.101 -18.91,7.046 -8.25,1.95 -15.81,3.153 -22.69,3.61 l 0,22.344 119.63,7.562 4.81,-4.812 0,-276.375 c 0,-8.02 1.55,-14.664 4.64,-19.938 3.09,-5.269 7.97,-9.164 14.61,-11.687 5.04,-2.063 9.97,-3.723 14.78,-4.985 4.81,-1.258 10.2,-2.117 16.16,-2.578 l 0,-22.687 z m -43.32,476.781 c 0,-13.063 -4.29,-24.461 -12.89,-34.203 -8.59,-9.739 -19.19,-14.61 -31.79,-14.61 -11.69,0 -21.83,4.641 -30.42,13.922 -8.6,9.281 -12.9,19.883 -12.9,31.797 0,12.606 4.3,23.606 12.9,33 8.59,9.399 18.73,14.094 30.42,14.094 13.06,0 23.77,-4.41 32.14,-13.235 8.36,-8.82 12.54,-19.078 12.54,-30.765 l 0,0"
         inkscape:connector-curvature="0"
         id="path84"
         style="fill:#000000;fill-opacity:1;fill-rule:nonzero;stroke:none" /><path
         d="m 2869.05,168.508 c -14.89,-6.188 -28.98,-11.399 -42.28,-15.641 -13.29,-4.238 -29.56,-6.359 -48.81,-6.359 -28.42,0 -48.41,7.164 -59.98,21.484 -11.58,14.324 -17.36,34.547 -17.36,60.672 l 0,229.625 -61.19,0 0,33 62.56,0 0,105.531 62.56,0 0,-105.531 97.29,0 0,-33 -96.6,0 0,-189.406 c 0,-14.207 0.52,-26.067 1.55,-35.578 1.03,-9.508 3.5,-17.817 7.39,-24.922 3.67,-6.645 9.17,-11.688 16.5,-15.125 7.33,-3.438 17.19,-5.156 29.56,-5.156 5.73,0 14.15,0.515 25.27,1.546 11.11,1.032 18.96,2.352 23.54,3.954 l 0,-25.094"
         inkscape:connector-curvature="0"
         id="path86"
         style="fill:#000000;fill-opacity:1;fill-rule:nonzero;stroke:none" /><path
         d="m 2877.3,43.0391 c 0,11.4609 3.16,20.7968 9.46,28.0156 6.3,7.2187 14.15,10.8281 23.54,10.8281 7.34,0 13.64,-1.375 18.91,-4.125 5.27,-2.75 9.97,-6.3008 14.09,-10.6562 3.44,-3.4375 7.11,-8.1328 11,-14.0938 3.9,-5.957 6.99,-10.8828 9.29,-14.7812 11.45,6.1875 25.15,22.3437 41.07,48.4687 15.93,26.1247 27.45,49.0427 34.55,68.7497 -21.77,54.313 -41.48,102.899 -59.12,145.75 -17.65,42.856 -36.1,87.2 -55.35,133.032 -4.35,10.543 -11.69,18.734 -22,24.578 -10.31,5.843 -20.62,9.57 -30.94,11.172 l 0,22.687 154.69,0 0,-24.062 c -6.87,-0.227 -15.12,-1.661 -24.75,-4.297 -9.62,-2.633 -14.44,-5.672 -14.44,-9.11 0,-1.375 0.52,-3.664 1.55,-6.875 1.03,-3.207 2.24,-6.531 3.61,-9.968 8.71,-22.688 22,-55.399 39.88,-98.141 17.87,-42.738 31.73,-76.941 41.59,-102.609 10.31,24.523 21.03,49.902 32.14,76.14 11.11,26.242 23.55,57.235 37.3,92.985 1.6,4.355 3.89,10.371 6.87,18.046 2.98,7.68 4.47,14.266 4.47,19.766 0,5.961 -5.21,11.516 -15.64,16.672 -10.43,5.156 -20.34,8.309 -29.73,9.453 l 0,22 125.81,0 0,-21.312 c -6.88,-1.145 -15.93,-5.098 -27.16,-11.86 -11.23,-6.758 -19.59,-16.328 -25.09,-28.703 -27.27,-63.25 -51.51,-120.883 -72.7,-172.906 -21.2,-52.02 -37.3,-90.289 -48.3,-114.813 -14.44,-32.082 -27.33,-57.1169 -38.67,-75.1091 -11.35,-17.9882 -22.41,-32.1406 -33.18,-42.4531 -10.54,-9.625 -20.1,-16.09764 -28.7,-19.42186 -8.59,-3.32031 -17.47,-4.98438 -26.64,-4.98438 -17.87,0 -31.91,4.24219 -42.11,12.71874 -10.2,8.4805 -15.3,18.2188 -15.3,29.2188 l 0,0"
         inkscape:connector-curvature="0"
         id="path88"
         style="fill:#000000;fill-opacity:1;fill-rule:nonzero;stroke:none" /></g></g></svg>