<?xml version="1.0" encoding="UTF-8" standalone="no"?>
<!-- Created with Inkscape (http://www.inkscape.org/) -->

<svg
   xmlns:dc="http://purl.org/dc/elements/1.1/"
   xmlns:cc="http://creativecommons.org/ns#"
   xmlns:rdf="http://www.w3.org/1999/02/22-rdf-syntax-ns#"
   xmlns:svg="http://www.w3.org/2000/svg"
   xmlns="http://www.w3.org/2000/svg"
   xmlns:sodipodi="http://sodipodi.sourceforge.net/DTD/sodipodi-0.dtd"
   xmlns:inkscape="http://www.inkscape.org/namespaces/inkscape"
   width="1572.8571"
   height="932.08002"
   id="svg2"
   version="1.1"
   inkscape:version="0.48.4 r9939"
   sodipodi:docname="mlsproject3.svg">
  <defs
     id="defs4" />
  <sodipodi:namedview
     id="base"
     pagecolor="#ffffff"
     bordercolor="#666666"
     borderopacity="1.0"
     inkscape:pageopacity="0.0"
     inkscape:pageshadow="2"
     inkscape:zoom="0.24748737"
     inkscape:cx="2131.6117"
     inkscape:cy="363.05778"
     inkscape:document-units="px"
     inkscape:current-layer="layer1"
     showgrid="false"
     fit-margin-top="50"
     fit-margin-left="50"
     fit-margin-right="50"
     fit-margin-bottom="50"
     inkscape:window-width="1920"
     inkscape:window-height="1056"
     inkscape:window-x="1680"
     inkscape:window-y="24"
     inkscape:window-maximized="1"
     height="744.09px" />
  <metadata
     id="metadata7">
    <rdf:RDF>
      <cc:Work
         rdf:about="">
        <dc:format>image/svg+xml</dc:format>
        <dc:type
           rdf:resource="http://purl.org/dc/dcmitype/StillImage" />
        <dc:title></dc:title>
      </cc:Work>
    </rdf:RDF>
  </metadata>
  <g
     inkscape:label="Layer 1"
     inkscape:groupmode="layer"
     id="layer1"
     transform="translate(101.97825,333.32355)">
    <path
       style="fill:none;stroke:#000000;stroke-width:10;stroke-linecap:butt;stroke-linejoin:miter;stroke-miterlimit:4;stroke-opacity:1;stroke-dasharray:none"
       d="M -113.40683,324.47071 1471.327,172.59901"
       id="path3983"
       inkscape:connector-curvature="0"
       sodipodi:nodetypes="cc" />
    <path
       style="fill:none;stroke:#ff0000;stroke-width:10;stroke-linecap:butt;stroke-linejoin:miter;stroke-miterlimit:4;stroke-opacity:1;stroke-dasharray:none"
       d="m 638.33032,203.122 5.166,52.28932"
       id="path4004"
       inkscape:connector-curvature="0"
       sodipodi:nodetypes="cc" />
    <path
       sodipodi:type="arc"
       style="fill:#000000;fill-opacity:0.61643832;stroke:#000000;stroke-width:5;stroke-miterlimit:4;stroke-opacity:1;stroke-dasharray:none"
       id="path2985"
       sodipodi:cx="285.71429"
       sodipodi:cy="329.50504"
       sodipodi:rx="25.714285"
       sodipodi:ry="25.714285"
       d="m 311.42858,329.50504 c 0,14.2016 -11.51268,25.71428 -25.71429,25.71428 -14.2016,0 -25.71428,-11.51268 -25.71428,-25.71428 0,-14.20161 11.51268,-25.71429 25.71428,-25.71429 14.20161,0 25.71429,11.51268 25.71429,25.71429 z"
       transform="translate(162.85722,-125.71429)" />
    <path
       transform="translate(-46.085485,-80.669486)"
       sodipodi:type="arc"
       style="fill:none;stroke:#000000;stroke-width:5;stroke-miterlimit:4;stroke-opacity:1;stroke-dasharray:none"
       id="path2985-6"
       sodipodi:cx="285.71429"
       sodipodi:cy="329.50504"
       sodipodi:rx="25.714285"
       sodipodi:ry="25.714285"
       d="m 311.42858,329.50504 c 0,14.2016 -11.51268,25.71428 -25.71429,25.71428 -14.2016,0 -25.71428,-11.51268 -25.71428,-25.71428 0,-14.20161 11.51268,-25.71429 25.71428,-25.71429 14.20161,0 25.71429,11.51268 25.71429,25.71429 z" />
    <path
       transform="translate(-149.12108,-32.182186)"
       sodipodi:type="arc"
       style="fill:none;stroke:#000000;stroke-width:5;stroke-miterlimit:4;stroke-opacity:1;stroke-dasharray:none"
       id="path2985-3"
       sodipodi:cx="285.71429"
       sodipodi:cy="329.50504"
       sodipodi:rx="25.714285"
       sodipodi:ry="25.714285"
       d="m 311.42858,329.50504 c 0,14.2016 -11.51268,25.71428 -25.71429,25.71428 -14.2016,0 -25.71428,-11.51268 -25.71428,-25.71428 0,-14.20161 11.51268,-25.71429 25.71428,-25.71429 14.20161,0 25.71429,11.51268 25.71429,25.71429 z" />
    <path
       transform="translate(122.60992,11.254414)"
       sodipodi:type="arc"
       style="fill:#000000;fill-opacity:0.37899547;stroke:#000000;stroke-width:5;stroke-miterlimit:4;stroke-opacity:1;stroke-dasharray:none"
       id="path2985-1"
       sodipodi:cx="285.71429"
       sodipodi:cy="329.50504"
       sodipodi:rx="25.714285"
       sodipodi:ry="25.714285"
       d="m 311.42858,329.50504 c 0,14.2016 -11.51268,25.71428 -25.71429,25.71428 -14.2016,0 -25.71428,-11.51268 -25.71428,-25.71428 0,-14.20161 11.51268,-25.71429 25.71428,-25.71429 14.20161,0 25.71429,11.51268 25.71429,25.71429 z" />
    <path
       transform="translate(478.18362,-206.93859)"
       sodipodi:type="arc"
       style="fill:#000000;fill-opacity:0.61187212;stroke:#000000;stroke-width:5;stroke-miterlimit:4;stroke-opacity:1;stroke-dasharray:none"
       id="path2985-17"
       sodipodi:cx="285.71429"
       sodipodi:cy="329.50504"
       sodipodi:rx="25.714285"
       sodipodi:ry="25.714285"
       d="m 311.42858,329.50504 c 0,14.2016 -11.51268,25.71428 -25.71429,25.71428 -14.2016,0 -25.71428,-11.51268 -25.71428,-25.71428 0,-14.20161 11.51268,-25.71429 25.71428,-25.71429 14.20161,0 25.71429,11.51268 25.71429,25.71429 z" />
    <path
       transform="translate(697.38672,-118.04519)"
       sodipodi:type="arc"
       style="fill:#dcdcdc;fill-opacity:1;stroke:#000000;stroke-width:5;stroke-miterlimit:4;stroke-opacity:1;stroke-dasharray:none"
       id="path2985-8"
       sodipodi:cx="285.71429"
       sodipodi:cy="329.50504"
       sodipodi:rx="25.714285"
       sodipodi:ry="25.714285"
       d="m 311.42858,329.50504 c 0,14.2016 -11.51268,25.71428 -25.71429,25.71428 -14.2016,0 -25.71428,-11.51268 -25.71428,-25.71428 0,-14.20161 11.51268,-25.71429 25.71428,-25.71429 14.20161,0 25.71429,11.51268 25.71429,25.71429 z" />
    <path
       transform="translate(398.38162,67.822914)"
       sodipodi:type="arc"
       style="fill:#000000;fill-opacity:0.37899547;stroke:#000000;stroke-width:5;stroke-miterlimit:4;stroke-opacity:1;stroke-dasharray:none"
       id="path2985-5"
       sodipodi:cx="285.71429"
       sodipodi:cy="329.50504"
       sodipodi:rx="25.714285"
       sodipodi:ry="25.714285"
       d="m 311.42858,329.50504 c 0,14.2016 -11.51268,25.71428 -25.71429,25.71428 -14.2016,0 -25.71428,-11.51268 -25.71428,-25.71428 0,-14.20161 11.51268,-25.71429 25.71428,-25.71429 14.20161,0 25.71429,11.51268 25.71429,25.71429 z" />
    <path
       transform="translate(711.52892,-282.69999)"
       sodipodi:type="arc"
       style="fill:none;stroke:#000000;stroke-width:5;stroke-miterlimit:4;stroke-opacity:1;stroke-dasharray:none"
       id="path2985-97"
       sodipodi:cx="285.71429"
       sodipodi:cy="329.50504"
       sodipodi:rx="25.714285"
       sodipodi:ry="25.714285"
       d="m 311.42858,329.50504 c 0,14.2016 -11.51268,25.71428 -25.71429,25.71428 -14.2016,0 -25.71428,-11.51268 -25.71428,-25.71428 0,-14.20161 11.51268,-25.71429 25.71428,-25.71429 14.20161,0 25.71429,11.51268 25.71429,25.71429 z" />
    <path
       transform="translate(-332.12948,70.390114)"
       sodipodi:type="arc"
       style="fill:none;stroke:#000000;stroke-width:5;stroke-miterlimit:4;stroke-opacity:1;stroke-dasharray:none"
       id="path2985-3-2"
       sodipodi:cx="285.71429"
       sodipodi:cy="329.50504"
       sodipodi:rx="25.714285"
       sodipodi:ry="25.714285"
       d="m 311.42858,329.50504 c 0,14.2016 -11.51268,25.71428 -25.71429,25.71428 -14.2016,0 -25.71428,-11.51268 -25.71428,-25.71428 0,-14.20161 11.51268,-25.71429 25.71428,-25.71429 14.20161,0 25.71429,11.51268 25.71429,25.71429 z" />
    <path
       transform="translate(-60.398485,113.82674)"
       sodipodi:type="arc"
       style="fill:none;stroke:#000000;stroke-width:5;stroke-miterlimit:4;stroke-opacity:1;stroke-dasharray:none"
       id="path2985-1-9"
       sodipodi:cx="285.71429"
       sodipodi:cy="329.50504"
       sodipodi:rx="25.714285"
       sodipodi:ry="25.714285"
       d="m 311.42858,329.50504 c 0,14.2016 -11.51268,25.71428 -25.71429,25.71428 -14.2016,0 -25.71428,-11.51268 -25.71428,-25.71428 0,-14.20161 11.51268,-25.71429 25.71428,-25.71429 14.20161,0 25.71429,11.51268 25.71429,25.71429 z" />
    <path
       transform="translate(836.44202,-386.75269)"
       sodipodi:type="arc"
       style="fill:none;stroke:#000000;stroke-width:5;stroke-miterlimit:4;stroke-opacity:1;stroke-dasharray:none"
       id="path2985-3-4"
       sodipodi:cx="285.71429"
       sodipodi:cy="329.50504"
       sodipodi:rx="25.714285"
       sodipodi:ry="25.714285"
       d="m 311.42858,329.50504 c 0,14.2016 -11.51268,25.71428 -25.71429,25.71428 -14.2016,0 -25.71428,-11.51268 -25.71428,-25.71428 0,-14.20161 11.51268,-25.71429 25.71428,-25.71429 14.20161,0 25.71429,11.51268 25.71429,25.71429 z" />
    <path
       transform="translate(1108.173,-343.31609)"
       sodipodi:type="arc"
       style="fill:none;stroke:#000000;stroke-width:5;stroke-miterlimit:4;stroke-opacity:1;stroke-dasharray:none"
       id="path2985-1-0"
       sodipodi:cx="285.71429"
       sodipodi:cy="329.50504"
       sodipodi:rx="25.714285"
       sodipodi:ry="25.714285"
       d="m 311.42858,329.50504 c 0,14.2016 -11.51268,25.71428 -25.71429,25.71428 -14.2016,0 -25.71428,-11.51268 -25.71428,-25.71428 0,-14.20161 11.51268,-25.71429 25.71428,-25.71429 14.20161,0 25.71429,11.51268 25.71429,25.71429 z" />
    <path
       sodipodi:type="arc"
       style="fill:none;stroke:#000000;stroke-width:10;stroke-miterlimit:4;stroke-opacity:1;stroke-dasharray:10, 20;stroke-dashoffset:0"
       id="path3962"
       sodipodi:cx="1985.7142"
       sodipodi:cy="1122.7783"
       sodipodi:rx="385.71432"
       sodipodi:ry="385.71432"
       d="m 2371.4286,1122.7783 c 0,213.0242 -172.6902,385.7143 -385.7144,385.7143 -213.0241,0 -385.7143,-172.6901 -385.7143,-385.7143 0,-213.02412 172.6902,-385.7143 385.7143,-385.7143 213.0242,0 385.7144,172.69018 385.7144,385.7143 z"
       transform="translate(-1348.9304,-922.88269)" />
    <path
       transform="translate(353.04792,-126.00359)"
       sodipodi:type="arc"
       style="fill:#ff0000;fill-opacity:1;stroke:#000000;stroke-width:5;stroke-miterlimit:4;stroke-opacity:1;stroke-dasharray:none"
       id="path2985-93"
       sodipodi:cx="285.71429"
       sodipodi:cy="329.50504"
       sodipodi:rx="25.714285"
       sodipodi:ry="25.714285"
       d="m 311.42858,329.50504 c 0,14.2016 -11.51268,25.71428 -25.71429,25.71428 -14.2016,0 -25.71428,-11.51268 -25.71428,-25.71428 0,-14.20161 11.51268,-25.71429 25.71428,-25.71429 14.20161,0 25.71429,11.51268 25.71429,25.71429 z" />
    <path
       transform="translate(331.71152,-64.507086)"
       sodipodi:type="arc"
       style="fill:#323232;fill-opacity:1;stroke:#000000;stroke-width:5;stroke-miterlimit:4;stroke-opacity:1;stroke-dasharray:none"
       id="path2985-9"
       sodipodi:cx="285.71429"
       sodipodi:cy="329.50504"
       sodipodi:rx="25.714285"
       sodipodi:ry="25.714285"
       d="m 311.42858,329.50504 c 0,14.2016 -11.51268,25.71428 -25.71429,25.71428 -14.2016,0 -25.71428,-11.51268 -25.71428,-25.71428 0,-14.20161 11.51268,-25.71429 25.71428,-25.71429 14.20161,0 25.71429,11.51268 25.71429,25.71429 z" />
  </g>
</svg>
