<?xml version="1.0" encoding="UTF-8" standalone="no"?>
<!-- Created with Inkscape (http://www.inkscape.org/) -->

<svg
   xmlns:dc="http://purl.org/dc/elements/1.1/"
   xmlns:cc="http://creativecommons.org/ns#"
   xmlns:rdf="http://www.w3.org/1999/02/22-rdf-syntax-ns#"
   xmlns:svg="http://www.w3.org/2000/svg"
   xmlns="http://www.w3.org/2000/svg"
   xmlns:sodipodi="http://sodipodi.sourceforge.net/DTD/sodipodi-0.dtd"
   xmlns:inkscape="http://www.inkscape.org/namespaces/inkscape"
   width="4212.9922"
   height="2979.9211"
   id="svg2"
   version="1.1"
   inkscape:version="0.48.4 r9939"
   sodipodi:docname="wip.svg">
  <defs
     id="defs4" />
  <sodipodi:namedview
     id="base"
     pagecolor="#ffffff"
     bordercolor="#666666"
     borderopacity="1.0"
     inkscape:pageopacity="0.0"
     inkscape:pageshadow="2"
     inkscape:zoom="0.35"
     inkscape:cx="2591.5652"
     inkscape:cy="1357.6896"
     inkscape:document-units="px"
     inkscape:current-layer="layer1"
     showgrid="false"
     fit-margin-top="50"
     fit-margin-left="50"
     fit-margin-right="50"
     fit-margin-bottom="50"
     inkscape:window-width="1920"
     inkscape:window-height="1056"
     inkscape:window-x="1680"
     inkscape:window-y="24"
     inkscape:window-maximized="1" />
  <metadata
     id="metadata7">
    <rdf:RDF>
      <cc:Work
         rdf:about="">
        <dc:format>image/svg+xml</dc:format>
        <dc:type
           rdf:resource="http://purl.org/dc/dcmitype/StillImage" />
        <dc:title></dc:title>
      </cc:Work>
    </rdf:RDF>
  </metadata>
  <g
     inkscape:label="Layer 1"
     inkscape:groupmode="layer"
     id="layer1"
     transform="translate(101.97825,2381.1648)">
    <path
       sodipodi:type="arc"
       style="fill:#000000;fill-opacity:1;stroke:none"
       id="path2985"
       sodipodi:cx="285.71429"
       sodipodi:cy="329.50504"
       sodipodi:rx="25.714285"
       sodipodi:ry="25.714285"
       d="m 311.42858,329.50504 a 25.714285,25.714285 0 1 1 -51.42857,0 25.714285,25.714285 0 1 1 51.42857,0 z"
       transform="translate(1608.5715,-1200)" />
    <path
       transform="translate(1777.4258,-1138.7928)"
       sodipodi:type="arc"
       style="fill:#000000;fill-opacity:1;stroke:none"
       id="path2985-9"
       sodipodi:cx="285.71429"
       sodipodi:cy="329.50504"
       sodipodi:rx="25.714285"
       sodipodi:ry="25.714285"
       d="m 311.42858,329.50504 a 25.714285,25.714285 0 1 1 -51.42857,0 25.714285,25.714285 0 1 1 51.42857,0 z" />
    <path
       transform="translate(1399.6288,-1154.9552)"
       sodipodi:type="arc"
       style="fill:#000000;fill-opacity:1;stroke:none"
       id="path2985-6"
       sodipodi:cx="285.71429"
       sodipodi:cy="329.50504"
       sodipodi:rx="25.714285"
       sodipodi:ry="25.714285"
       d="m 311.42858,329.50504 a 25.714285,25.714285 0 1 1 -51.42857,0 25.714285,25.714285 0 1 1 51.42857,0 z" />
    <path
       transform="translate(1296.5932,-1106.4679)"
       sodipodi:type="arc"
       style="fill:#000000;fill-opacity:1;stroke:none"
       id="path2985-3"
       sodipodi:cx="285.71429"
       sodipodi:cy="329.50504"
       sodipodi:rx="25.714285"
       sodipodi:ry="25.714285"
       d="m 311.42858,329.50504 a 25.714285,25.714285 0 1 1 -51.42857,0 25.714285,25.714285 0 1 1 51.42857,0 z" />
    <path
       transform="translate(1568.3242,-1063.0313)"
       sodipodi:type="arc"
       style="fill:#000000;fill-opacity:1;stroke:none"
       id="path2985-1"
       sodipodi:cx="285.71429"
       sodipodi:cy="329.50504"
       sodipodi:rx="25.714285"
       sodipodi:ry="25.714285"
       d="m 311.42858,329.50504 a 25.714285,25.714285 0 1 1 -51.42857,0 25.714285,25.714285 0 1 1 51.42857,0 z" />
    <path
       transform="translate(1923.8979,-1281.2243)"
       sodipodi:type="arc"
       style="fill:#000000;fill-opacity:1;stroke:none"
       id="path2985-17"
       sodipodi:cx="285.71429"
       sodipodi:cy="329.50504"
       sodipodi:rx="25.714285"
       sodipodi:ry="25.714285"
       d="m 311.42858,329.50504 a 25.714285,25.714285 0 1 1 -51.42857,0 25.714285,25.714285 0 1 1 51.42857,0 z" />
    <path
       transform="translate(2143.101,-1192.3309)"
       sodipodi:type="arc"
       style="fill:#000000;fill-opacity:1;stroke:none"
       id="path2985-8"
       sodipodi:cx="285.71429"
       sodipodi:cy="329.50504"
       sodipodi:rx="25.714285"
       sodipodi:ry="25.714285"
       d="m 311.42858,329.50504 a 25.714285,25.714285 0 1 1 -51.42857,0 25.714285,25.714285 0 1 1 51.42857,0 z" />
    <path
       transform="translate(1844.0959,-1006.4628)"
       sodipodi:type="arc"
       style="fill:#000000;fill-opacity:1;stroke:none"
       id="path2985-5"
       sodipodi:cx="285.71429"
       sodipodi:cy="329.50504"
       sodipodi:rx="25.714285"
       sodipodi:ry="25.714285"
       d="m 311.42858,329.50504 a 25.714285,25.714285 0 1 1 -51.42857,0 25.714285,25.714285 0 1 1 51.42857,0 z" />
    <path
       transform="translate(2157.2432,-1356.9857)"
       sodipodi:type="arc"
       style="fill:#000000;fill-opacity:1;stroke:none"
       id="path2985-97"
       sodipodi:cx="285.71429"
       sodipodi:cy="329.50504"
       sodipodi:rx="25.714285"
       sodipodi:ry="25.714285"
       d="m 311.42858,329.50504 a 25.714285,25.714285 0 1 1 -51.42857,0 25.714285,25.714285 0 1 1 51.42857,0 z" />
    <path
       transform="translate(1737.1429,-1470)"
       sodipodi:type="arc"
       style="fill:#ff0000;fill-opacity:1;stroke:none"
       id="path2985-93"
       sodipodi:cx="285.71429"
       sodipodi:cy="329.50504"
       sodipodi:rx="25.714285"
       sodipodi:ry="25.714285"
       d="m 311.42858,329.50504 a 25.714285,25.714285 0 1 1 -51.42857,0 25.714285,25.714285 0 1 1 51.42857,0 z" />
    <path
       transform="translate(1113.5848,-1003.8956)"
       sodipodi:type="arc"
       style="fill:#000000;fill-opacity:1;stroke:none"
       id="path2985-3-2"
       sodipodi:cx="285.71429"
       sodipodi:cy="329.50504"
       sodipodi:rx="25.714285"
       sodipodi:ry="25.714285"
       d="m 311.42858,329.50504 a 25.714285,25.714285 0 1 1 -51.42857,0 25.714285,25.714285 0 1 1 51.42857,0 z" />
    <path
       transform="translate(1385.3158,-960.45897)"
       sodipodi:type="arc"
       style="fill:#000000;fill-opacity:1;stroke:none"
       id="path2985-1-9"
       sodipodi:cx="285.71429"
       sodipodi:cy="329.50504"
       sodipodi:rx="25.714285"
       sodipodi:ry="25.714285"
       d="m 311.42858,329.50504 a 25.714285,25.714285 0 1 1 -51.42857,0 25.714285,25.714285 0 1 1 51.42857,0 z" />
    <path
       transform="translate(2282.1563,-1461.0384)"
       sodipodi:type="arc"
       style="fill:#000000;fill-opacity:1;stroke:none"
       id="path2985-3-4"
       sodipodi:cx="285.71429"
       sodipodi:cy="329.50504"
       sodipodi:rx="25.714285"
       sodipodi:ry="25.714285"
       d="m 311.42858,329.50504 a 25.714285,25.714285 0 1 1 -51.42857,0 25.714285,25.714285 0 1 1 51.42857,0 z" />
    <path
       transform="translate(2553.8873,-1417.6018)"
       sodipodi:type="arc"
       style="fill:#000000;fill-opacity:1;stroke:none"
       id="path2985-1-0"
       sodipodi:cx="285.71429"
       sodipodi:cy="329.50504"
       sodipodi:rx="25.714285"
       sodipodi:ry="25.714285"
       d="m 311.42858,329.50504 a 25.714285,25.714285 0 1 1 -51.42857,0 25.714285,25.714285 0 1 1 51.42857,0 z" />
    <path
       sodipodi:type="arc"
       style="fill:none;stroke:#000000;stroke-width:10;stroke-miterlimit:4;stroke-opacity:1;stroke-dasharray:10,20;stroke-dashoffset:0"
       id="path3962"
       sodipodi:cx="1985.7142"
       sodipodi:cy="1122.7783"
       sodipodi:rx="385.71432"
       sodipodi:ry="385.71432"
       d="m 2371.4286,1122.7783 a 385.71432,385.71432 0 1 1 -771.4287,0 385.71432,385.71432 0 1 1 771.4287,0 z"
       transform="translate(35.164607,-2266.8791)" />
  </g>
</svg>
