<?xml version="1.0" encoding="UTF-8" standalone="no"?>
<!-- Created with Inkscape (http://www.inkscape.org/) -->

<svg
   xmlns:ns0="http://www.iki.fi/pav/software/textext/"
   xmlns:dc="http://purl.org/dc/elements/1.1/"
   xmlns:cc="http://creativecommons.org/ns#"
   xmlns:rdf="http://www.w3.org/1999/02/22-rdf-syntax-ns#"
   xmlns:svg="http://www.w3.org/2000/svg"
   xmlns="http://www.w3.org/2000/svg"
   xmlns:sodipodi="http://sodipodi.sourceforge.net/DTD/sodipodi-0.dtd"
   xmlns:inkscape="http://www.inkscape.org/namespaces/inkscape"
   width="267.07037"
   height="267.07037"
   id="svg2"
   version="1.1"
   inkscape:version="0.48.4 r9939"
   sodipodi:docname="domain3.svg">
  <sodipodi:namedview
     id="base"
     pagecolor="#ffffff"
     bordercolor="#666666"
     borderopacity="1.0"
     inkscape:pageopacity="0.0"
     inkscape:pageshadow="2"
     inkscape:zoom="1.9883793"
     inkscape:cx="133.53518"
     inkscape:cy="133.53519"
     inkscape:document-units="px"
     inkscape:current-layer="layer1"
     showgrid="false"
     inkscape:window-width="1920"
     inkscape:window-height="1056"
     inkscape:window-x="1680"
     inkscape:window-y="24"
     inkscape:window-maximized="1"
     fit-margin-top="0"
     fit-margin-left="0"
     fit-margin-right="0"
     fit-margin-bottom="0" />
  <defs
     id="defs4">
    <inkscape:perspective
       id="perspective10"
       inkscape:persp3d-origin="372.04724 : 350.78739 : 1"
       inkscape:vp_z="744.09448 : 526.18109 : 1"
       inkscape:vp_y="0 : 1000 : 0"
       inkscape:vp_x="0 : 526.18109 : 1"
       sodipodi:type="inkscape:persp3d" />
    <inkscape:perspective
       sodipodi:type="inkscape:persp3d"
       inkscape:vp_x="0 : 0.5 : 1"
       inkscape:vp_y="0 : 1000 : 0"
       inkscape:vp_z="1 : 0.5 : 1"
       inkscape:persp3d-origin="0.5 : 0.33333333 : 1"
       id="perspective3646" />
    <inkscape:perspective
       sodipodi:type="inkscape:persp3d"
       inkscape:vp_x="0 : 0.5 : 1"
       inkscape:vp_y="0 : 1000 : 0"
       inkscape:vp_z="1 : 0.5 : 1"
       inkscape:persp3d-origin="0.5 : 0.33333333 : 1"
       id="perspective3646-7" />
    <inkscape:perspective
       sodipodi:type="inkscape:persp3d"
       inkscape:vp_x="0 : 0.5 : 1"
       inkscape:vp_y="0 : 1000 : 0"
       inkscape:vp_z="1 : 0.5 : 1"
       inkscape:persp3d-origin="0.5 : 0.33333333 : 1"
       id="perspective3646-0" />
    <inkscape:perspective
       sodipodi:type="inkscape:persp3d"
       inkscape:vp_x="0 : 0.5 : 1"
       inkscape:vp_y="0 : 1000 : 0"
       inkscape:vp_z="1 : 0.5 : 1"
       inkscape:persp3d-origin="0.5 : 0.33333333 : 1"
       id="perspective3646-4" />
    <inkscape:perspective
       sodipodi:type="inkscape:persp3d"
       inkscape:vp_x="0 : 0.5 : 1"
       inkscape:vp_y="0 : 1000 : 0"
       inkscape:vp_z="1 : 0.5 : 1"
       inkscape:persp3d-origin="0.5 : 0.33333333 : 1"
       id="perspective3646-8" />
    <inkscape:perspective
       sodipodi:type="inkscape:persp3d"
       inkscape:vp_x="0 : 0.5 : 1"
       inkscape:vp_y="0 : 1000 : 0"
       inkscape:vp_z="1 : 0.5 : 1"
       inkscape:persp3d-origin="0.5 : 0.33333333 : 1"
       id="perspective3646-45" />
    <inkscape:perspective
       sodipodi:type="inkscape:persp3d"
       inkscape:vp_x="0 : 0.5 : 1"
       inkscape:vp_y="0 : 1000 : 0"
       inkscape:vp_z="1 : 0.5 : 1"
       inkscape:persp3d-origin="0.5 : 0.33333333 : 1"
       id="perspective3646-1" />
    <inkscape:perspective
       sodipodi:type="inkscape:persp3d"
       inkscape:vp_x="0 : 0.5 : 1"
       inkscape:vp_y="0 : 1000 : 0"
       inkscape:vp_z="1 : 0.5 : 1"
       inkscape:persp3d-origin="0.5 : 0.33333333 : 1"
       id="perspective3646-11" />
    <inkscape:perspective
       sodipodi:type="inkscape:persp3d"
       inkscape:vp_x="0 : 0.5 : 1"
       inkscape:vp_y="0 : 1000 : 0"
       inkscape:vp_z="1 : 0.5 : 1"
       inkscape:persp3d-origin="0.5 : 0.33333333 : 1"
       id="perspective3646-76" />
    <inkscape:perspective
       sodipodi:type="inkscape:persp3d"
       inkscape:vp_x="0 : 0.5 : 1"
       inkscape:vp_y="0 : 1000 : 0"
       inkscape:vp_z="1 : 0.5 : 1"
       inkscape:persp3d-origin="0.5 : 0.33333333 : 1"
       id="perspective3646-2" />
    <inkscape:perspective
       sodipodi:type="inkscape:persp3d"
       inkscape:vp_x="0 : 0.5 : 1"
       inkscape:vp_y="0 : 1000 : 0"
       inkscape:vp_z="1 : 0.5 : 1"
       inkscape:persp3d-origin="0.5 : 0.33333333 : 1"
       id="perspective3646-22" />
    <inkscape:perspective
       sodipodi:type="inkscape:persp3d"
       inkscape:vp_x="0 : 0.5 : 1"
       inkscape:vp_y="0 : 1000 : 0"
       inkscape:vp_z="1 : 0.5 : 1"
       inkscape:persp3d-origin="0.5 : 0.33333333 : 1"
       id="perspective3646-85" />
    <inkscape:perspective
       sodipodi:type="inkscape:persp3d"
       inkscape:vp_x="0 : 0.5 : 1"
       inkscape:vp_y="0 : 1000 : 0"
       inkscape:vp_z="1 : 0.5 : 1"
       inkscape:persp3d-origin="0.5 : 0.33333333 : 1"
       id="perspective3646-18" />
    <inkscape:perspective
       sodipodi:type="inkscape:persp3d"
       inkscape:vp_x="0 : 0.5 : 1"
       inkscape:vp_y="0 : 1000 : 0"
       inkscape:vp_z="1 : 0.5 : 1"
       inkscape:persp3d-origin="0.5 : 0.33333333 : 1"
       id="perspective3646-79" />
    <inkscape:perspective
       sodipodi:type="inkscape:persp3d"
       inkscape:vp_x="0 : 0.5 : 1"
       inkscape:vp_y="0 : 1000 : 0"
       inkscape:vp_z="1 : 0.5 : 1"
       inkscape:persp3d-origin="0.5 : 0.33333333 : 1"
       id="perspective3646-3" />
    <inkscape:perspective
       sodipodi:type="inkscape:persp3d"
       inkscape:vp_x="0 : 0.5 : 1"
       inkscape:vp_y="0 : 1000 : 0"
       inkscape:vp_z="1 : 0.5 : 1"
       inkscape:persp3d-origin="0.5 : 0.33333333 : 1"
       id="perspective3646-33" />
    <inkscape:perspective
       sodipodi:type="inkscape:persp3d"
       inkscape:vp_x="0 : 0.5 : 1"
       inkscape:vp_y="0 : 1000 : 0"
       inkscape:vp_z="1 : 0.5 : 1"
       inkscape:persp3d-origin="0.5 : 0.33333333 : 1"
       id="perspective3646-13" />
    <inkscape:perspective
       sodipodi:type="inkscape:persp3d"
       inkscape:vp_x="0 : 0.5 : 1"
       inkscape:vp_y="0 : 1000 : 0"
       inkscape:vp_z="1 : 0.5 : 1"
       inkscape:persp3d-origin="0.5 : 0.33333333 : 1"
       id="perspective3646-42" />
    <inkscape:perspective
       sodipodi:type="inkscape:persp3d"
       inkscape:vp_x="0 : 0.5 : 1"
       inkscape:vp_y="0 : 1000 : 0"
       inkscape:vp_z="1 : 0.5 : 1"
       inkscape:persp3d-origin="0.5 : 0.33333333 : 1"
       id="perspective3646-9" />
    <inkscape:perspective
       sodipodi:type="inkscape:persp3d"
       inkscape:vp_x="0 : 0.5 : 1"
       inkscape:vp_y="0 : 1000 : 0"
       inkscape:vp_z="1 : 0.5 : 1"
       inkscape:persp3d-origin="0.5 : 0.33333333 : 1"
       id="perspective3646-98" />
    <inkscape:perspective
       sodipodi:type="inkscape:persp3d"
       inkscape:vp_x="0 : 0.5 : 1"
       inkscape:vp_y="0 : 1000 : 0"
       inkscape:vp_z="1 : 0.5 : 1"
       inkscape:persp3d-origin="0.5 : 0.33333333 : 1"
       id="perspective3646-5" />
    <inkscape:perspective
       sodipodi:type="inkscape:persp3d"
       inkscape:vp_x="0 : 0.5 : 1"
       inkscape:vp_y="0 : 1000 : 0"
       inkscape:vp_z="1 : 0.5 : 1"
       inkscape:persp3d-origin="0.5 : 0.33333333 : 1"
       id="perspective3646-28" />
    <inkscape:perspective
       sodipodi:type="inkscape:persp3d"
       inkscape:vp_x="0 : 0.5 : 1"
       inkscape:vp_y="0 : 1000 : 0"
       inkscape:vp_z="1 : 0.5 : 1"
       inkscape:persp3d-origin="0.5 : 0.33333333 : 1"
       id="perspective3646-24" />
    <inkscape:perspective
       sodipodi:type="inkscape:persp3d"
       inkscape:vp_x="0 : 0.5 : 1"
       inkscape:vp_y="0 : 1000 : 0"
       inkscape:vp_z="1 : 0.5 : 1"
       inkscape:persp3d-origin="0.5 : 0.33333333 : 1"
       id="perspective3646-50" />
    <inkscape:perspective
       sodipodi:type="inkscape:persp3d"
       inkscape:vp_x="0 : 0.5 : 1"
       inkscape:vp_y="0 : 1000 : 0"
       inkscape:vp_z="1 : 0.5 : 1"
       inkscape:persp3d-origin="0.5 : 0.33333333 : 1"
       id="perspective3646-06" />
    <inkscape:perspective
       sodipodi:type="inkscape:persp3d"
       inkscape:vp_x="0 : 0.5 : 1"
       inkscape:vp_y="0 : 1000 : 0"
       inkscape:vp_z="1 : 0.5 : 1"
       inkscape:persp3d-origin="0.5 : 0.33333333 : 1"
       id="perspective3646-89" />
    <inkscape:perspective
       sodipodi:type="inkscape:persp3d"
       inkscape:vp_x="0 : 0.5 : 1"
       inkscape:vp_y="0 : 1000 : 0"
       inkscape:vp_z="1 : 0.5 : 1"
       inkscape:persp3d-origin="0.5 : 0.33333333 : 1"
       id="perspective3646-46" />
    <inkscape:perspective
       id="perspective4140"
       inkscape:persp3d-origin="0.5 : 0.33333333 : 1"
       inkscape:vp_z="1 : 0.5 : 1"
       inkscape:vp_y="0 : 1000 : 0"
       inkscape:vp_x="0 : 0.5 : 1"
       sodipodi:type="inkscape:persp3d" />
    <inkscape:perspective
       id="perspective4162"
       inkscape:persp3d-origin="0.5 : 0.33333333 : 1"
       inkscape:vp_z="1 : 0.5 : 1"
       inkscape:vp_y="0 : 1000 : 0"
       inkscape:vp_x="0 : 0.5 : 1"
       sodipodi:type="inkscape:persp3d" />
    <inkscape:perspective
       id="perspective4162-4"
       inkscape:persp3d-origin="0.5 : 0.33333333 : 1"
       inkscape:vp_z="1 : 0.5 : 1"
       inkscape:vp_y="0 : 1000 : 0"
       inkscape:vp_x="0 : 0.5 : 1"
       sodipodi:type="inkscape:persp3d" />
  </defs>
  <metadata
     id="metadata7">
    <rdf:RDF>
      <cc:Work
         rdf:about="">
        <dc:format>image/svg+xml</dc:format>
        <dc:type
           rdf:resource="http://purl.org/dc/dcmitype/StillImage" />
        <dc:title></dc:title>
      </cc:Work>
    </rdf:RDF>
  </metadata>
  <g
     id="layer1"
     inkscape:groupmode="layer"
     inkscape:label="Layer 1"
     transform="translate(-89.502747,-15.872837)">
    <rect
       style="opacity:0.5;fill:#ffff00;fill-opacity:1;stroke:#000000;stroke-width:1.42632914;stroke-miterlimit:4;stroke-opacity:1;stroke-dasharray:1.42632912, 1.42632912;stroke-dashoffset:0"
       id="rect4130-9"
       width="149.09506"
       height="149.09506"
       x="204.54909"
       y="130.65497" />
    <rect
       style="opacity:0.5;fill:#ff9900;fill-opacity:1;stroke:#000000;stroke-width:1.42984366;stroke-miterlimit:4;stroke-opacity:1;stroke-dasharray:1.42984365, 1.42984365;stroke-dashoffset:0"
       id="rect4130-1"
       width="150.51215"
       height="150.51215"
       x="91.660332"
       y="130.21744" />
    <rect
       style="opacity:0.5;fill:#00ffff;fill-opacity:1;stroke:#000000;stroke-width:1.42156351;stroke-miterlimit:4;stroke-opacity:1;stroke-dasharray:1.42156346, 1.42156346;stroke-dashoffset:0"
       id="rect4130-8"
       width="148.59691"
       height="148.59691"
       x="205.07481"
       y="18.613974" />
    <rect
       style="opacity:0.5;fill:#ff00ff;fill-opacity:1;stroke:#000000;stroke-width:1.42632914;stroke-miterlimit:4;stroke-opacity:1;stroke-dasharray:1.42632912, 1.42632912;stroke-dashoffset:0"
       id="rect4130"
       width="149.09506"
       height="149.09506"
       x="92.552269"
       y="18.616724" />
    <rect
       style="fill:none;stroke:#000000;stroke-width:4;stroke-linecap:butt;stroke-linejoin:miter;stroke-miterlimit:4;stroke-opacity:1;stroke-dasharray:none;stroke-dashoffset:0"
       id="rect2845"
       width="263.07037"
       height="263.07037"
       x="91.502747"
       y="17.872837" />
    <path
       d="m 120.418,45.284264 c 0,1.654353 -1.34111,2.995472 -2.99547,2.995472 -1.65435,0 -2.99547,-1.341119 -2.99547,-2.995472 0,-1.654354 1.34112,-2.995473 2.99547,-2.995473 1.65436,0 2.99547,1.341119 2.99547,2.995473 z"
       sodipodi:ry="2.9954727"
       sodipodi:rx="2.9954727"
       sodipodi:cy="45.284264"
       sodipodi:cx="117.42253"
       id="path3636"
       style="fill:#000000;fill-opacity:1;stroke:none"
       sodipodi:type="arc" />
    <path
       d="m 120.418,45.284264 c 0,1.654353 -1.34111,2.995472 -2.99547,2.995472 -1.65435,0 -2.99547,-1.341119 -2.99547,-2.995472 0,-1.654354 1.34112,-2.995473 2.99547,-2.995473 1.65436,0 2.99547,1.341119 2.99547,2.995473 z"
       sodipodi:ry="2.9954727"
       sodipodi:rx="2.9954727"
       sodipodi:cy="45.284264"
       sodipodi:cx="117.42253"
       id="path3636-1"
       style="fill:#000000;fill-opacity:1;stroke:none"
       sodipodi:type="arc"
       transform="translate(38.941143,11.382796)" />
    <path
       d="m 120.418,45.284264 c 0,1.654353 -1.34111,2.995472 -2.99547,2.995472 -1.65435,0 -2.99547,-1.341119 -2.99547,-2.995472 0,-1.654354 1.34112,-2.995473 2.99547,-2.995473 1.65436,0 2.99547,1.341119 2.99547,2.995473 z"
       sodipodi:ry="2.9954727"
       sodipodi:rx="2.9954727"
       sodipodi:cy="45.284264"
       sodipodi:cx="117.42253"
       id="path3636-4"
       style="fill:#000000;fill-opacity:1;stroke:none"
       sodipodi:type="arc"
       transform="translate(4.1936602,79.679573)" />
    <path
       d="m 120.418,45.284264 c 0,1.654353 -1.34111,2.995472 -2.99547,2.995472 -1.65435,0 -2.99547,-1.341119 -2.99547,-2.995472 0,-1.654354 1.34112,-2.995473 2.99547,-2.995473 1.65436,0 2.99547,1.341119 2.99547,2.995473 z"
       sodipodi:ry="2.9954727"
       sodipodi:rx="2.9954727"
       sodipodi:cy="45.284264"
       sodipodi:cx="117.42253"
       id="path3636-9"
       style="fill:#000000;fill-opacity:1;stroke:none"
       sodipodi:type="arc"
       transform="translate(122.21528,32.950199)" />
    <path
       d="m 120.418,45.284264 c 0,1.654353 -1.34111,2.995472 -2.99547,2.995472 -1.65435,0 -2.99547,-1.341119 -2.99547,-2.995472 0,-1.654354 1.34112,-2.995473 2.99547,-2.995473 1.65436,0 2.99547,1.341119 2.99547,2.995473 z"
       sodipodi:ry="2.9954727"
       sodipodi:rx="2.9954727"
       sodipodi:cy="45.284264"
       sodipodi:cx="117.42253"
       id="path3636-8"
       style="fill:#000000;fill-opacity:1;stroke:none"
       sodipodi:type="arc"
       transform="translate(72.490438,38.941144)" />
    <path
       d="m 120.418,45.284264 c 0,1.654353 -1.34111,2.995472 -2.99547,2.995472 -1.65435,0 -2.99547,-1.341119 -2.99547,-2.995472 0,-1.654354 1.34112,-2.995473 2.99547,-2.995473 1.65436,0 2.99547,1.341119 2.99547,2.995473 z"
       sodipodi:ry="2.9954727"
       sodipodi:rx="2.9954727"
       sodipodi:cy="45.284264"
       sodipodi:cx="117.42253"
       id="path3636-2"
       style="fill:#000000;fill-opacity:1;stroke:none"
       sodipodi:type="arc"
       transform="translate(191.11116,8.387323)" />
    <path
       d="m 120.418,45.284264 c 0,1.654353 -1.34111,2.995472 -2.99547,2.995472 -1.65435,0 -2.99547,-1.341119 -2.99547,-2.995472 0,-1.654354 1.34112,-2.995473 2.99547,-2.995473 1.65436,0 2.99547,1.341119 2.99547,2.995473 z"
       sodipodi:ry="2.9954727"
       sodipodi:rx="2.9954727"
       sodipodi:cy="45.284264"
       sodipodi:cx="117.42253"
       id="path3636-5"
       style="fill:#000000;fill-opacity:1;stroke:none"
       sodipodi:type="arc"
       transform="translate(204.89033,58.711264)" />
    <path
       d="m 120.418,45.284264 c 0,1.654353 -1.34111,2.995472 -2.99547,2.995472 -1.65435,0 -2.99547,-1.341119 -2.99547,-2.995472 0,-1.654354 1.34112,-2.995473 2.99547,-2.995473 1.65436,0 2.99547,1.341119 2.99547,2.995473 z"
       sodipodi:ry="2.9954727"
       sodipodi:rx="2.9954727"
       sodipodi:cy="45.284264"
       sodipodi:cx="117.42253"
       id="path3636-7"
       style="fill:#000000;fill-opacity:1;stroke:none"
       sodipodi:type="arc"
       transform="translate(171.34104,28.157443)" />
    <path
       d="m 120.418,45.284264 c 0,1.654353 -1.34111,2.995472 -2.99547,2.995472 -1.65435,0 -2.99547,-1.341119 -2.99547,-2.995472 0,-1.654354 1.34112,-2.995473 2.99547,-2.995473 1.65436,0 2.99547,1.341119 2.99547,2.995473 z"
       sodipodi:ry="2.9954727"
       sodipodi:rx="2.9954727"
       sodipodi:cy="45.284264"
       sodipodi:cx="117.42253"
       id="path3636-52"
       style="fill:#000000;fill-opacity:1;stroke:none"
       sodipodi:type="arc"
       transform="translate(181.52564,108.43611)" />
    <path
       d="m 120.418,45.284264 c 0,1.654353 -1.34111,2.995472 -2.99547,2.995472 -1.65435,0 -2.99547,-1.341119 -2.99547,-2.995472 0,-1.654354 1.34112,-2.995473 2.99547,-2.995473 1.65436,0 2.99547,1.341119 2.99547,2.995473 z"
       sodipodi:ry="2.9954727"
       sodipodi:rx="2.9954727"
       sodipodi:cy="45.284264"
       sodipodi:cx="117.42253"
       id="path3636-14"
       style="fill:#000000;fill-opacity:1;stroke:none"
       sodipodi:type="arc"
       transform="translate(195.90391,170.74194)" />
    <path
       d="m 120.418,45.284264 c 0,1.654353 -1.34111,2.995472 -2.99547,2.995472 -1.65435,0 -2.99547,-1.341119 -2.99547,-2.995472 0,-1.654354 1.34112,-2.995473 2.99547,-2.995473 1.65436,0 2.99547,1.341119 2.99547,2.995473 z"
       sodipodi:ry="2.9954727"
       sodipodi:rx="2.9954727"
       sodipodi:cy="45.284264"
       sodipodi:cx="117.42253"
       id="path3636-3"
       style="fill:#000000;fill-opacity:1;stroke:none"
       sodipodi:type="arc"
       transform="translate(148.57544,207.8858)" />
    <path
       d="m 120.418,45.284264 c 0,1.654353 -1.34111,2.995472 -2.99547,2.995472 -1.65435,0 -2.99547,-1.341119 -2.99547,-2.995472 0,-1.654354 1.34112,-2.995473 2.99547,-2.995473 1.65436,0 2.99547,1.341119 2.99547,2.995473 z"
       sodipodi:ry="2.9954727"
       sodipodi:rx="2.9954727"
       sodipodi:cy="45.284264"
       sodipodi:cx="117.42253"
       id="path3636-16"
       style="fill:#000000;fill-opacity:1;stroke:none"
       sodipodi:type="arc"
       transform="translate(117.42253,166.54828)" />
    <path
       d="m 120.418,45.284264 c 0,1.654353 -1.34111,2.995472 -2.99547,2.995472 -1.65435,0 -2.99547,-1.341119 -2.99547,-2.995472 0,-1.654354 1.34112,-2.995473 2.99547,-2.995473 1.65436,0 2.99547,1.341119 2.99547,2.995473 z"
       sodipodi:ry="2.9954727"
       sodipodi:rx="2.9954727"
       sodipodi:cy="45.284264"
       sodipodi:cx="117.42253"
       id="path3636-76"
       style="fill:#000000;fill-opacity:1;stroke:none"
       sodipodi:type="arc"
       transform="translate(67.098587,175.5347)" />
    <path
       d="m 120.418,45.284264 c 0,1.654353 -1.34111,2.995472 -2.99547,2.995472 -1.65435,0 -2.99547,-1.341119 -2.99547,-2.995472 0,-1.654354 1.34112,-2.995473 2.99547,-2.995473 1.65436,0 2.99547,1.341119 2.99547,2.995473 z"
       sodipodi:ry="2.9954727"
       sodipodi:rx="2.9954727"
       sodipodi:cy="45.284264"
       sodipodi:cx="117.42253"
       id="path3636-92"
       style="fill:#000000;fill-opacity:1;stroke:none"
       sodipodi:type="arc"
       transform="translate(43.7339,214.47584)" />
    <path
       d="m 120.418,45.284264 c 0,1.654353 -1.34111,2.995472 -2.99547,2.995472 -1.65435,0 -2.99547,-1.341119 -2.99547,-2.995472 0,-1.654354 1.34112,-2.995473 2.99547,-2.995473 1.65436,0 2.99547,1.341119 2.99547,2.995473 z"
       sodipodi:ry="2.9954727"
       sodipodi:rx="2.9954727"
       sodipodi:cy="45.284264"
       sodipodi:cx="117.42253"
       id="path3636-54"
       style="fill:#000000;fill-opacity:1;stroke:none"
       sodipodi:type="arc"
       transform="translate(-2.3963797,183.32293)" />
    <path
       d="m 120.418,45.284264 c 0,1.654353 -1.34111,2.995472 -2.99547,2.995472 -1.65435,0 -2.99547,-1.341119 -2.99547,-2.995472 0,-1.654354 1.34112,-2.995473 2.99547,-2.995473 1.65436,0 2.99547,1.341119 2.99547,2.995473 z"
       sodipodi:ry="2.9954727"
       sodipodi:rx="2.9954727"
       sodipodi:cy="45.284264"
       sodipodi:cx="117.42253"
       id="path3636-12"
       style="fill:#000000;fill-opacity:1;stroke:none"
       sodipodi:type="arc"
       transform="translate(29.355631,138.39084)" />
    <path
       d="m 120.418,45.284264 c 0,1.654353 -1.34111,2.995472 -2.99547,2.995472 -1.65435,0 -2.99547,-1.341119 -2.99547,-2.995472 0,-1.654354 1.34112,-2.995473 2.99547,-2.995473 1.65436,0 2.99547,1.341119 2.99547,2.995473 z"
       sodipodi:ry="2.9954727"
       sodipodi:rx="2.9954727"
       sodipodi:cy="45.284264"
       sodipodi:cx="117.42253"
       id="path3636-41"
       style="fill:#000000;fill-opacity:1;stroke:none"
       sodipodi:type="arc"
       transform="translate(44.332994,165.94919)" />
    <path
       d="m 120.418,45.284264 c 0,1.654353 -1.34111,2.995472 -2.99547,2.995472 -1.65435,0 -2.99547,-1.341119 -2.99547,-2.995472 0,-1.654354 1.34112,-2.995473 2.99547,-2.995473 1.65436,0 2.99547,1.341119 2.99547,2.995473 z"
       sodipodi:ry="2.9954727"
       sodipodi:rx="2.9954727"
       sodipodi:cy="45.284264"
       sodipodi:cx="117.42253"
       id="path3636-87"
       style="fill:#000000;fill-opacity:1;stroke:none"
       sodipodi:type="arc"
       transform="translate(165.94919,162.35462)" />
    <path
       d="m 120.418,45.284264 c 0,1.654353 -1.34111,2.995472 -2.99547,2.995472 -1.65435,0 -2.99547,-1.341119 -2.99547,-2.995472 0,-1.654354 1.34112,-2.995473 2.99547,-2.995473 1.65436,0 2.99547,1.341119 2.99547,2.995473 z"
       sodipodi:ry="2.9954727"
       sodipodi:rx="2.9954727"
       sodipodi:cy="45.284264"
       sodipodi:cx="117.42253"
       id="path3636-77"
       style="fill:#000000;fill-opacity:1;stroke:none"
       sodipodi:type="arc"
       transform="translate(210.88128,95.256031)" />
    <path
       d="m 120.418,45.284264 c 0,1.654353 -1.34111,2.995472 -2.99547,2.995472 -1.65435,0 -2.99547,-1.341119 -2.99547,-2.995472 0,-1.654354 1.34112,-2.995473 2.99547,-2.995473 1.65436,0 2.99547,1.341119 2.99547,2.995473 z"
       sodipodi:ry="2.9954727"
       sodipodi:rx="2.9954727"
       sodipodi:cy="45.284264"
       sodipodi:cx="117.42253"
       id="path3636-31"
       style="fill:#000000;fill-opacity:1;stroke:none"
       sodipodi:type="arc"
       transform="translate(171.34104,47.328468)" />
    <path
       d="m 120.418,45.284264 c 0,1.654353 -1.34111,2.995472 -2.99547,2.995472 -1.65435,0 -2.99547,-1.341119 -2.99547,-2.995472 0,-1.654354 1.34112,-2.995473 2.99547,-2.995473 1.65436,0 2.99547,1.341119 2.99547,2.995473 z"
       sodipodi:ry="2.9954727"
       sodipodi:rx="2.9954727"
       sodipodi:cy="45.284264"
       sodipodi:cx="117.42253"
       id="path3636-6"
       style="fill:#000000;fill-opacity:1;stroke:none"
       sodipodi:type="arc"
       transform="translate(157.56186,2.9954721)" />
    <path
       d="m 120.418,45.284264 c 0,1.654353 -1.34111,2.995472 -2.99547,2.995472 -1.65435,0 -2.99547,-1.341119 -2.99547,-2.995472 0,-1.654354 1.34112,-2.995473 2.99547,-2.995473 1.65436,0 2.99547,1.341119 2.99547,2.995473 z"
       sodipodi:ry="2.9954727"
       sodipodi:rx="2.9954727"
       sodipodi:cy="45.284264"
       sodipodi:cx="117.42253"
       id="path3636-0"
       style="fill:#000000;fill-opacity:1;stroke:none"
       sodipodi:type="arc"
       transform="translate(17.37374,24.562876)" />
    <path
       d="m 120.418,45.284264 c 0,1.654353 -1.34111,2.995472 -2.99547,2.995472 -1.65435,0 -2.99547,-1.341119 -2.99547,-2.995472 0,-1.654354 1.34112,-2.995473 2.99547,-2.995473 1.65436,0 2.99547,1.341119 2.99547,2.995473 z"
       sodipodi:ry="2.9954727"
       sodipodi:rx="2.9954727"
       sodipodi:cy="45.284264"
       sodipodi:cx="117.42253"
       id="path3636-60"
       style="fill:#000000;fill-opacity:1;stroke:none"
       sodipodi:type="arc"
       transform="translate(100.64788,0.59909396)" />
    <path
       d="m 120.418,45.284264 c 0,1.654353 -1.34111,2.995472 -2.99547,2.995472 -1.65435,0 -2.99547,-1.341119 -2.99547,-2.995472 0,-1.654354 1.34112,-2.995473 2.99547,-2.995473 1.65436,0 2.99547,1.341119 2.99547,2.995473 z"
       sodipodi:ry="2.9954727"
       sodipodi:rx="2.9954727"
       sodipodi:cy="45.284264"
       sodipodi:cx="117.42253"
       id="path3636-86"
       style="fill:#000000;fill-opacity:1;stroke:none"
       sodipodi:type="arc"
       transform="translate(43.7339,55.116697)" />
    <path
       d="m 120.418,45.284264 c 0,1.654353 -1.34111,2.995472 -2.99547,2.995472 -1.65435,0 -2.99547,-1.341119 -2.99547,-2.995472 0,-1.654354 1.34112,-2.995473 2.99547,-2.995473 1.65436,0 2.99547,1.341119 2.99547,2.995473 z"
       sodipodi:ry="2.9954727"
       sodipodi:rx="2.9954727"
       sodipodi:cy="45.284264"
       sodipodi:cx="117.42253"
       id="path3636-90"
       style="fill:#000000;fill-opacity:1;stroke:none"
       sodipodi:type="arc"
       transform="translate(63.50402,133.59808)" />
    <path
       d="m 120.418,45.284264 c 0,1.654353 -1.34111,2.995472 -2.99547,2.995472 -1.65435,0 -2.99547,-1.341119 -2.99547,-2.995472 0,-1.654354 1.34112,-2.995473 2.99547,-2.995473 1.65436,0 2.99547,1.341119 2.99547,2.995473 z"
       sodipodi:ry="2.9954727"
       sodipodi:rx="2.9954727"
       sodipodi:cy="45.284264"
       sodipodi:cx="117.42253"
       id="path3636-13"
       style="fill:#000000;fill-opacity:1;stroke:none"
       sodipodi:type="arc"
       transform="translate(7.1891329,131.8008)" />
    <path
       d="m 120.418,45.284264 c 0,1.654353 -1.34111,2.995472 -2.99547,2.995472 -1.65435,0 -2.99547,-1.341119 -2.99547,-2.995472 0,-1.654354 1.34112,-2.995473 2.99547,-2.995473 1.65436,0 2.99547,1.341119 2.99547,2.995473 z"
       sodipodi:ry="2.9954727"
       sodipodi:rx="2.9954727"
       sodipodi:cy="45.284264"
       sodipodi:cx="117.42253"
       id="path3636-34"
       style="fill:#000000;fill-opacity:1;stroke:none"
       sodipodi:type="arc"
       transform="translate(96.454219,212.67856)" />
    <path
       d="m 120.418,45.284264 c 0,1.654353 -1.34111,2.995472 -2.99547,2.995472 -1.65435,0 -2.99547,-1.341119 -2.99547,-2.995472 0,-1.654354 1.34112,-2.995473 2.99547,-2.995473 1.65436,0 2.99547,1.341119 2.99547,2.995473 z"
       sodipodi:ry="2.9954727"
       sodipodi:rx="2.9954727"
       sodipodi:cy="45.284264"
       sodipodi:cx="117.42253"
       id="path3636-06"
       style="fill:#000000;fill-opacity:1;stroke:none"
       sodipodi:type="arc"
       transform="translate(191.11116,210.88128)" />
    <g
       id="content"
       transform="matrix(4,0,0,-4,-624.48017,3050.7951)"
       xml:space="preserve"
       stroke-miterlimit="10.433"
       font-style="normal"
       font-variant="normal"
       font-weight="normal"
       font-stretch="normal"
       font-size-adjust="none"
       letter-spacing="normal"
       word-spacing="normal"
       ns0:text="$\\hat{\\Omega}_4$"
       ns0:preamble=""
       style="font-style:normal;font-variant:normal;font-weight:normal;font-stretch:normal;letter-spacing:normal;word-spacing:normal;text-anchor:start;fill:none;stroke:#000000;stroke-linecap:butt;stroke-linejoin:miter;stroke-miterlimit:10.43299961;stroke-opacity:1;stroke-dasharray:none;stroke-dashoffset:0"><polygon
         points="227.03,716.04 228.18,715.02 228.36,715.2 227.03,716.56 225.7,715.2 225.88,715.02 "
         id="polygon5248"
         style="fill:#000000;stroke-width:0" /><path
         d="m 230.18,708.74 h -0.25 c -0.05,-0.26 -0.09,-0.49 -0.18,-0.73 -0.05,-0.16 -0.08,-0.24 -0.66,-0.24 h -0.8 c 0.13,0.56 0.44,1.04 0.89,1.69 0.47,0.71 0.88,1.4 0.88,2.19 0,1.38 -1.35,2.5 -3.03,2.5 -1.71,0 -3.04,-1.14 -3.04,-2.5 0,-0.79 0.41,-1.48 0.88,-2.19 0.43,-0.65 0.75,-1.13 0.88,-1.69 h -0.79 c -0.58,0 -0.61,0.08 -0.66,0.23 -0.08,0.23 -0.13,0.49 -0.18,0.74 h -0.25 l 0.33,-1.62 h 1.59 c 0.22,0 0.25,0 0.25,0.21 0,0.7 -0.31,1.58 -0.53,2.21 -0.21,0.58 -0.49,1.37 -0.49,2.12 0,1.59 1.09,2.27 2,2.27 0.96,0 2.01,-0.72 2.01,-2.27 0,-0.75 -0.27,-1.51 -0.56,-2.33 -0.15,-0.41 -0.46,-1.31 -0.46,-2 0,-0.21 0.03,-0.21 0.25,-0.21 h 1.59 z"
         id="path5250"
         inkscape:connector-curvature="0"
         style="fill:#000000;stroke-width:0" /><path
         d="m 234.31,706.77 v 0.26 h -0.77 v 3.11 c 0,0.14 0,0.19 -0.15,0.19 -0.09,0 -0.12,0 -0.18,-0.1 l -2.31,-3.2 v -0.26 h 2.05 l 0.05,0.26 h -1.85 l 1.85,2.55 v -2.55 l -0.05,-0.26 v -0.57 c 0,-0.23 0,-0.32 -0.57,-0.32 h -0.19 v -0.25 c 0.35,0.01 0.8,0.03 1.05,0.03 0.26,0 0.71,-0.02 1.05,-0.03 v 0.25 h -0.19 c -0.56,0 -0.56,0.09 -0.56,0.32 v 0.57 z"
         id="path5252"
         inkscape:connector-curvature="0"
         style="fill:#000000;stroke-width:0" /></g>    <g
       ns0:preamble=""
       ns0:text="$\\hat{\\Omega}_1$"
       word-spacing="normal"
       letter-spacing="normal"
       font-size-adjust="none"
       font-stretch="normal"
       font-weight="normal"
       font-variant="normal"
       font-style="normal"
       stroke-miterlimit="10.433"
       xml:space="preserve"
       transform="matrix(4,0,0,-4,-747.19318,2927.0762)"
       id="g5398"
       style="font-style:normal;font-variant:normal;font-weight:normal;font-stretch:normal;letter-spacing:normal;word-spacing:normal;text-anchor:start;fill:none;stroke:#000000;stroke-linecap:butt;stroke-linejoin:miter;stroke-miterlimit:10.43299961;stroke-opacity:1;stroke-dasharray:none;stroke-dashoffset:0"><polygon
         id="polygon5400"
         points="228.36,715.2 227.03,716.56 225.7,715.2 225.88,715.02 227.03,716.04 228.18,715.02 "
         style="fill:#000000;stroke-width:0" /><path
         id="path5402"
         d="m 230.18,708.74 h -0.25 c -0.05,-0.26 -0.09,-0.49 -0.18,-0.73 -0.05,-0.16 -0.08,-0.24 -0.66,-0.24 h -0.8 c 0.13,0.56 0.44,1.04 0.89,1.69 0.47,0.71 0.88,1.4 0.88,2.19 0,1.38 -1.35,2.5 -3.03,2.5 -1.71,0 -3.04,-1.14 -3.04,-2.5 0,-0.79 0.41,-1.48 0.88,-2.19 0.43,-0.65 0.75,-1.13 0.88,-1.69 h -0.79 c -0.58,0 -0.61,0.08 -0.66,0.23 -0.08,0.23 -0.13,0.49 -0.18,0.74 h -0.25 l 0.33,-1.62 h 1.59 c 0.22,0 0.25,0 0.25,0.21 0,0.7 -0.31,1.58 -0.53,2.21 -0.21,0.58 -0.49,1.37 -0.49,2.12 0,1.59 1.09,2.27 2,2.27 0.96,0 2.01,-0.72 2.01,-2.27 0,-0.75 -0.27,-1.51 -0.56,-2.33 -0.15,-0.41 -0.46,-1.31 -0.46,-2 0,-0.21 0.03,-0.21 0.25,-0.21 h 1.59 z"
         style="fill:#000000;stroke-width:0"
         inkscape:connector-curvature="0" /><path
         id="path5404"
         d="m 232.96,710.07 0,0 0,0.01 0,0.01 0,0.01 0,0.01 0,0 0,0.01 0,0.01 0,0 0,0.01 0,0.01 0,0 0,0.01 0,0 0,0.01 0,0.01 -0.01,0 0,0.01 0,0 0,0.01 0,0.01 -0.01,0.01 0,0 -0.01,0.01 0,0 -0.01,0.01 0,0 -0.01,0.01 -0.01,0 0,0 -0.01,0 -0.01,0.01 -0.01,0 0,0 -0.01,0 0,0 -0.01,0 -0.01,0 0,0 -0.01,0 -0.01,0 0,0 -0.01,0 -0.01,0 -0.01,0 0,0 -0.01,0 -0.01,0 -0.01,0 -0.01,0 c -0.44,-0.44 -1.08,-0.45 -1.37,-0.45 v -0.25 c 0.17,0 0.63,0 1.02,0.2 v -3.56 c 0,-0.23 0,-0.32 -0.7,-0.32 h -0.27 v -0.25 c 0.13,0.01 0.99,0.03 1.25,0.03 0.21,0 1.09,-0.02 1.24,-0.03 v 0.25 h -0.26 c -0.7,0 -0.7,0.09 -0.7,0.32 z"
         style="fill:#000000;stroke-width:0"
         inkscape:connector-curvature="0" /></g>    <g
       style="font-style:normal;font-variant:normal;font-weight:normal;font-stretch:normal;letter-spacing:normal;word-spacing:normal;text-anchor:start;fill:none;stroke:#000000;stroke-linecap:butt;stroke-linejoin:miter;stroke-miterlimit:10.43299961;stroke-opacity:1;stroke-dasharray:none;stroke-dashoffset:0"
       id="g5558"
       transform="matrix(4,0,0,-4,-619.45095,2924.5617)"
       xml:space="preserve"
       stroke-miterlimit="10.433"
       font-style="normal"
       font-variant="normal"
       font-weight="normal"
       font-stretch="normal"
       font-size-adjust="none"
       letter-spacing="normal"
       word-spacing="normal"
       ns0:text="$\\hat{\\Omega}_2$"
       ns0:preamble=""><polygon
         style="fill:#000000;stroke-width:0"
         points="228.36,715.2 227.03,716.56 225.7,715.2 225.88,715.02 227.03,716.04 228.18,715.02 "
         id="polygon5560" /><path
         style="fill:#000000;stroke-width:0"
         d="m 230.18,708.74 h -0.25 c -0.05,-0.26 -0.09,-0.49 -0.18,-0.73 -0.05,-0.16 -0.08,-0.24 -0.66,-0.24 h -0.8 c 0.13,0.56 0.44,1.04 0.89,1.69 0.47,0.71 0.88,1.4 0.88,2.19 0,1.38 -1.35,2.5 -3.03,2.5 -1.71,0 -3.04,-1.14 -3.04,-2.5 0,-0.79 0.41,-1.48 0.88,-2.19 0.43,-0.65 0.75,-1.13 0.88,-1.69 h -0.79 c -0.58,0 -0.61,0.08 -0.66,0.23 -0.08,0.23 -0.13,0.49 -0.18,0.74 h -0.25 l 0.33,-1.62 h 1.59 c 0.22,0 0.25,0 0.25,0.21 0,0.7 -0.31,1.58 -0.53,2.21 -0.21,0.58 -0.49,1.37 -0.49,2.12 0,1.59 1.09,2.27 2,2.27 0.96,0 2.01,-0.72 2.01,-2.27 0,-0.75 -0.27,-1.51 -0.56,-2.33 -0.15,-0.41 -0.46,-1.31 -0.46,-2 0,-0.21 0.03,-0.21 0.25,-0.21 h 1.59 z"
         id="path5562"
         inkscape:connector-curvature="0" /><path
         style="fill:#000000;stroke-width:0"
         d="m 234.15,706.9 h -0.24 c -0.02,-0.15 -0.09,-0.57 -0.18,-0.63 -0.06,-0.05 -0.59,-0.05 -0.69,-0.05 h -1.28 c 0.73,0.65 0.97,0.85 1.39,1.17 0.52,0.42 1,0.85 1,1.51 0,0.84 -0.74,1.36 -1.64,1.36 -0.86,0 -1.45,-0.61 -1.45,-1.25 0,-0.35 0.3,-0.39 0.37,-0.39 0.17,0 0.37,0.12 0.37,0.37 0,0.13 -0.04,0.37 -0.41,0.37 0.22,0.5 0.69,0.65 1.02,0.65 0.7,0 1.06,-0.54 1.06,-1.11 0,-0.61 -0.43,-1.09 -0.65,-1.34 l -1.69,-1.66 c -0.07,-0.06 -0.07,-0.07 -0.07,-0.27 h 2.88 z"
         id="path5564"
         inkscape:connector-curvature="0" /></g>    <g
       ns0:preamble=""
       ns0:text="$\\hat{\\Omega}_3$"
       word-spacing="normal"
       letter-spacing="normal"
       font-size-adjust="none"
       font-stretch="normal"
       font-weight="normal"
       font-variant="normal"
       font-style="normal"
       stroke-miterlimit="10.433"
       xml:space="preserve"
       transform="matrix(4,0,0,-4,-761.77792,3055.3214)"
       id="g5726"
       style="font-style:normal;font-variant:normal;font-weight:normal;font-stretch:normal;letter-spacing:normal;word-spacing:normal;text-anchor:start;fill:none;stroke:#000000;stroke-linecap:butt;stroke-linejoin:miter;stroke-miterlimit:10.43299961;stroke-opacity:1;stroke-dasharray:none;stroke-dashoffset:0"><polygon
         id="polygon5728"
         points="228.18,715.02 228.36,715.2 227.03,716.56 225.7,715.2 225.88,715.02 227.03,716.04 "
         style="fill:#000000;stroke-width:0" /><path
         id="path5730"
         d="m 230.18,708.74 h -0.25 c -0.05,-0.26 -0.09,-0.49 -0.18,-0.73 -0.05,-0.16 -0.08,-0.24 -0.66,-0.24 h -0.8 c 0.13,0.56 0.44,1.04 0.89,1.69 0.47,0.71 0.88,1.4 0.88,2.19 0,1.38 -1.35,2.5 -3.03,2.5 -1.71,0 -3.04,-1.14 -3.04,-2.5 0,-0.79 0.41,-1.48 0.88,-2.19 0.43,-0.65 0.75,-1.13 0.88,-1.69 h -0.79 c -0.58,0 -0.61,0.08 -0.66,0.23 -0.08,0.23 -0.13,0.49 -0.18,0.74 h -0.25 l 0.33,-1.62 h 1.59 c 0.22,0 0.25,0 0.25,0.21 0,0.7 -0.31,1.58 -0.53,2.21 -0.21,0.58 -0.49,1.37 -0.49,2.12 0,1.59 1.09,2.27 2,2.27 0.96,0 2.01,-0.72 2.01,-2.27 0,-0.75 -0.27,-1.51 -0.56,-2.33 -0.15,-0.41 -0.46,-1.31 -0.46,-2 0,-0.21 0.03,-0.21 0.25,-0.21 h 1.59 z"
         style="fill:#000000;stroke-width:0"
         inkscape:connector-curvature="0" /><path
         id="path5732"
         d="m 232.53,707.96 0.05,0 0.05,-0.01 0.05,0 0.05,-0.01 0.04,-0.01 0.05,-0.01 0.04,-0.01 0.04,-0.02 0.05,-0.02 0.04,-0.02 0.04,-0.02 0.03,-0.03 0.04,-0.03 0.03,-0.03 0.04,-0.03 0.03,-0.03 0.03,-0.04 0.03,-0.04 0.03,-0.04 0.02,-0.04 0.02,-0.05 0.03,-0.04 0.02,-0.05 0.01,-0.05 0.02,-0.06 0.01,-0.05 0.02,-0.06 0.01,-0.06 0,-0.06 0.01,-0.07 0,-0.07 0,-0.06 c 0,-0.87 -0.5,-1.13 -0.9,-1.13 -0.28,0 -0.9,0.08 -1.19,0.49 0.33,0.02 0.41,0.25 0.41,0.39 0,0.23 -0.17,0.39 -0.39,0.39 -0.19,0 -0.39,-0.12 -0.39,-0.41 0,-0.65 0.73,-1.08 1.57,-1.08 0.97,0 1.64,0.65 1.64,1.35 0,0.54 -0.45,1.08 -1.21,1.25 0.73,0.26 0.99,0.78 0.99,1.21 0,0.55 -0.63,0.96 -1.4,0.96 -0.78,0 -1.37,-0.38 -1.37,-0.93 0,-0.24 0.15,-0.37 0.36,-0.37 0.22,0 0.36,0.16 0.36,0.35 0,0.2 -0.14,0.35 -0.36,0.36 0.24,0.31 0.73,0.39 0.98,0.39 0.32,0 0.76,-0.15 0.76,-0.76 0,-0.29 -0.1,-0.62 -0.28,-0.83 -0.23,-0.27 -0.43,-0.28 -0.78,-0.3 -0.17,-0.01 -0.18,-0.01 -0.22,-0.02 -0.01,0 -0.07,-0.02 -0.07,-0.09 0,-0.1 0.06,-0.1 0.18,-0.1 z"
         style="fill:#000000;stroke-width:0"
         inkscape:connector-curvature="0" /></g>  </g>
</svg>
