<?xml version="1.0" encoding="UTF-8" standalone="no"?>
<!-- Created with Inkscape (http://www.inkscape.org/) -->

<svg
   xmlns:dc="http://purl.org/dc/elements/1.1/"
   xmlns:cc="http://creativecommons.org/ns#"
   xmlns:rdf="http://www.w3.org/1999/02/22-rdf-syntax-ns#"
   xmlns:svg="http://www.w3.org/2000/svg"
   xmlns="http://www.w3.org/2000/svg"
   xmlns:sodipodi="http://sodipodi.sourceforge.net/DTD/sodipodi-0.dtd"
   xmlns:inkscape="http://www.inkscape.org/namespaces/inkscape"
   id="svg2"
   version="1.1"
   inkscape:version="0.48.4 r9939"
   width="80.05"
   height="79.8375"
   xml:space="preserve"
   sodipodi:docname="fdm_embed.eps"><metadata
     id="metadata8"><rdf:RDF><cc:Work
         rdf:about=""><dc:format>image/svg+xml</dc:format><dc:type
           rdf:resource="http://purl.org/dc/dcmitype/StillImage" /><dc:title></dc:title></cc:Work></rdf:RDF></metadata><defs
     id="defs6" /><sodipodi:namedview
     pagecolor="#ffffff"
     bordercolor="#666666"
     borderopacity="1"
     objecttolerance="10"
     gridtolerance="10"
     guidetolerance="10"
     inkscape:pageopacity="0"
     inkscape:pageshadow="2"
     inkscape:window-width="640"
     inkscape:window-height="480"
     id="namedview4"
     showgrid="false"
     inkscape:zoom="2.9560043"
     inkscape:cx="40.025002"
     inkscape:cy="39.918751"
     inkscape:window-x="63"
     inkscape:window-y="24"
     inkscape:window-maximized="0"
     inkscape:current-layer="g10" /><g
     id="g10"
     inkscape:groupmode="layer"
     inkscape:label="ink_ext_XXXXXX"
     transform="matrix(1.25,0,0,-1.25,0,79.8375)"><g
       id="g12"
       transform="scale(0.1,0.1)"><path
         d="m 306.918,337.57 20.391,-16.59 -30.071,-14.511"
         style="fill:#80ff80;fill-opacity:1;fill-rule:evenodd;stroke:none"
         id="path14" /><path
         d="m 306.918,337.57 20.391,-16.59 -30.071,-14.511 9.68,31.101"
         style="fill:none;stroke:#000000;stroke-opacity:1;stroke-width:2.07375;stroke-linecap:butt;stroke-linejoin:round;stroke-miterlimit:10;stroke-dasharray:none"
         id="path16" /><path
         d="m 327.309,320.98 -20.391,16.59 23.5,9.68"
         style="fill:#80ff80;fill-opacity:1;fill-rule:evenodd;stroke:none"
         id="path18" /><path
         d="m 327.309,320.98 -20.391,16.59 23.5,9.68 -3.109,-26.27"
         style="fill:none;stroke:#000000;stroke-opacity:1;stroke-width:2.07375;stroke-linecap:butt;stroke-linejoin:round;stroke-miterlimit:10;stroke-dasharray:none"
         id="path20" /><path
         d="m 318.668,361.422 11.75,-14.172 -23.5,-9.68"
         style="fill:#80ff80;fill-opacity:1;fill-rule:evenodd;stroke:none"
         id="path22" /><path
         d="m 318.668,361.422 11.75,-14.172 -23.5,-9.68 11.75,23.852"
         style="fill:none;stroke:#000000;stroke-opacity:1;stroke-width:2.07375;stroke-linecap:butt;stroke-linejoin:round;stroke-miterlimit:10;stroke-dasharray:none"
         id="path24" /><path
         d="M 330.418,347.25 343.207,332.039 327.309,320.98"
         style="fill:#80ff80;fill-opacity:1;fill-rule:evenodd;stroke:none"
         id="path26" /><path
         d="m 330.418,347.25 12.789,-15.211 -15.898,-11.059 3.109,26.27"
         style="fill:none;stroke:#000000;stroke-opacity:1;stroke-width:2.07375;stroke-linecap:butt;stroke-linejoin:round;stroke-miterlimit:10;stroke-dasharray:none"
         id="path28" /><path
         d="m 323.855,284 -26.617,22.469 30.071,14.511"
         style="fill:#80ff80;fill-opacity:1;fill-rule:evenodd;stroke:none"
         id="path30" /><path
         d="M 323.855,284 297.238,306.469 327.309,320.98 323.855,284"
         style="fill:none;stroke:#000000;stroke-opacity:1;stroke-width:2.07375;stroke-linecap:butt;stroke-linejoin:round;stroke-miterlimit:10;stroke-dasharray:none"
         id="path32" /><path
         d="M 327.309,320.98 350.117,310.961 323.855,284"
         style="fill:#80ff80;fill-opacity:1;fill-rule:evenodd;stroke:none"
         id="path34" /><path
         d="M 327.309,320.98 350.117,310.961 323.855,284 l 3.454,36.98"
         style="fill:none;stroke:#000000;stroke-opacity:1;stroke-width:2.07375;stroke-linecap:butt;stroke-linejoin:round;stroke-miterlimit:10;stroke-dasharray:none"
         id="path36" /><path
         d="m 362.566,275.02 -38.711,8.98 26.262,26.961"
         style="fill:#80ff80;fill-opacity:1;fill-rule:evenodd;stroke:none"
         id="path38" /><path
         d="m 362.566,275.02 -38.711,8.98 26.262,26.961 12.449,-35.941"
         style="fill:none;stroke:#000000;stroke-opacity:1;stroke-width:2.07375;stroke-linecap:butt;stroke-linejoin:round;stroke-miterlimit:10;stroke-dasharray:none"
         id="path40" /><path
         d="m 327.309,320.98 15.898,11.059 6.91,-21.078"
         style="fill:#80ff80;fill-opacity:1;fill-rule:evenodd;stroke:none"
         id="path42" /><path
         d="m 327.309,320.98 15.898,11.059 6.91,-21.078 -22.808,10.019"
         style="fill:none;stroke:#000000;stroke-opacity:1;stroke-width:2.07375;stroke-linecap:butt;stroke-linejoin:round;stroke-miterlimit:10;stroke-dasharray:none"
         id="path44" /><path
         d="m 330.418,367.988 0,-20.738 -11.75,14.172"
         style="fill:#80ff80;fill-opacity:1;fill-rule:evenodd;stroke:none"
         id="path46" /><path
         d="m 330.418,367.988 0,-20.738 -11.75,14.172 11.75,6.566"
         style="fill:none;stroke:#000000;stroke-opacity:1;stroke-width:2.07375;stroke-linecap:butt;stroke-linejoin:round;stroke-miterlimit:10;stroke-dasharray:none"
         id="path48" /><path
         d="m 330.418,347.25 0,20.738 13.129,-15.898"
         style="fill:#80ff80;fill-opacity:1;fill-rule:evenodd;stroke:none"
         id="path50" /><path
         d="m 330.418,347.25 0,20.738 13.129,-15.898 -13.129,-4.84"
         style="fill:none;stroke:#000000;stroke-opacity:1;stroke-width:2.07375;stroke-linecap:butt;stroke-linejoin:round;stroke-miterlimit:10;stroke-dasharray:none"
         id="path52" /><path
         d="m 350.117,380.43 -6.57,-28.34 -13.129,15.898"
         style="fill:#80ff80;fill-opacity:1;fill-rule:evenodd;stroke:none"
         id="path54" /><path
         d="m 350.117,380.43 -6.57,-28.34 -13.129,15.898 19.699,12.442"
         style="fill:none;stroke:#000000;stroke-opacity:1;stroke-width:2.07375;stroke-linecap:butt;stroke-linejoin:round;stroke-miterlimit:10;stroke-dasharray:none"
         id="path56" /><path
         d="m 343.547,352.09 -0.34,-20.051 -12.789,15.211"
         style="fill:#80ff80;fill-opacity:1;fill-rule:evenodd;stroke:none"
         id="path58" /><path
         d="m 343.547,352.09 -0.34,-20.051 -12.789,15.211 13.129,4.84"
         style="fill:none;stroke:#000000;stroke-opacity:1;stroke-width:2.07375;stroke-linecap:butt;stroke-linejoin:round;stroke-miterlimit:10;stroke-dasharray:none"
         id="path60" /><path
         d="m 376.035,355.891 -32.488,-3.801 6.57,28.34"
         style="fill:#80ff80;fill-opacity:1;fill-rule:evenodd;stroke:none"
         id="path62" /><path
         d="m 376.035,355.891 -32.488,-3.801 6.57,28.34 25.918,-24.539"
         style="fill:none;stroke:#000000;stroke-opacity:1;stroke-width:2.07375;stroke-linecap:butt;stroke-linejoin:round;stroke-miterlimit:10;stroke-dasharray:none"
         id="path64" /><path
         d="m 343.547,352.09 32.488,3.801 -11.398,-25.922"
         style="fill:#80ff80;fill-opacity:1;fill-rule:evenodd;stroke:none"
         id="path66" /><path
         d="m 343.547,352.09 32.488,3.801 -11.398,-25.922 -21.09,22.121"
         style="fill:none;stroke:#000000;stroke-opacity:1;stroke-width:2.07375;stroke-linecap:butt;stroke-linejoin:round;stroke-miterlimit:10;stroke-dasharray:none"
         id="path68" /><path
         d="m 390.906,338.961 -26.269,-8.992 11.398,25.922"
         style="fill:#80ff80;fill-opacity:1;fill-rule:evenodd;stroke:none"
         id="path70" /><path
         d="m 390.906,338.961 -26.269,-8.992 11.398,25.922 14.871,-16.93"
         style="fill:none;stroke:#000000;stroke-opacity:1;stroke-width:2.07375;stroke-linecap:butt;stroke-linejoin:round;stroke-miterlimit:10;stroke-dasharray:none"
         id="path72" /><path
         d="m 364.637,329.969 -21.43,2.07 0.34,20.051"
         style="fill:#80ff80;fill-opacity:1;fill-rule:evenodd;stroke:none"
         id="path74" /><path
         d="m 364.637,329.969 -21.43,2.07 0.34,20.051 21.09,-22.121"
         style="fill:none;stroke:#000000;stroke-opacity:1;stroke-width:2.07375;stroke-linecap:butt;stroke-linejoin:round;stroke-miterlimit:10;stroke-dasharray:none"
         id="path76" /><path
         d="m 383.297,307.5 -18.66,22.469 26.269,8.992"
         style="fill:#80ff80;fill-opacity:1;fill-rule:evenodd;stroke:none"
         id="path78" /><path
         d="m 383.297,307.5 -18.66,22.469 26.269,8.992 -7.609,-31.461"
         style="fill:none;stroke:#000000;stroke-opacity:1;stroke-width:2.07375;stroke-linecap:butt;stroke-linejoin:round;stroke-miterlimit:10;stroke-dasharray:none"
         id="path80" /><path
         d="m 364.637,329.969 18.66,-22.469 -33.18,3.461"
         style="fill:#80ff80;fill-opacity:1;fill-rule:evenodd;stroke:none"
         id="path82" /><path
         d="m 364.637,329.969 18.66,-22.469 -33.18,3.461 14.52,19.008"
         style="fill:none;stroke:#000000;stroke-opacity:1;stroke-width:2.07375;stroke-linecap:butt;stroke-linejoin:round;stroke-miterlimit:10;stroke-dasharray:none"
         id="path84" /><path
         d="m 362.566,275.02 -12.449,35.941 33.18,-3.461"
         style="fill:#80ff80;fill-opacity:1;fill-rule:evenodd;stroke:none"
         id="path86" /><path
         d="m 362.566,275.02 -12.449,35.941 33.18,-3.461 -20.731,-32.48"
         style="fill:none;stroke:#000000;stroke-opacity:1;stroke-width:2.07375;stroke-linecap:butt;stroke-linejoin:round;stroke-miterlimit:10;stroke-dasharray:none"
         id="path88" /><path
         d="m 350.117,310.961 -6.91,21.078 21.43,-2.07"
         style="fill:#80ff80;fill-opacity:1;fill-rule:evenodd;stroke:none"
         id="path90" /><path
         d="m 350.117,310.961 -6.91,21.078 21.43,-2.07 -14.52,-19.008"
         style="fill:none;stroke:#000000;stroke-opacity:1;stroke-width:2.07375;stroke-linecap:butt;stroke-linejoin:round;stroke-miterlimit:10;stroke-dasharray:none"
         id="path92" /><path
         d="m 242.625,249.789 54.613,56.68 L 323.855,284"
         style="fill:#80ff80;fill-opacity:1;fill-rule:evenodd;stroke:none"
         id="path94" /><path
         d="m 242.625,249.789 54.613,56.68 26.617,-22.469 -81.23,-34.211"
         style="fill:none;stroke:#000000;stroke-opacity:1;stroke-width:2.07375;stroke-linecap:butt;stroke-linejoin:round;stroke-miterlimit:10;stroke-dasharray:none"
         id="path96" /><path
         d="m 323.855,284 12.442,-91.238 -93.672,57.027"
         style="fill:#80ff80;fill-opacity:1;fill-rule:evenodd;stroke:none"
         id="path98" /><path
         d="m 323.855,284 12.442,-91.238 -93.672,57.027 81.23,34.211"
         style="fill:none;stroke:#000000;stroke-opacity:1;stroke-width:2.07375;stroke-linecap:butt;stroke-linejoin:round;stroke-miterlimit:10;stroke-dasharray:none"
         id="path100" /><path
         d="M 1.03516,1.62891 242.625,249.789 336.297,192.762"
         style="fill:#80ff80;fill-opacity:1;fill-rule:evenodd;stroke:none"
         id="path102" /><path
         d="M 1.03516,1.62891 242.625,249.789 336.297,192.762 1.03516,1.62891"
         style="fill:none;stroke:#000000;stroke-opacity:1;stroke-width:2.07375;stroke-linecap:butt;stroke-linejoin:round;stroke-miterlimit:10;stroke-dasharray:none"
         id="path104" /><path
         d="M 336.297,192.762 323.855,284 l 38.711,-8.98"
         style="fill:#80ff80;fill-opacity:1;fill-rule:evenodd;stroke:none"
         id="path106" /><path
         d="M 336.297,192.762 323.855,284 l 38.711,-8.98 -26.269,-82.258"
         style="fill:none;stroke:#000000;stroke-opacity:1;stroke-width:2.07375;stroke-linecap:butt;stroke-linejoin:round;stroke-miterlimit:10;stroke-dasharray:none"
         id="path108" /><path
         d="m 284.797,370.059 33.871,-8.637 -11.75,-23.852"
         style="fill:#80ff80;fill-opacity:1;fill-rule:evenodd;stroke:none"
         id="path110" /><path
         d="m 284.797,370.059 33.871,-8.637 -11.75,-23.852 -22.121,32.489"
         style="fill:none;stroke:#000000;stroke-opacity:1;stroke-width:2.07375;stroke-linecap:butt;stroke-linejoin:round;stroke-miterlimit:10;stroke-dasharray:none"
         id="path112" /><path
         d="m 306.918,337.57 -53.23,-7.601 31.109,40.09"
         style="fill:#80ff80;fill-opacity:1;fill-rule:evenodd;stroke:none"
         id="path114" /><path
         d="m 306.918,337.57 -53.23,-7.601 31.109,40.09 22.121,-32.489"
         style="fill:none;stroke:#000000;stroke-opacity:1;stroke-width:2.07375;stroke-linecap:butt;stroke-linejoin:round;stroke-miterlimit:10;stroke-dasharray:none"
         id="path116" /><path
         d="m 229.148,397.02 55.649,-26.961 -31.109,-40.09"
         style="fill:#80ff80;fill-opacity:1;fill-rule:evenodd;stroke:none"
         id="path118" /><path
         d="m 229.148,397.02 55.649,-26.961 -31.109,-40.09 -24.54,67.051"
         style="fill:none;stroke:#000000;stroke-opacity:1;stroke-width:2.07375;stroke-linecap:butt;stroke-linejoin:round;stroke-miterlimit:10;stroke-dasharray:none"
         id="path120" /><path
         d="m 253.688,329.969 53.23,7.601 -9.68,-31.101"
         style="fill:#80ff80;fill-opacity:1;fill-rule:evenodd;stroke:none"
         id="path122" /><path
         d="m 253.688,329.969 53.23,7.601 -9.68,-31.101 -43.55,23.5"
         style="fill:none;stroke:#000000;stroke-opacity:1;stroke-width:2.07375;stroke-linecap:butt;stroke-linejoin:round;stroke-miterlimit:10;stroke-dasharray:none"
         id="path124" /><path
         d="m 346.668,393.91 3.449,-13.48 -19.699,-12.442"
         style="fill:#80ff80;fill-opacity:1;fill-rule:evenodd;stroke:none"
         id="path126" /><path
         d="m 346.668,393.91 3.449,-13.48 -19.699,-12.442 16.25,25.922"
         style="fill:none;stroke:#000000;stroke-opacity:1;stroke-width:2.07375;stroke-linecap:butt;stroke-linejoin:round;stroke-miterlimit:10;stroke-dasharray:none"
         id="path128" /><path
         d="m 330.418,367.988 -12.441,17.621 28.691,8.301"
         style="fill:#80ff80;fill-opacity:1;fill-rule:evenodd;stroke:none"
         id="path130" /><path
         d="m 330.418,367.988 -12.441,17.621 28.691,8.301 -16.25,-25.922"
         style="fill:none;stroke:#000000;stroke-opacity:1;stroke-width:2.07375;stroke-linecap:butt;stroke-linejoin:round;stroke-miterlimit:10;stroke-dasharray:none"
         id="path132" /><path
         d="m 327.656,431.238 19.012,-37.328 -28.691,-8.301"
         style="fill:#80ff80;fill-opacity:1;fill-rule:evenodd;stroke:none"
         id="path134" /><path
         d="m 327.656,431.238 19.012,-37.328 -28.691,-8.301 9.679,45.629"
         style="fill:none;stroke:#000000;stroke-opacity:1;stroke-width:2.07375;stroke-linecap:butt;stroke-linejoin:round;stroke-miterlimit:10;stroke-dasharray:none"
         id="path136" /><path
         d="m 317.977,385.609 12.441,-17.621 -11.75,-6.566"
         style="fill:#80ff80;fill-opacity:1;fill-rule:evenodd;stroke:none"
         id="path138" /><path
         d="m 317.977,385.609 12.441,-17.621 -11.75,-6.566 -0.691,24.187"
         style="fill:none;stroke:#000000;stroke-opacity:1;stroke-width:2.07375;stroke-linecap:butt;stroke-linejoin:round;stroke-miterlimit:10;stroke-dasharray:none"
         id="path140" /><path
         d="m 413.367,380.09 -22.461,-41.129 -14.859,16.93"
         style="fill:#80ff80;fill-opacity:1;fill-rule:evenodd;stroke:none"
         id="path142" /><path
         d="m 413.367,380.09 -22.461,-41.129 -14.859,16.93 37.32,24.199"
         style="fill:none;stroke:#000000;stroke-opacity:1;stroke-width:2.07375;stroke-linecap:butt;stroke-linejoin:round;stroke-miterlimit:10;stroke-dasharray:none"
         id="path144" /><path
         d="m 376.035,355.891 2.422,40.089 34.91,-15.89"
         style="fill:#80ff80;fill-opacity:1;fill-rule:evenodd;stroke:none"
         id="path146" /><path
         d="m 376.035,355.891 2.422,40.089 34.91,-15.89 -37.332,-24.199"
         style="fill:none;stroke:#000000;stroke-opacity:1;stroke-width:2.07375;stroke-linecap:butt;stroke-linejoin:round;stroke-miterlimit:10;stroke-dasharray:none"
         id="path148" /><path
         d="m 419.938,440.219 -6.571,-60.129 -34.91,15.89"
         style="fill:#80ff80;fill-opacity:1;fill-rule:evenodd;stroke:none"
         id="path150" /><path
         d="m 419.938,440.219 -6.571,-60.129 -34.91,15.89 41.481,44.239"
         style="fill:none;stroke:#000000;stroke-opacity:1;stroke-width:2.07375;stroke-linecap:butt;stroke-linejoin:round;stroke-miterlimit:10;stroke-dasharray:none"
         id="path152" /><path
         d="m 378.457,395.98 -2.422,-40.089 -25.918,24.539"
         style="fill:#80ff80;fill-opacity:1;fill-rule:evenodd;stroke:none"
         id="path154" /><path
         d="m 378.457,395.98 -2.422,-40.089 -25.918,24.539 28.34,15.55"
         style="fill:none;stroke:#000000;stroke-opacity:1;stroke-width:2.07375;stroke-linecap:butt;stroke-linejoin:round;stroke-miterlimit:10;stroke-dasharray:none"
         id="path156" /><path
         d="m 434.797,243.219 -72.231,31.801 20.731,32.48"
         style="fill:#80ff80;fill-opacity:1;fill-rule:evenodd;stroke:none"
         id="path158" /><path
         d="m 434.797,243.219 -72.231,31.801 20.731,32.48 51.5,-64.281"
         style="fill:none;stroke:#000000;stroke-opacity:1;stroke-width:2.07375;stroke-linecap:butt;stroke-linejoin:round;stroke-miterlimit:10;stroke-dasharray:none"
         id="path160" /><path
         d="m 383.297,307.5 53.918,25.23 -2.418,-89.511"
         style="fill:#80ff80;fill-opacity:1;fill-rule:evenodd;stroke:none"
         id="path162" /><path
         d="m 383.297,307.5 53.918,25.23 -2.418,-89.511 -51.5,64.281"
         style="fill:none;stroke:#000000;stroke-opacity:1;stroke-width:2.07375;stroke-linecap:butt;stroke-linejoin:round;stroke-miterlimit:10;stroke-dasharray:none"
         id="path164" /><path
         d="m 538.488,317.18 -103.691,-73.961 2.418,89.511"
         style="fill:#80ff80;fill-opacity:1;fill-rule:evenodd;stroke:none"
         id="path166" /><path
         d="m 538.488,317.18 -103.691,-73.961 2.418,89.511 101.273,-15.55"
         style="fill:none;stroke:#000000;stroke-opacity:1;stroke-width:2.07375;stroke-linecap:butt;stroke-linejoin:round;stroke-miterlimit:10;stroke-dasharray:none"
         id="path168" /><path
         d="m 437.215,332.73 -53.918,-25.23 7.609,31.461"
         style="fill:#80ff80;fill-opacity:1;fill-rule:evenodd;stroke:none"
         id="path170" /><path
         d="m 437.215,332.73 -53.918,-25.23 7.609,31.461 46.309,-6.231"
         style="fill:none;stroke:#000000;stroke-opacity:1;stroke-width:2.07375;stroke-linecap:butt;stroke-linejoin:round;stroke-miterlimit:10;stroke-dasharray:none"
         id="path172" /><path
         d="M 143.086,357.621 242.625,249.789 1.03516,1.62891"
         style="fill:#80ff80;fill-opacity:1;fill-rule:evenodd;stroke:none"
         id="path174" /><path
         d="M 143.086,357.621 242.625,249.789 1.03516,1.62891 143.086,357.621"
         style="fill:none;stroke:#000000;stroke-opacity:1;stroke-width:2.07375;stroke-linecap:butt;stroke-linejoin:round;stroke-miterlimit:10;stroke-dasharray:none"
         id="path176" /><path
         d="M 242.625,249.789 143.086,357.621 253.688,329.969"
         style="fill:#80ff80;fill-opacity:1;fill-rule:evenodd;stroke:none"
         id="path178" /><path
         d="m 242.625,249.789 -99.539,107.832 110.602,-27.652 -11.063,-80.18"
         style="fill:none;stroke:#000000;stroke-opacity:1;stroke-width:2.07375;stroke-linecap:butt;stroke-linejoin:round;stroke-miterlimit:10;stroke-dasharray:none"
         id="path180" /><path
         d="m 229.148,397.02 24.54,-67.051 -110.602,27.652"
         style="fill:#80ff80;fill-opacity:1;fill-rule:evenodd;stroke:none"
         id="path182" /><path
         d="m 229.148,397.02 24.54,-67.051 -110.602,27.652 86.062,39.399"
         style="fill:none;stroke:#000000;stroke-opacity:1;stroke-width:2.07375;stroke-linecap:butt;stroke-linejoin:round;stroke-miterlimit:10;stroke-dasharray:none"
         id="path184" /><path
         d="m 253.688,329.969 43.55,-23.5 -54.613,-56.68"
         style="fill:#80ff80;fill-opacity:1;fill-rule:evenodd;stroke:none"
         id="path186" /><path
         d="m 253.688,329.969 43.55,-23.5 -54.613,-56.68 11.063,80.18"
         style="fill:none;stroke:#000000;stroke-opacity:1;stroke-width:2.07375;stroke-linecap:butt;stroke-linejoin:round;stroke-miterlimit:10;stroke-dasharray:none"
         id="path188" /><path
         d="m 279.957,431.238 4.84,-61.179 -55.649,26.961"
         style="fill:#80ff80;fill-opacity:1;fill-rule:evenodd;stroke:none"
         id="path190" /><path
         d="m 279.957,431.238 4.84,-61.179 -55.649,26.961 50.809,34.218"
         style="fill:none;stroke:#000000;stroke-opacity:1;stroke-width:2.07375;stroke-linecap:butt;stroke-linejoin:round;stroke-miterlimit:10;stroke-dasharray:none"
         id="path192" /><path
         d="m 284.797,370.059 -4.84,61.179 38.02,-45.629"
         style="fill:#80ff80;fill-opacity:1;fill-rule:evenodd;stroke:none"
         id="path194" /><path
         d="m 284.797,370.059 -4.84,61.179 38.02,-45.629 -33.18,-15.55"
         style="fill:none;stroke:#000000;stroke-opacity:1;stroke-width:2.07375;stroke-linecap:butt;stroke-linejoin:round;stroke-miterlimit:10;stroke-dasharray:none"
         id="path196" /><path
         d="m 327.656,431.238 -9.679,-45.629 -38.02,45.629"
         style="fill:#80ff80;fill-opacity:1;fill-rule:evenodd;stroke:none"
         id="path198" /><path
         d="m 327.656,431.238 -9.679,-45.629 -38.02,45.629 47.699,0"
         style="fill:none;stroke:#000000;stroke-opacity:1;stroke-width:2.07375;stroke-linecap:butt;stroke-linejoin:round;stroke-miterlimit:10;stroke-dasharray:none"
         id="path200" /><path
         d="m 317.977,385.609 0.691,-24.187 -33.871,8.637"
         style="fill:#80ff80;fill-opacity:1;fill-rule:evenodd;stroke:none"
         id="path202" /><path
         d="m 317.977,385.609 0.691,-24.187 -33.871,8.637 33.18,15.55"
         style="fill:none;stroke:#000000;stroke-opacity:1;stroke-width:2.07375;stroke-linecap:butt;stroke-linejoin:round;stroke-miterlimit:10;stroke-dasharray:none"
         id="path204" /><path
         d="M 372.586,447.832 346.668,393.91 327.656,431.238"
         style="fill:#80ff80;fill-opacity:1;fill-rule:evenodd;stroke:none"
         id="path206" /><path
         d="m 372.586,447.832 -25.918,-53.922 -19.012,37.328 44.93,16.594"
         style="fill:none;stroke:#000000;stroke-opacity:1;stroke-width:2.07375;stroke-linecap:butt;stroke-linejoin:round;stroke-miterlimit:10;stroke-dasharray:none"
         id="path208" /><path
         d="m 346.668,393.91 25.918,53.922 5.871,-51.852"
         style="fill:#80ff80;fill-opacity:1;fill-rule:evenodd;stroke:none"
         id="path210" /><path
         d="m 346.668,393.91 25.918,53.922 5.871,-51.852 -31.789,-2.07"
         style="fill:none;stroke:#000000;stroke-opacity:1;stroke-width:2.07375;stroke-linecap:butt;stroke-linejoin:round;stroke-miterlimit:10;stroke-dasharray:none"
         id="path212" /><path
         d="m 419.938,440.219 -41.481,-44.239 -5.871,51.852"
         style="fill:#80ff80;fill-opacity:1;fill-rule:evenodd;stroke:none"
         id="path214" /><path
         d="m 419.938,440.219 -41.481,-44.239 -5.871,51.852 47.352,-7.613"
         style="fill:none;stroke:#000000;stroke-opacity:1;stroke-width:2.07375;stroke-linecap:butt;stroke-linejoin:round;stroke-miterlimit:10;stroke-dasharray:none"
         id="path216" /><path
         d="m 378.457,395.98 -28.34,-15.55 -3.449,13.48"
         style="fill:#80ff80;fill-opacity:1;fill-rule:evenodd;stroke:none"
         id="path218" /><path
         d="m 378.457,395.98 -28.34,-15.55 -3.449,13.48 31.789,2.07"
         style="fill:none;stroke:#000000;stroke-opacity:1;stroke-width:2.07375;stroke-linecap:butt;stroke-linejoin:round;stroke-miterlimit:10;stroke-dasharray:none"
         id="path220" /><path
         d="m 487.676,447.141 -74.309,-67.051 6.571,60.129"
         style="fill:#80ff80;fill-opacity:1;fill-rule:evenodd;stroke:none"
         id="path222" /><path
         d="m 487.676,447.141 -74.309,-67.051 6.571,60.129 67.738,6.922"
         style="fill:none;stroke:#000000;stroke-opacity:1;stroke-width:2.07375;stroke-linecap:butt;stroke-linejoin:round;stroke-miterlimit:10;stroke-dasharray:none"
         id="path224" /><path
         d="M 413.367,380.09 487.676,447.141 437.215,332.73"
         style="fill:#80ff80;fill-opacity:1;fill-rule:evenodd;stroke:none"
         id="path226" /><path
         d="m 413.367,380.09 74.309,67.051 -50.461,-114.411 -23.848,47.36"
         style="fill:none;stroke:#000000;stroke-opacity:1;stroke-width:2.07375;stroke-linecap:butt;stroke-linejoin:round;stroke-miterlimit:10;stroke-dasharray:none"
         id="path228" /><path
         d="m 538.488,317.18 -101.273,15.55 50.461,114.411"
         style="fill:#80ff80;fill-opacity:1;fill-rule:evenodd;stroke:none"
         id="path230" /><path
         d="M 538.488,317.18 437.215,332.73 487.676,447.141 538.488,317.18"
         style="fill:none;stroke:#000000;stroke-opacity:1;stroke-width:2.07375;stroke-linecap:butt;stroke-linejoin:round;stroke-miterlimit:10;stroke-dasharray:none"
         id="path232" /><path
         d="m 437.215,332.73 -46.309,6.231 22.461,41.129"
         style="fill:#80ff80;fill-opacity:1;fill-rule:evenodd;stroke:none"
         id="path234" /><path
         d="m 437.215,332.73 -46.309,6.231 22.461,41.129 23.848,-47.36"
         style="fill:none;stroke:#000000;stroke-opacity:1;stroke-width:2.07375;stroke-linecap:butt;stroke-linejoin:round;stroke-miterlimit:10;stroke-dasharray:none"
         id="path236" /><path
         d="M 639.406,1.62891 434.797,243.219 538.488,317.18"
         style="fill:#80ff80;fill-opacity:1;fill-rule:evenodd;stroke:none"
         id="path238" /><path
         d="M 639.406,1.62891 434.797,243.219 538.488,317.18 639.406,1.62891"
         style="fill:none;stroke:#000000;stroke-opacity:1;stroke-width:2.07375;stroke-linecap:butt;stroke-linejoin:round;stroke-miterlimit:10;stroke-dasharray:none"
         id="path240" /><path
         d="M 434.797,243.219 639.406,1.62891 336.297,192.762"
         style="fill:#80ff80;fill-opacity:1;fill-rule:evenodd;stroke:none"
         id="path242" /><path
         d="M 434.797,243.219 639.406,1.62891 336.297,192.762 l 98.5,50.457"
         style="fill:none;stroke:#000000;stroke-opacity:1;stroke-width:2.07375;stroke-linecap:butt;stroke-linejoin:round;stroke-miterlimit:10;stroke-dasharray:none"
         id="path244" /><path
         d="M 1.03516,1.62891 336.297,192.762 639.406,1.62891"
         style="fill:#80ff80;fill-opacity:1;fill-rule:evenodd;stroke:none"
         id="path246" /><path
         d="M 1.03516,1.62891 336.297,192.762 639.406,1.62891 l -638.37084,0"
         style="fill:none;stroke:#000000;stroke-opacity:1;stroke-width:2.07375;stroke-linecap:butt;stroke-linejoin:round;stroke-miterlimit:10;stroke-dasharray:none"
         id="path248" /><path
         d="m 336.297,192.762 26.269,82.258 72.231,-31.801"
         style="fill:#80ff80;fill-opacity:1;fill-rule:evenodd;stroke:none"
         id="path250" /><path
         d="m 336.297,192.762 26.269,82.258 72.231,-31.801 -98.5,-50.457"
         style="fill:none;stroke:#000000;stroke-opacity:1;stroke-width:2.07375;stroke-linecap:butt;stroke-linejoin:round;stroke-miterlimit:10;stroke-dasharray:none"
         id="path252" /><path
         d="m 212.559,484.469 16.597,-87.449 -86.07,-39.399"
         style="fill:#80ff80;fill-opacity:1;fill-rule:evenodd;stroke:none"
         id="path254" /><path
         d="m 212.559,484.469 16.597,-87.449 -86.07,-39.399 69.473,126.848"
         style="fill:none;stroke:#000000;stroke-opacity:1;stroke-width:2.07375;stroke-linecap:butt;stroke-linejoin:round;stroke-miterlimit:10;stroke-dasharray:none"
         id="path256" /><path
         d="M 143.086,357.621 1.03516,640 212.559,484.469"
         style="fill:#80ff80;fill-opacity:1;fill-rule:evenodd;stroke:none"
         id="path258" /><path
         d="M 143.086,357.621 1.03516,640 212.559,484.469 143.086,357.621"
         style="fill:none;stroke:#000000;stroke-opacity:1;stroke-width:2.07375;stroke-linecap:butt;stroke-linejoin:round;stroke-miterlimit:10;stroke-dasharray:none"
         id="path260" /><path
         d="M 321.777,550.129 212.559,484.469 1.03516,640"
         style="fill:#80ff80;fill-opacity:1;fill-rule:evenodd;stroke:none"
         id="path262" /><path
         d="M 321.777,550.129 212.559,484.469 1.03516,640 321.777,550.129"
         style="fill:none;stroke:#000000;stroke-opacity:1;stroke-width:2.07375;stroke-linecap:butt;stroke-linejoin:round;stroke-miterlimit:10;stroke-dasharray:none"
         id="path264" /><path
         d="M 1.03516,640 143.086,357.621 1.03516,1.62891"
         style="fill:#80ff80;fill-opacity:1;fill-rule:evenodd;stroke:none"
         id="path266" /><path
         d="M 1.03516,640 143.086,357.621 1.03516,1.62891 1.03516,640"
         style="fill:none;stroke:#000000;stroke-opacity:1;stroke-width:2.07375;stroke-linecap:butt;stroke-linejoin:round;stroke-miterlimit:10;stroke-dasharray:none"
         id="path268" /><path
         d="m 323.855,478.59 3.801,-47.352 -47.699,0"
         style="fill:#80ff80;fill-opacity:1;fill-rule:evenodd;stroke:none"
         id="path270" /><path
         d="m 323.855,478.59 3.801,-47.352 -47.699,0 43.898,47.352"
         style="fill:none;stroke:#000000;stroke-opacity:1;stroke-width:2.07375;stroke-linecap:butt;stroke-linejoin:round;stroke-miterlimit:10;stroke-dasharray:none"
         id="path272" /><path
         d="m 279.957,431.238 -67.398,53.231 111.296,-5.879"
         style="fill:#80ff80;fill-opacity:1;fill-rule:evenodd;stroke:none"
         id="path274" /><path
         d="m 279.957,431.238 -67.398,53.231 111.296,-5.879 -43.898,-47.352"
         style="fill:none;stroke:#000000;stroke-opacity:1;stroke-width:2.07375;stroke-linecap:butt;stroke-linejoin:round;stroke-miterlimit:10;stroke-dasharray:none"
         id="path276" /><path
         d="m 321.777,550.129 2.078,-71.539 -111.296,5.879"
         style="fill:#80ff80;fill-opacity:1;fill-rule:evenodd;stroke:none"
         id="path278" /><path
         d="m 321.777,550.129 2.078,-71.539 -111.296,5.879 109.218,65.66"
         style="fill:none;stroke:#000000;stroke-opacity:1;stroke-width:2.07375;stroke-linecap:butt;stroke-linejoin:round;stroke-miterlimit:10;stroke-dasharray:none"
         id="path280" /><path
         d="M 212.559,484.469 279.957,431.238 229.156,397.02"
         style="fill:#80ff80;fill-opacity:1;fill-rule:evenodd;stroke:none"
         id="path282" /><path
         d="m 212.559,484.469 67.398,-53.231 -50.801,-34.218 -16.597,87.449"
         style="fill:none;stroke:#000000;stroke-opacity:1;stroke-width:2.07375;stroke-linecap:butt;stroke-linejoin:round;stroke-miterlimit:10;stroke-dasharray:none"
         id="path284" /><path
         d="m 430.996,506.93 -11.058,-66.711 -47.352,7.613"
         style="fill:#80ff80;fill-opacity:1;fill-rule:evenodd;stroke:none"
         id="path286" /><path
         d="m 430.996,506.93 -11.058,-66.711 -47.352,7.613 58.41,59.098"
         style="fill:none;stroke:#000000;stroke-opacity:1;stroke-width:2.07375;stroke-linecap:butt;stroke-linejoin:round;stroke-miterlimit:10;stroke-dasharray:none"
         id="path288" /><path
         d="m 372.586,447.832 -48.731,30.758 107.141,28.34"
         style="fill:#80ff80;fill-opacity:1;fill-rule:evenodd;stroke:none"
         id="path290" /><path
         d="m 372.586,447.832 -48.731,30.758 107.141,28.34 -58.41,-59.098"
         style="fill:none;stroke:#000000;stroke-opacity:1;stroke-width:2.07375;stroke-linecap:butt;stroke-linejoin:round;stroke-miterlimit:10;stroke-dasharray:none"
         id="path292" /><path
         d="M 321.777,550.129 430.996,506.93 323.855,478.59"
         style="fill:#80ff80;fill-opacity:1;fill-rule:evenodd;stroke:none"
         id="path294" /><path
         d="M 321.777,550.129 430.996,506.93 323.855,478.59 321.777,550.129"
         style="fill:none;stroke:#000000;stroke-opacity:1;stroke-width:2.07375;stroke-linecap:butt;stroke-linejoin:round;stroke-miterlimit:10;stroke-dasharray:none"
         id="path296" /><path
         d="m 323.855,478.59 48.731,-30.758 -44.93,-16.594"
         style="fill:#80ff80;fill-opacity:1;fill-rule:evenodd;stroke:none"
         id="path298" /><path
         d="m 323.855,478.59 48.731,-30.758 -44.93,-16.594 -3.801,47.352"
         style="fill:none;stroke:#000000;stroke-opacity:1;stroke-width:2.07375;stroke-linecap:butt;stroke-linejoin:round;stroke-miterlimit:10;stroke-dasharray:none"
         id="path300" /><path
         d="M 639.406,640 538.488,317.18 487.676,447.141"
         style="fill:#80ff80;fill-opacity:1;fill-rule:evenodd;stroke:none"
         id="path302" /><path
         d="M 639.406,640 538.488,317.18 487.676,447.141 639.406,640"
         style="fill:none;stroke:#000000;stroke-opacity:1;stroke-width:2.07375;stroke-linecap:butt;stroke-linejoin:round;stroke-miterlimit:10;stroke-dasharray:none"
         id="path304" /><path
         d="M 487.676,447.141 430.996,506.93 639.406,640"
         style="fill:#80ff80;fill-opacity:1;fill-rule:evenodd;stroke:none"
         id="path306" /><path
         d="M 487.676,447.141 430.996,506.93 639.406,640 487.676,447.141"
         style="fill:none;stroke:#000000;stroke-opacity:1;stroke-width:2.07375;stroke-linecap:butt;stroke-linejoin:round;stroke-miterlimit:10;stroke-dasharray:none"
         id="path308" /><path
         d="M 321.777,550.129 639.406,640 430.996,506.93"
         style="fill:#80ff80;fill-opacity:1;fill-rule:evenodd;stroke:none"
         id="path310" /><path
         d="M 321.777,550.129 639.406,640 430.996,506.93 321.777,550.129"
         style="fill:none;stroke:#000000;stroke-opacity:1;stroke-width:2.07375;stroke-linecap:butt;stroke-linejoin:round;stroke-miterlimit:10;stroke-dasharray:none"
         id="path312" /><path
         d="m 430.996,506.93 56.68,-59.789 -67.738,-6.922"
         style="fill:#80ff80;fill-opacity:1;fill-rule:evenodd;stroke:none"
         id="path314" /><path
         d="m 430.996,506.93 56.68,-59.789 -67.738,-6.922 11.058,66.711"
         style="fill:none;stroke:#000000;stroke-opacity:1;stroke-width:2.07375;stroke-linecap:butt;stroke-linejoin:round;stroke-miterlimit:10;stroke-dasharray:none"
         id="path316" /><path
         d="M 321.777,550.129 1.03516,640 639.406,640"
         style="fill:#80ff80;fill-opacity:1;fill-rule:evenodd;stroke:none"
         id="path318" /><path
         d="M 321.777,550.129 1.03516,640 639.406,640 321.777,550.129"
         style="fill:none;stroke:#000000;stroke-opacity:1;stroke-width:2.07375;stroke-linecap:butt;stroke-linejoin:round;stroke-miterlimit:10;stroke-dasharray:none"
         id="path320" /><path
         d="m 639.406,640 0,-638.37109 L 538.488,317.18"
         style="fill:#80ff80;fill-opacity:1;fill-rule:evenodd;stroke:none"
         id="path322" /><path
         d="m 639.406,640 0,-638.37109 L 538.488,317.18 639.406,640"
         style="fill:none;stroke:#000000;stroke-opacity:1;stroke-width:2.07375;stroke-linecap:butt;stroke-linejoin:round;stroke-miterlimit:10;stroke-dasharray:none"
         id="path324" /></g></g></svg>