<?xml version="1.0" encoding="UTF-8" standalone="no"?>
<!-- Created with Inkscape (http://www.inkscape.org/) -->

<svg
   xmlns:dc="http://purl.org/dc/elements/1.1/"
   xmlns:cc="http://creativecommons.org/ns#"
   xmlns:rdf="http://www.w3.org/1999/02/22-rdf-syntax-ns#"
   xmlns:svg="http://www.w3.org/2000/svg"
   xmlns="http://www.w3.org/2000/svg"
   xmlns:sodipodi="http://sodipodi.sourceforge.net/DTD/sodipodi-0.dtd"
   xmlns:inkscape="http://www.inkscape.org/namespaces/inkscape"
   id="svg2"
   version="1.1"
   inkscape:version="0.48.4 r9939"
   width="442.475"
   height="442.475"
   xml:space="preserve"
   sodipodi:docname="foldover.eps"><metadata
     id="metadata8"><rdf:RDF><cc:Work
         rdf:about=""><dc:format>image/svg+xml</dc:format><dc:type
           rdf:resource="http://purl.org/dc/dcmitype/StillImage" /><dc:title></dc:title></cc:Work></rdf:RDF></metadata><defs
     id="defs6" /><sodipodi:namedview
     pagecolor="#ffffff"
     bordercolor="#666666"
     borderopacity="1"
     objecttolerance="10"
     gridtolerance="10"
     guidetolerance="10"
     inkscape:pageopacity="0"
     inkscape:pageshadow="2"
     inkscape:window-width="640"
     inkscape:window-height="480"
     id="namedview4"
     showgrid="false"
     inkscape:zoom="0.53336346"
     inkscape:cx="221.2375"
     inkscape:cy="221.2375"
     inkscape:window-x="209"
     inkscape:window-y="136"
     inkscape:window-maximized="0"
     inkscape:current-layer="g10" /><g
     id="g10"
     inkscape:groupmode="layer"
     inkscape:label="ink_ext_XXXXXX"
     transform="matrix(1.25,0,0,-1.25,0,442.475)"><g
       id="g12"
       transform="scale(0.1,0.1)"><path
         d="m 146.398,145.168 3244.76,0 0,3244.76 -3244.76,0 0,-3244.76 z"
         style="fill:#ffffff;fill-opacity:1;fill-rule:nonzero;stroke:none"
         id="path14" /><path
         d="m 146.398,145.168 3244.76,0 0,3244.76 -3244.76,0 0,-3244.76 z"
         style="fill:none;stroke:#000000;stroke-opacity:1;stroke-width:50;stroke-linecap:round;stroke-linejoin:round;stroke-miterlimit:10;stroke-dasharray:none"
         id="path16" /><path
         d="M 149.473,3391.43 2795.63,1713.38 149.473,159.793"
         style="fill:none;stroke:#000000;stroke-opacity:1;stroke-width:50;stroke-linecap:round;stroke-linejoin:round;stroke-miterlimit:10;stroke-dasharray:none"
         id="path18" /><path
         d="M 3390.32,3384.51 771.824,1706.46 3390.32,152.879"
         style="fill:none;stroke:#000000;stroke-opacity:1;stroke-width:50;stroke-linecap:round;stroke-linejoin:round;stroke-miterlimit:10;stroke-dasharray:none"
         id="path20" /><path
         d="M 2763.36,1713.38 785.656,1708.77"
         style="fill:none;stroke:#000000;stroke-opacity:1;stroke-width:50;stroke-linecap:round;stroke-linejoin:miter;stroke-miterlimit:10;stroke-dasharray:none"
         id="path22" /><path
         d="m 923.957,1708.77 c 0,-73.81 -59.894,-133.7 -133.691,-133.7 -73.797,0 -133.692,59.89 -133.692,133.7 0,73.79 59.895,133.68 133.692,133.68 73.797,0 133.691,-59.89 133.691,-133.68"
         style="fill:#ffffff;fill-opacity:1;fill-rule:nonzero;stroke:none"
         id="path24" /><path
         d="m 923.957,1708.77 c 0,-73.81 -59.894,-133.7 -133.691,-133.7 -73.797,0 -133.692,59.89 -133.692,133.7 0,73.79 59.895,133.68 133.692,133.68 73.797,0 133.691,-59.89 133.691,-133.68 z"
         style="fill:none;stroke:#000000;stroke-opacity:1;stroke-width:50;stroke-linecap:round;stroke-linejoin:round;stroke-miterlimit:10;stroke-dasharray:none"
         id="path26" /><path
         d="m 2901.66,1713.38 c 0,-73.8 -59.89,-133.7 -133.69,-133.7 -73.8,0 -133.69,59.9 -133.69,133.7 0,73.79 59.89,133.69 133.69,133.69 73.8,0 133.69,-59.9 133.69,-133.69"
         style="fill:#ffffff;fill-opacity:1;fill-rule:nonzero;stroke:none"
         id="path28" /><path
         d="m 2901.66,1713.38 c 0,-73.8 -59.89,-133.7 -133.69,-133.7 -73.8,0 -133.69,59.9 -133.69,133.7 0,73.79 59.89,133.69 133.69,133.69 73.8,0 133.69,-59.9 133.69,-133.69 z"
         style="fill:none;stroke:#000000;stroke-opacity:1;stroke-width:50;stroke-linecap:round;stroke-linejoin:round;stroke-miterlimit:10;stroke-dasharray:none"
         id="path30" /><path
         d="m 306.211,3368.38 c 0,-73.8 -59.891,-133.7 -133.691,-133.7 -73.7973,0 -133.688,59.9 -133.688,133.7 0,73.79 59.8907,133.69 133.688,133.69 73.8,0 133.691,-59.9 133.691,-133.69"
         style="fill:#ffffff;fill-opacity:1;fill-rule:nonzero;stroke:none"
         id="path32" /><path
         d="m 306.211,3368.38 c 0,-73.8 -59.891,-133.7 -133.691,-133.7 -73.7973,0 -133.688,59.9 -133.688,133.7 0,73.79 59.8907,133.69 133.688,133.69 73.8,0 133.691,-59.9 133.691,-133.69 z"
         style="fill:none;stroke:#000000;stroke-opacity:1;stroke-width:50;stroke-linecap:round;stroke-linejoin:round;stroke-miterlimit:10;stroke-dasharray:none"
         id="path34" /><path
         d="m 3510.18,3382.2 c 0,-73.79 -59.89,-133.68 -133.69,-133.68 -73.79,0 -133.69,59.89 -133.69,133.68 0,73.8 59.9,133.69 133.69,133.69 73.8,0 133.69,-59.89 133.69,-133.69"
         style="fill:#ffffff;fill-opacity:1;fill-rule:nonzero;stroke:none"
         id="path36" /><path
         d="m 3510.18,3382.2 c 0,-73.79 -59.89,-133.68 -133.69,-133.68 -73.79,0 -133.69,59.89 -133.69,133.68 0,73.8 59.9,133.69 133.69,133.69 73.8,0 133.69,-59.89 133.69,-133.69 z"
         style="fill:none;stroke:#000000;stroke-opacity:1;stroke-width:50;stroke-linecap:round;stroke-linejoin:round;stroke-miterlimit:10;stroke-dasharray:none"
         id="path38" /><path
         d="m 3514.79,159.793 c 0,-73.7969 -59.89,-133.6914 -133.69,-133.6914 -73.8,0 -133.69,59.8945 -133.69,133.6914 0,73.797 59.89,133.691 133.69,133.691 73.8,0 133.69,-59.894 133.69,-133.691"
         style="fill:#ffffff;fill-opacity:1;fill-rule:nonzero;stroke:none"
         id="path40" /><path
         d="m 3514.79,159.793 c 0,-73.7969 -59.89,-133.6914 -133.69,-133.6914 -73.8,0 -133.69,59.8945 -133.69,133.6914 0,73.797 59.89,133.691 133.69,133.691 73.8,0 133.69,-59.894 133.69,-133.691 z"
         style="fill:none;stroke:#000000;stroke-opacity:1;stroke-width:50;stroke-linecap:round;stroke-linejoin:round;stroke-miterlimit:10;stroke-dasharray:none"
         id="path42" /><path
         d="M 292.383,164.402 C 292.383,90.6055 232.488,30.7109 158.691,30.7109 84.8945,30.7109 25,90.6055 25,164.402 c 0,73.797 59.8945,133.692 133.691,133.692 73.797,0 133.692,-59.895 133.692,-133.692"
         style="fill:#ffffff;fill-opacity:1;fill-rule:nonzero;stroke:none"
         id="path44" /><path
         d="M 292.383,164.402 C 292.383,90.6055 232.488,30.7109 158.691,30.7109 84.8945,30.7109 25,90.6055 25,164.402 c 0,73.797 59.8945,133.692 133.691,133.692 73.797,0 133.692,-59.895 133.692,-133.692 z"
         style="fill:none;stroke:#000000;stroke-opacity:1;stroke-width:50;stroke-linecap:round;stroke-linejoin:miter;stroke-miterlimit:10;stroke-dasharray:none"
         id="path46" /><path
         d="m 1209.78,1800.96 189.01,-87.58 -189.01,-92.21 0,179.79"
         style="fill:#000000;fill-opacity:1;fill-rule:evenodd;stroke:none"
         id="path48" /><path
         d="m 1209.78,1800.96 189.01,-87.58 -189.01,-92.21 0,179.79 z"
         style="fill:none;stroke:#000000;stroke-opacity:1;stroke-width:8;stroke-linecap:butt;stroke-linejoin:miter;stroke-miterlimit:10;stroke-dasharray:none"
         id="path50" /><path
         d="m 2327.71,1798.66 -189.01,-87.59 189.01,-92.2 0,179.79"
         style="fill:#000000;fill-opacity:1;fill-rule:evenodd;stroke:none"
         id="path52" /><path
         d="m 2327.71,1798.66 -189.01,-87.59 189.01,-92.2 0,179.79 z"
         style="fill:none;stroke:#000000;stroke-opacity:1;stroke-width:8;stroke-linecap:butt;stroke-linejoin:miter;stroke-miterlimit:10;stroke-dasharray:none"
         id="path54" /><path
         d="m 1104.03,2019.78 205.39,34.83 -103.58,-183.02 -101.81,148.19"
         style="fill:#000000;fill-opacity:1;fill-rule:evenodd;stroke:none"
         id="path56" /><path
         d="m 1104.03,2019.78 205.39,34.83 -103.58,-183.02 -101.81,148.19 z"
         style="fill:none;stroke:#000000;stroke-opacity:1;stroke-width:8;stroke-linecap:butt;stroke-linejoin:miter;stroke-miterlimit:10;stroke-dasharray:none"
         id="path58" /><path
         d="m 1215.43,1549.58 112.11,-175.58 -208.92,24.08 96.81,151.5"
         style="fill:#000000;fill-opacity:1;fill-rule:evenodd;stroke:none"
         id="path60" /><path
         d="m 1215.43,1549.58 112.11,-175.58 -208.92,24.08 96.81,151.5 z"
         style="fill:none;stroke:#000000;stroke-opacity:1;stroke-width:8;stroke-linecap:butt;stroke-linejoin:miter;stroke-miterlimit:10;stroke-dasharray:none"
         id="path62" /><path
         d="m 2447.76,2029.05 -206.14,30.08 107.79,-180.58 98.35,150.5"
         style="fill:#000000;fill-opacity:1;fill-rule:evenodd;stroke:none"
         id="path64" /><path
         d="m 2447.76,2029.05 -206.14,30.08 107.79,-180.58 98.35,150.5 z"
         style="fill:none;stroke:#000000;stroke-opacity:1;stroke-width:8;stroke-linecap:butt;stroke-linejoin:miter;stroke-miterlimit:10;stroke-dasharray:none"
         id="path66" /><path
         d="m 2330.23,1556.3 -111.2,-176.16 208.79,25.16 -97.59,151"
         style="fill:#000000;fill-opacity:1;fill-rule:evenodd;stroke:none"
         id="path68" /><path
         d="m 2330.23,1556.3 -111.2,-176.16 208.79,25.16 -97.59,151 z"
         style="fill:none;stroke:#000000;stroke-opacity:1;stroke-width:8;stroke-linecap:butt;stroke-linejoin:miter;stroke-miterlimit:10;stroke-dasharray:none"
         id="path70" /></g></g></svg>