<?xml version="1.0" encoding="UTF-8" standalone="no"?>
<!-- Created with Inkscape (http://www.inkscape.org/) -->

<svg
   xmlns:dc="http://purl.org/dc/elements/1.1/"
   xmlns:cc="http://creativecommons.org/ns#"
   xmlns:rdf="http://www.w3.org/1999/02/22-rdf-syntax-ns#"
   xmlns:svg="http://www.w3.org/2000/svg"
   xmlns="http://www.w3.org/2000/svg"
   xmlns:sodipodi="http://sodipodi.sourceforge.net/DTD/sodipodi-0.dtd"
   xmlns:inkscape="http://www.inkscape.org/namespaces/inkscape"
   id="svg2"
   version="1.1"
   inkscape:version="0.48.4 r9939"
   width="77.6375"
   height="77.9"
   xml:space="preserve"
   sodipodi:docname="mvc_embed.eps"><metadata
     id="metadata8"><rdf:RDF><cc:Work
         rdf:about=""><dc:format>image/svg+xml</dc:format><dc:type
           rdf:resource="http://purl.org/dc/dcmitype/StillImage" /><dc:title></dc:title></cc:Work></rdf:RDF></metadata><defs
     id="defs6" /><sodipodi:namedview
     pagecolor="#ffffff"
     bordercolor="#666666"
     borderopacity="1"
     objecttolerance="10"
     gridtolerance="10"
     guidetolerance="10"
     inkscape:pageopacity="0"
     inkscape:pageshadow="2"
     inkscape:window-width="640"
     inkscape:window-height="480"
     id="namedview4"
     showgrid="false"
     inkscape:zoom="3.029525"
     inkscape:cx="38.818748"
     inkscape:cy="38.950001"
     inkscape:window-x="63"
     inkscape:window-y="24"
     inkscape:window-maximized="0"
     inkscape:current-layer="g10" /><g
     id="g10"
     inkscape:groupmode="layer"
     inkscape:label="ink_ext_XXXXXX"
     transform="matrix(1.25,0,0,-1.25,0,77.9)"><g
       id="g12"
       transform="scale(0.1,0.1)"><path
         d="m 301.73,274.004 -23.5,23.848 -15.55,-36.637"
         style="fill:#ff8080;fill-opacity:1;fill-rule:evenodd;stroke:none"
         id="path14" /><path
         d="m 301.73,274.004 -23.5,23.848 -15.55,-36.637 39.05,12.789"
         style="fill:none;stroke:#000000;stroke-opacity:1;stroke-width:2.07375;stroke-linecap:butt;stroke-linejoin:round;stroke-miterlimit:10;stroke-dasharray:none"
         id="path16" /><path
         d="m 278.23,297.852 23.5,-23.848 7.95,28.34"
         style="fill:#ff8080;fill-opacity:1;fill-rule:evenodd;stroke:none"
         id="path18" /><path
         d="m 278.23,297.852 23.5,-23.848 7.95,28.34 -31.45,-4.492"
         style="fill:none;stroke:#000000;stroke-opacity:1;stroke-width:2.07375;stroke-linecap:butt;stroke-linejoin:round;stroke-miterlimit:10;stroke-dasharray:none"
         id="path20" /><path
         d="m 327.66,287.824 -17.98,14.52 -7.95,-28.34"
         style="fill:#ff8080;fill-opacity:1;fill-rule:evenodd;stroke:none"
         id="path22" /><path
         d="m 327.66,287.824 -17.98,14.52 -7.95,-28.34 25.93,13.82"
         style="fill:none;stroke:#000000;stroke-opacity:1;stroke-width:2.07375;stroke-linecap:butt;stroke-linejoin:round;stroke-miterlimit:10;stroke-dasharray:none"
         id="path24" /><path
         d="M 309.68,302.344 296.199,322.043 278.23,297.852"
         style="fill:#ff8080;fill-opacity:1;fill-rule:evenodd;stroke:none"
         id="path26" /><path
         d="m 309.68,302.344 -13.481,19.699 -17.969,-24.191 31.45,4.492"
         style="fill:none;stroke:#000000;stroke-opacity:1;stroke-width:2.07375;stroke-linecap:butt;stroke-linejoin:round;stroke-miterlimit:10;stroke-dasharray:none"
         id="path28" /><path
         d="m 231.23,295.773 31.45,-34.558 15.55,36.637"
         style="fill:#ff8080;fill-opacity:1;fill-rule:evenodd;stroke:none"
         id="path30" /><path
         d="m 231.23,295.773 31.45,-34.558 15.55,36.637 -47,-2.079"
         style="fill:none;stroke:#000000;stroke-opacity:1;stroke-width:2.07375;stroke-linecap:butt;stroke-linejoin:round;stroke-miterlimit:10;stroke-dasharray:none"
         id="path32" /><path
         d="m 278.23,297.852 -11.058,35.25 -35.942,-37.329"
         style="fill:#ff8080;fill-opacity:1;fill-rule:evenodd;stroke:none"
         id="path34" /><path
         d="m 278.23,297.852 -11.058,35.25 -35.942,-37.329 47,2.079"
         style="fill:none;stroke:#000000;stroke-opacity:1;stroke-width:2.07375;stroke-linecap:butt;stroke-linejoin:round;stroke-miterlimit:10;stroke-dasharray:none"
         id="path36" /><path
         d="m 225.691,353.152 5.539,-57.379 35.942,37.329"
         style="fill:#ff8080;fill-opacity:1;fill-rule:evenodd;stroke:none"
         id="path38" /><path
         d="m 225.691,353.152 5.539,-57.379 35.942,37.329 -41.481,20.05"
         style="fill:none;stroke:#000000;stroke-opacity:1;stroke-width:2.07375;stroke-linecap:butt;stroke-linejoin:round;stroke-miterlimit:10;stroke-dasharray:none"
         id="path40" /><path
         d="m 278.23,297.852 17.969,24.191 -29.027,11.059"
         style="fill:#ff8080;fill-opacity:1;fill-rule:evenodd;stroke:none"
         id="path42" /><path
         d="m 278.23,297.852 17.969,24.191 -29.027,11.059 11.058,-35.25"
         style="fill:none;stroke:#000000;stroke-opacity:1;stroke-width:2.07375;stroke-linecap:butt;stroke-linejoin:round;stroke-miterlimit:10;stroke-dasharray:none"
         id="path44" /><path
         d="m 338.02,332.063 -28.34,-29.719 17.98,-14.52"
         style="fill:#ff8080;fill-opacity:1;fill-rule:evenodd;stroke:none"
         id="path46" /><path
         d="m 338.02,332.063 -28.34,-29.719 17.98,-14.52 10.36,44.239"
         style="fill:none;stroke:#000000;stroke-opacity:1;stroke-width:2.07375;stroke-linecap:butt;stroke-linejoin:round;stroke-miterlimit:10;stroke-dasharray:none"
         id="path48" /><path
         d="m 309.68,302.344 28.34,29.719 -24.54,10.371"
         style="fill:#ff8080;fill-opacity:1;fill-rule:evenodd;stroke:none"
         id="path50" /><path
         d="m 309.68,302.344 28.34,29.719 -24.54,10.371 -3.8,-40.09"
         style="fill:none;stroke:#000000;stroke-opacity:1;stroke-width:2.07375;stroke-linecap:butt;stroke-linejoin:round;stroke-miterlimit:10;stroke-dasharray:none"
         id="path52" /><path
         d="m 335.602,348.652 -22.122,-6.218 24.54,-10.371"
         style="fill:#ff8080;fill-opacity:1;fill-rule:evenodd;stroke:none"
         id="path54" /><path
         d="m 335.602,348.652 -22.122,-6.218 24.54,-10.371 -2.418,16.589"
         style="fill:none;stroke:#000000;stroke-opacity:1;stroke-width:2.07375;stroke-linecap:butt;stroke-linejoin:round;stroke-miterlimit:10;stroke-dasharray:none"
         id="path56" /><path
         d="M 313.48,342.434 296.199,322.043 309.68,302.344"
         style="fill:#ff8080;fill-opacity:1;fill-rule:evenodd;stroke:none"
         id="path58" /><path
         d="m 313.48,342.434 -17.281,-20.391 13.481,-19.699 3.8,40.09"
         style="fill:none;stroke:#000000;stroke-opacity:1;stroke-width:2.07375;stroke-linecap:butt;stroke-linejoin:round;stroke-miterlimit:10;stroke-dasharray:none"
         id="path60" /><path
         d="m 333.879,354.535 -20.399,-12.101 22.122,6.218"
         style="fill:#ff8080;fill-opacity:1;fill-rule:evenodd;stroke:none"
         id="path62" /><path
         d="m 333.879,354.535 -20.399,-12.101 22.122,6.218 -1.723,5.883"
         style="fill:none;stroke:#000000;stroke-opacity:1;stroke-width:2.07375;stroke-linecap:butt;stroke-linejoin:round;stroke-miterlimit:10;stroke-dasharray:none"
         id="path64" /><path
         d="m 313.48,342.434 20.399,12.101 -31.797,-5.191"
         style="fill:#ff8080;fill-opacity:1;fill-rule:evenodd;stroke:none"
         id="path66" /><path
         d="m 313.48,342.434 20.399,12.101 -31.797,-5.191 11.398,-6.91"
         style="fill:none;stroke:#000000;stroke-opacity:1;stroke-width:2.07375;stroke-linecap:butt;stroke-linejoin:round;stroke-miterlimit:10;stroke-dasharray:none"
         id="path68" /><path
         d="m 315.211,382.184 -13.129,-32.84 31.797,5.191"
         style="fill:#ff8080;fill-opacity:1;fill-rule:evenodd;stroke:none"
         id="path70" /><path
         d="m 315.211,382.184 -13.129,-32.84 31.797,5.191 -18.668,27.649"
         style="fill:none;stroke:#000000;stroke-opacity:1;stroke-width:2.07375;stroke-linecap:butt;stroke-linejoin:round;stroke-miterlimit:10;stroke-dasharray:none"
         id="path72" /><path
         d="m 302.082,349.344 -5.883,-27.301 17.281,20.391"
         style="fill:#ff8080;fill-opacity:1;fill-rule:evenodd;stroke:none"
         id="path74" /><path
         d="m 302.082,349.344 -5.883,-27.301 17.281,20.391 -11.398,6.91"
         style="fill:none;stroke:#000000;stroke-opacity:1;stroke-width:2.07375;stroke-linecap:butt;stroke-linejoin:round;stroke-miterlimit:10;stroke-dasharray:none"
         id="path76" /><path
         d="m 272.352,380.805 29.73,-31.461 13.129,32.84"
         style="fill:#ff8080;fill-opacity:1;fill-rule:evenodd;stroke:none"
         id="path78" /><path
         d="m 272.352,380.805 29.73,-31.461 13.129,32.84 -42.859,-1.379"
         style="fill:none;stroke:#000000;stroke-opacity:1;stroke-width:2.07375;stroke-linecap:butt;stroke-linejoin:round;stroke-miterlimit:10;stroke-dasharray:none"
         id="path80" /><path
         d="m 302.082,349.344 -29.73,31.461 -5.18,-47.703"
         style="fill:#ff8080;fill-opacity:1;fill-rule:evenodd;stroke:none"
         id="path82" /><path
         d="m 302.082,349.344 -29.73,31.461 -5.18,-47.703 34.91,16.242"
         style="fill:none;stroke:#000000;stroke-opacity:1;stroke-width:2.07375;stroke-linecap:butt;stroke-linejoin:round;stroke-miterlimit:10;stroke-dasharray:none"
         id="path84" /><path
         d="m 225.691,353.152 41.481,-20.05 5.18,47.703"
         style="fill:#ff8080;fill-opacity:1;fill-rule:evenodd;stroke:none"
         id="path86" /><path
         d="m 225.691,353.152 41.481,-20.05 5.18,47.703 -46.661,-27.653"
         style="fill:none;stroke:#000000;stroke-opacity:1;stroke-width:2.07375;stroke-linecap:butt;stroke-linejoin:round;stroke-miterlimit:10;stroke-dasharray:none"
         id="path88" /><path
         d="m 267.172,333.102 29.027,-11.059 5.883,27.301"
         style="fill:#ff8080;fill-opacity:1;fill-rule:evenodd;stroke:none"
         id="path90" /><path
         d="m 267.172,333.102 29.027,-11.059 5.883,27.301 -34.91,-16.242"
         style="fill:none;stroke:#000000;stroke-opacity:1;stroke-width:2.07375;stroke-linecap:butt;stroke-linejoin:round;stroke-miterlimit:10;stroke-dasharray:none"
         id="path92" /><path
         d="m 206.34,208.332 56.34,52.883 -31.45,34.558"
         style="fill:#ff8080;fill-opacity:1;fill-rule:evenodd;stroke:none"
         id="path94" /><path
         d="m 206.34,208.332 56.34,52.883 -31.45,34.558 -24.89,-87.441"
         style="fill:none;stroke:#000000;stroke-opacity:1;stroke-width:2.07375;stroke-linecap:butt;stroke-linejoin:round;stroke-miterlimit:10;stroke-dasharray:none"
         id="path96" /><path
         d="m 231.23,295.773 -86.058,22.469 61.168,-109.91"
         style="fill:#ff8080;fill-opacity:1;fill-rule:evenodd;stroke:none"
         id="path98" /><path
         d="m 231.23,295.773 -86.058,22.469 61.168,-109.91 24.89,87.441"
         style="fill:none;stroke:#000000;stroke-opacity:1;stroke-width:2.07375;stroke-linecap:butt;stroke-linejoin:round;stroke-miterlimit:10;stroke-dasharray:none"
         id="path100" /><path
         d="m 0,7.875 206.34,200.457 -61.168,109.91"
         style="fill:#ff8080;fill-opacity:1;fill-rule:evenodd;stroke:none"
         id="path102" /><path
         d="M 0,7.875 206.34,208.332 145.172,318.242 0,7.875"
         style="fill:none;stroke:#000000;stroke-opacity:1;stroke-width:2.07375;stroke-linecap:butt;stroke-linejoin:round;stroke-miterlimit:10;stroke-dasharray:none"
         id="path104" /><path
         d="m 145.172,318.242 86.058,-22.469 -5.539,57.379"
         style="fill:#ff8080;fill-opacity:1;fill-rule:evenodd;stroke:none"
         id="path106" /><path
         d="m 145.172,318.242 86.058,-22.469 -5.539,57.379 -80.519,-34.91"
         style="fill:none;stroke:#000000;stroke-opacity:1;stroke-width:2.07375;stroke-linecap:butt;stroke-linejoin:round;stroke-miterlimit:10;stroke-dasharray:none"
         id="path108" /><path
         d="m 336.301,262.941 -8.641,24.883 -25.93,-13.82"
         style="fill:#ff8080;fill-opacity:1;fill-rule:evenodd;stroke:none"
         id="path110" /><path
         d="m 336.301,262.941 -8.641,24.883 -25.93,-13.82 34.571,-11.063"
         style="fill:none;stroke:#000000;stroke-opacity:1;stroke-width:2.07375;stroke-linecap:butt;stroke-linejoin:round;stroke-miterlimit:10;stroke-dasharray:none"
         id="path112" /><path
         d="m 301.73,274.004 -5.531,-43.902 40.102,32.839"
         style="fill:#ff8080;fill-opacity:1;fill-rule:evenodd;stroke:none"
         id="path114" /><path
         d="m 301.73,274.004 -5.531,-43.902 40.102,32.839 -34.571,11.063"
         style="fill:none;stroke:#000000;stroke-opacity:1;stroke-width:2.07375;stroke-linecap:butt;stroke-linejoin:round;stroke-miterlimit:10;stroke-dasharray:none"
         id="path116" /><path
         d="m 353.23,224.922 -16.929,38.019 -40.102,-32.839"
         style="fill:#ff8080;fill-opacity:1;fill-rule:evenodd;stroke:none"
         id="path118" /><path
         d="m 353.23,224.922 -16.929,38.019 -40.102,-32.839 57.031,-5.18"
         style="fill:none;stroke:#000000;stroke-opacity:1;stroke-width:2.07375;stroke-linecap:butt;stroke-linejoin:round;stroke-miterlimit:10;stroke-dasharray:none"
         id="path120" /><path
         d="m 296.199,230.102 5.531,43.902 -39.05,-12.789"
         style="fill:#ff8080;fill-opacity:1;fill-rule:evenodd;stroke:none"
         id="path122" /><path
         d="m 296.199,230.102 5.531,43.902 -39.05,-12.789 33.519,-31.113"
         style="fill:none;stroke:#000000;stroke-opacity:1;stroke-width:2.07375;stroke-linecap:butt;stroke-linejoin:round;stroke-miterlimit:10;stroke-dasharray:none"
         id="path124" /><path
         d="m 363.941,323.082 -28.339,25.57 2.418,-16.589"
         style="fill:#ff8080;fill-opacity:1;fill-rule:evenodd;stroke:none"
         id="path126" /><path
         d="m 363.941,323.082 -28.339,25.57 2.418,-16.589 25.921,-8.981"
         style="fill:none;stroke:#000000;stroke-opacity:1;stroke-width:2.07375;stroke-linecap:butt;stroke-linejoin:round;stroke-miterlimit:10;stroke-dasharray:none"
         id="path128" /><path
         d="m 338.02,332.063 17.281,-38.711 8.64,29.73"
         style="fill:#ff8080;fill-opacity:1;fill-rule:evenodd;stroke:none"
         id="path130" /><path
         d="m 338.02,332.063 17.281,-38.711 8.64,29.73 -25.921,8.981"
         style="fill:none;stroke:#000000;stroke-opacity:1;stroke-width:2.07375;stroke-linecap:butt;stroke-linejoin:round;stroke-miterlimit:10;stroke-dasharray:none"
         id="path132" /><path
         d="m 386.762,309.602 -22.821,13.48 -8.64,-29.73"
         style="fill:#ff8080;fill-opacity:1;fill-rule:evenodd;stroke:none"
         id="path134" /><path
         d="m 386.762,309.602 -22.821,13.48 -8.64,-29.73 31.461,16.25"
         style="fill:none;stroke:#000000;stroke-opacity:1;stroke-width:2.07375;stroke-linecap:butt;stroke-linejoin:round;stroke-miterlimit:10;stroke-dasharray:none"
         id="path136" /><path
         d="M 355.301,293.352 338.02,332.063 327.66,287.824"
         style="fill:#ff8080;fill-opacity:1;fill-rule:evenodd;stroke:none"
         id="path138" /><path
         d="m 355.301,293.352 -17.281,38.711 -10.36,-44.239 27.641,5.528"
         style="fill:none;stroke:#000000;stroke-opacity:1;stroke-width:2.07375;stroke-linecap:butt;stroke-linejoin:round;stroke-miterlimit:10;stroke-dasharray:none"
         id="path140" /><path
         d="m 355.301,396.352 -40.09,-14.168 18.668,-27.649"
         style="fill:#ff8080;fill-opacity:1;fill-rule:evenodd;stroke:none"
         id="path142" /><path
         d="m 355.301,396.352 -40.09,-14.168 18.668,-27.649 21.422,41.817"
         style="fill:none;stroke:#000000;stroke-opacity:1;stroke-width:2.07375;stroke-linecap:butt;stroke-linejoin:round;stroke-miterlimit:10;stroke-dasharray:none"
         id="path144" /><path
         d="m 333.879,354.535 30.062,0.688 -8.64,41.129"
         style="fill:#ff8080;fill-opacity:1;fill-rule:evenodd;stroke:none"
         id="path146" /><path
         d="m 333.879,354.535 30.062,0.688 -8.64,41.129 -21.422,-41.817"
         style="fill:none;stroke:#000000;stroke-opacity:1;stroke-width:2.07375;stroke-linecap:butt;stroke-linejoin:round;stroke-miterlimit:10;stroke-dasharray:none"
         id="path148" /><path
         d="m 398.16,394.625 -42.859,1.727 8.64,-41.129"
         style="fill:#ff8080;fill-opacity:1;fill-rule:evenodd;stroke:none"
         id="path150" /><path
         d="m 398.16,394.625 -42.859,1.727 8.64,-41.129 34.219,39.402"
         style="fill:none;stroke:#000000;stroke-opacity:1;stroke-width:2.07375;stroke-linecap:butt;stroke-linejoin:round;stroke-miterlimit:10;stroke-dasharray:none"
         id="path152" /><path
         d="m 363.941,355.223 -30.062,-0.688 1.723,-5.883"
         style="fill:#ff8080;fill-opacity:1;fill-rule:evenodd;stroke:none"
         id="path154" /><path
         d="m 363.941,355.223 -30.062,-0.688 1.723,-5.883 28.339,6.571"
         style="fill:none;stroke:#000000;stroke-opacity:1;stroke-width:2.07375;stroke-linecap:butt;stroke-linejoin:round;stroke-miterlimit:10;stroke-dasharray:none"
         id="path156" /><path
         d="m 212.559,438.172 13.132,-85.02 46.661,27.653"
         style="fill:#ff8080;fill-opacity:1;fill-rule:evenodd;stroke:none"
         id="path158" /><path
         d="m 212.559,438.172 13.132,-85.02 46.661,27.653 -59.793,57.367"
         style="fill:none;stroke:#000000;stroke-opacity:1;stroke-width:2.07375;stroke-linecap:butt;stroke-linejoin:round;stroke-miterlimit:10;stroke-dasharray:none"
         id="path160" /><path
         d="m 272.352,380.805 40.097,49.418 -99.89,7.949"
         style="fill:#ff8080;fill-opacity:1;fill-rule:evenodd;stroke:none"
         id="path162" /><path
         d="m 272.352,380.805 40.097,49.418 -99.89,7.949 59.793,-57.367"
         style="fill:none;stroke:#000000;stroke-opacity:1;stroke-width:2.07375;stroke-linecap:butt;stroke-linejoin:round;stroke-miterlimit:10;stroke-dasharray:none"
         id="path164" /><path
         d="m 310.719,517.664 -98.16,-79.492 99.89,-7.949"
         style="fill:#ff8080;fill-opacity:1;fill-rule:evenodd;stroke:none"
         id="path166" /><path
         d="m 310.719,517.664 -98.16,-79.492 99.89,-7.949 -1.73,87.441"
         style="fill:none;stroke:#000000;stroke-opacity:1;stroke-width:2.07375;stroke-linecap:butt;stroke-linejoin:round;stroke-miterlimit:10;stroke-dasharray:none"
         id="path168" /><path
         d="m 312.449,430.223 -40.097,-49.418 42.859,1.379"
         style="fill:#ff8080;fill-opacity:1;fill-rule:evenodd;stroke:none"
         id="path170" /><path
         d="m 312.449,430.223 -40.097,-49.418 42.859,1.379 -2.762,48.039"
         style="fill:none;stroke:#000000;stroke-opacity:1;stroke-width:2.07375;stroke-linecap:butt;stroke-linejoin:round;stroke-miterlimit:10;stroke-dasharray:none"
         id="path172" /><path
         d="M 315.211,148.191 206.34,208.332 0,7.875"
         style="fill:#ff8080;fill-opacity:1;fill-rule:evenodd;stroke:none"
         id="path174" /><path
         d="M 315.211,148.191 206.34,208.332 0,7.875 315.211,148.191"
         style="fill:none;stroke:#000000;stroke-opacity:1;stroke-width:2.07375;stroke-linecap:butt;stroke-linejoin:round;stroke-miterlimit:10;stroke-dasharray:none"
         id="path176" /><path
         d="m 206.34,208.332 108.871,-60.141 -19.012,81.911"
         style="fill:#ff8080;fill-opacity:1;fill-rule:evenodd;stroke:none"
         id="path178" /><path
         d="m 206.34,208.332 108.871,-60.141 -19.012,81.911 -89.859,-21.77"
         style="fill:none;stroke:#000000;stroke-opacity:1;stroke-width:2.07375;stroke-linecap:butt;stroke-linejoin:round;stroke-miterlimit:10;stroke-dasharray:none"
         id="path180" /><path
         d="m 353.23,224.922 -57.031,5.18 19.012,-81.911"
         style="fill:#ff8080;fill-opacity:1;fill-rule:evenodd;stroke:none"
         id="path182" /><path
         d="m 353.23,224.922 -57.031,5.18 19.012,-81.911 38.019,76.731"
         style="fill:none;stroke:#000000;stroke-opacity:1;stroke-width:2.07375;stroke-linecap:butt;stroke-linejoin:round;stroke-miterlimit:10;stroke-dasharray:none"
         id="path184" /><path
         d="M 296.199,230.102 262.68,261.215 206.34,208.332"
         style="fill:#ff8080;fill-opacity:1;fill-rule:evenodd;stroke:none"
         id="path186" /><path
         d="m 296.199,230.102 -33.519,31.113 -56.34,-52.883 89.859,21.77"
         style="fill:none;stroke:#000000;stroke-opacity:1;stroke-width:2.07375;stroke-linecap:butt;stroke-linejoin:round;stroke-miterlimit:10;stroke-dasharray:none"
         id="path188" /><path
         d="m 382.609,269.164 -46.308,-6.223 16.929,-38.019"
         style="fill:#ff8080;fill-opacity:1;fill-rule:evenodd;stroke:none"
         id="path190" /><path
         d="m 382.609,269.164 -46.308,-6.223 16.929,-38.019 29.379,44.242"
         style="fill:none;stroke:#000000;stroke-opacity:1;stroke-width:2.07375;stroke-linecap:butt;stroke-linejoin:round;stroke-miterlimit:10;stroke-dasharray:none"
         id="path192" /><path
         d="m 336.301,262.941 46.308,6.223 -27.308,24.188"
         style="fill:#ff8080;fill-opacity:1;fill-rule:evenodd;stroke:none"
         id="path194" /><path
         d="m 336.301,262.941 46.308,6.223 -27.308,24.188 -19,-30.411"
         style="fill:none;stroke:#000000;stroke-opacity:1;stroke-width:2.07375;stroke-linecap:butt;stroke-linejoin:round;stroke-miterlimit:10;stroke-dasharray:none"
         id="path196" /><path
         d="m 386.762,309.602 -31.461,-16.25 27.308,-24.188"
         style="fill:#ff8080;fill-opacity:1;fill-rule:evenodd;stroke:none"
         id="path198" /><path
         d="m 386.762,309.602 -31.461,-16.25 27.308,-24.188 4.153,40.438"
         style="fill:none;stroke:#000000;stroke-opacity:1;stroke-width:2.07375;stroke-linecap:butt;stroke-linejoin:round;stroke-miterlimit:10;stroke-dasharray:none"
         id="path200" /><path
         d="m 355.301,293.352 -27.641,-5.528 8.641,-24.883"
         style="fill:#ff8080;fill-opacity:1;fill-rule:evenodd;stroke:none"
         id="path202" /><path
         d="m 355.301,293.352 -27.641,-5.528 8.641,-24.883 19,30.411"
         style="fill:none;stroke:#000000;stroke-opacity:1;stroke-width:2.07375;stroke-linecap:butt;stroke-linejoin:round;stroke-miterlimit:10;stroke-dasharray:none"
         id="path204" /><path
         d="m 400.582,350.383 -36.641,-27.301 22.821,-13.48"
         style="fill:#ff8080;fill-opacity:1;fill-rule:evenodd;stroke:none"
         id="path206" /><path
         d="m 400.582,350.383 -36.641,-27.301 22.821,-13.48 13.82,40.781"
         style="fill:none;stroke:#000000;stroke-opacity:1;stroke-width:2.07375;stroke-linecap:butt;stroke-linejoin:round;stroke-miterlimit:10;stroke-dasharray:none"
         id="path208" /><path
         d="m 363.941,323.082 36.641,27.301 -36.641,4.84"
         style="fill:#ff8080;fill-opacity:1;fill-rule:evenodd;stroke:none"
         id="path210" /><path
         d="m 363.941,323.082 36.641,27.301 -36.641,4.84 0,-32.141"
         style="fill:none;stroke:#000000;stroke-opacity:1;stroke-width:2.07375;stroke-linecap:butt;stroke-linejoin:round;stroke-miterlimit:10;stroke-dasharray:none"
         id="path212" /><path
         d="m 398.16,394.625 -34.219,-39.402 36.641,-4.84"
         style="fill:#ff8080;fill-opacity:1;fill-rule:evenodd;stroke:none"
         id="path214" /><path
         d="m 398.16,394.625 -34.219,-39.402 36.641,-4.84 -2.422,44.242"
         style="fill:none;stroke:#000000;stroke-opacity:1;stroke-width:2.07375;stroke-linecap:butt;stroke-linejoin:round;stroke-miterlimit:10;stroke-dasharray:none"
         id="path216" /><path
         d="m 363.941,355.223 -28.339,-6.571 28.339,-25.57"
         style="fill:#ff8080;fill-opacity:1;fill-rule:evenodd;stroke:none"
         id="path218" /><path
         d="m 363.941,355.223 -28.339,-6.571 28.339,-25.57 0,32.141"
         style="fill:none;stroke:#000000;stroke-opacity:1;stroke-width:2.07375;stroke-linecap:butt;stroke-linejoin:round;stroke-miterlimit:10;stroke-dasharray:none"
         id="path220" /><path
         d="m 408.531,462.715 -53.23,-66.363 42.859,-1.727"
         style="fill:#ff8080;fill-opacity:1;fill-rule:evenodd;stroke:none"
         id="path222" /><path
         d="m 408.531,462.715 -53.23,-66.363 42.859,-1.727 10.371,68.09"
         style="fill:none;stroke:#000000;stroke-opacity:1;stroke-width:2.07375;stroke-linecap:butt;stroke-linejoin:round;stroke-miterlimit:10;stroke-dasharray:none"
         id="path224" /><path
         d="m 355.301,396.352 53.23,66.363 -96.082,-32.492"
         style="fill:#ff8080;fill-opacity:1;fill-rule:evenodd;stroke:none"
         id="path226" /><path
         d="m 355.301,396.352 53.23,66.363 -96.082,-32.492 42.852,-33.871"
         style="fill:none;stroke:#000000;stroke-opacity:1;stroke-width:2.07375;stroke-linecap:butt;stroke-linejoin:round;stroke-miterlimit:10;stroke-dasharray:none"
         id="path228" /><path
         d="m 310.719,517.664 1.73,-87.441 96.082,32.492"
         style="fill:#ff8080;fill-opacity:1;fill-rule:evenodd;stroke:none"
         id="path230" /><path
         d="m 310.719,517.664 1.73,-87.441 96.082,32.492 -97.812,54.949"
         style="fill:none;stroke:#000000;stroke-opacity:1;stroke-width:2.07375;stroke-linecap:butt;stroke-linejoin:round;stroke-miterlimit:10;stroke-dasharray:none"
         id="path232" /><path
         d="m 312.449,430.223 2.762,-48.039 40.09,14.168"
         style="fill:#ff8080;fill-opacity:1;fill-rule:evenodd;stroke:none"
         id="path234" /><path
         d="m 312.449,430.223 2.762,-48.039 40.09,14.168 -42.852,33.871"
         style="fill:none;stroke:#000000;stroke-opacity:1;stroke-width:2.07375;stroke-linecap:butt;stroke-linejoin:round;stroke-miterlimit:10;stroke-dasharray:none"
         id="path236" /><path
         d="m 0,628.965 212.559,-190.793 98.16,79.492"
         style="fill:#ff8080;fill-opacity:1;fill-rule:evenodd;stroke:none"
         id="path238" /><path
         d="M 0,628.965 212.559,438.172 310.719,517.664 0,628.965"
         style="fill:none;stroke:#000000;stroke-opacity:1;stroke-width:2.07375;stroke-linecap:butt;stroke-linejoin:round;stroke-miterlimit:10;stroke-dasharray:none"
         id="path240" /><path
         d="M 212.559,438.172 0,628.965 145.172,318.242"
         style="fill:#ff8080;fill-opacity:1;fill-rule:evenodd;stroke:none"
         id="path242" /><path
         d="M 212.559,438.172 0,628.965 145.172,318.242 l 67.387,119.93"
         style="fill:none;stroke:#000000;stroke-opacity:1;stroke-width:2.07375;stroke-linecap:butt;stroke-linejoin:round;stroke-miterlimit:10;stroke-dasharray:none"
         id="path244" /><path
         d="M 0,7.875 145.172,318.242 0,628.965"
         style="fill:#ff8080;fill-opacity:1;fill-rule:evenodd;stroke:none"
         id="path246" /><path
         d="M 0,7.875 145.172,318.242 0,628.965 0,7.875"
         style="fill:none;stroke:#000000;stroke-opacity:1;stroke-width:2.07375;stroke-linecap:butt;stroke-linejoin:round;stroke-miterlimit:10;stroke-dasharray:none"
         id="path248" /><path
         d="m 145.172,318.242 80.519,34.91 -13.132,85.02"
         style="fill:#ff8080;fill-opacity:1;fill-rule:evenodd;stroke:none"
         id="path250" /><path
         d="m 145.172,318.242 80.519,34.91 -13.132,85.02 -67.387,-119.93"
         style="fill:none;stroke:#000000;stroke-opacity:1;stroke-width:2.07375;stroke-linecap:butt;stroke-linejoin:round;stroke-miterlimit:10;stroke-dasharray:none"
         id="path252" /><path
         d="m 436.18,213.863 -82.95,11.059 -38.019,-76.731"
         style="fill:#ff8080;fill-opacity:1;fill-rule:evenodd;stroke:none"
         id="path254" /><path
         d="m 436.18,213.863 -82.95,11.059 -38.019,-76.731 120.969,65.672"
         style="fill:none;stroke:#000000;stroke-opacity:1;stroke-width:2.07375;stroke-linecap:butt;stroke-linejoin:round;stroke-miterlimit:10;stroke-dasharray:none"
         id="path256" /><path
         d="M 315.211,148.191 620.75,7.875 436.18,213.863"
         style="fill:#ff8080;fill-opacity:1;fill-rule:evenodd;stroke:none"
         id="path258" /><path
         d="M 315.211,148.191 620.75,7.875 436.18,213.863 315.211,148.191"
         style="fill:none;stroke:#000000;stroke-opacity:1;stroke-width:2.07375;stroke-linecap:butt;stroke-linejoin:round;stroke-miterlimit:10;stroke-dasharray:none"
         id="path260" /><path
         d="M 513.949,314.094 436.18,213.863 620.75,7.875"
         style="fill:#ff8080;fill-opacity:1;fill-rule:evenodd;stroke:none"
         id="path262" /><path
         d="M 513.949,314.094 436.18,213.863 620.75,7.875 513.949,314.094"
         style="fill:none;stroke:#000000;stroke-opacity:1;stroke-width:2.07375;stroke-linecap:butt;stroke-linejoin:round;stroke-miterlimit:10;stroke-dasharray:none"
         id="path264" /><path
         d="M 620.75,7.875 315.211,148.191 0,7.875"
         style="fill:#ff8080;fill-opacity:1;fill-rule:evenodd;stroke:none"
         id="path266" /><path
         d="M 620.75,7.875 315.211,148.191 0,7.875 l 620.75,0"
         style="fill:none;stroke:#000000;stroke-opacity:1;stroke-width:2.07375;stroke-linecap:butt;stroke-linejoin:round;stroke-miterlimit:10;stroke-dasharray:none"
         id="path268" /><path
         d="m 431,310.984 -44.238,-1.382 -4.153,-40.438"
         style="fill:#ff8080;fill-opacity:1;fill-rule:evenodd;stroke:none"
         id="path270" /><path
         d="m 431,310.984 -44.238,-1.382 -4.153,-40.438 48.391,41.82"
         style="fill:none;stroke:#000000;stroke-opacity:1;stroke-width:2.07375;stroke-linecap:butt;stroke-linejoin:round;stroke-miterlimit:10;stroke-dasharray:none"
         id="path272" /><path
         d="M 382.609,269.164 436.18,213.863 431,310.984"
         style="fill:#ff8080;fill-opacity:1;fill-rule:evenodd;stroke:none"
         id="path274" /><path
         d="M 382.609,269.164 436.18,213.863 431,310.984 382.609,269.164"
         style="fill:none;stroke:#000000;stroke-opacity:1;stroke-width:2.07375;stroke-linecap:butt;stroke-linejoin:round;stroke-miterlimit:10;stroke-dasharray:none"
         id="path276" /><path
         d="M 513.949,314.094 431,310.984 436.18,213.863"
         style="fill:#ff8080;fill-opacity:1;fill-rule:evenodd;stroke:none"
         id="path278" /><path
         d="m 513.949,314.094 -82.949,-3.11 5.18,-97.121 77.769,100.231"
         style="fill:none;stroke:#000000;stroke-opacity:1;stroke-width:2.07375;stroke-linecap:butt;stroke-linejoin:round;stroke-miterlimit:10;stroke-dasharray:none"
         id="path280" /><path
         d="M 436.18,213.863 382.609,269.164 353.23,224.922"
         style="fill:#ff8080;fill-opacity:1;fill-rule:evenodd;stroke:none"
         id="path282" /><path
         d="m 436.18,213.863 -53.571,55.301 -29.379,-44.242 82.95,-11.059"
         style="fill:none;stroke:#000000;stroke-opacity:1;stroke-width:2.07375;stroke-linecap:butt;stroke-linejoin:round;stroke-miterlimit:10;stroke-dasharray:none"
         id="path284" /><path
         d="m 462.102,408.793 -63.942,-14.168 2.422,-44.242"
         style="fill:#ff8080;fill-opacity:1;fill-rule:evenodd;stroke:none"
         id="path286" /><path
         d="m 462.102,408.793 -63.942,-14.168 2.422,-44.242 61.52,58.41"
         style="fill:none;stroke:#000000;stroke-opacity:1;stroke-width:2.07375;stroke-linecap:butt;stroke-linejoin:round;stroke-miterlimit:10;stroke-dasharray:none"
         id="path288" /><path
         d="M 400.582,350.383 431,310.984 l 31.102,97.809"
         style="fill:#ff8080;fill-opacity:1;fill-rule:evenodd;stroke:none"
         id="path290" /><path
         d="M 400.582,350.383 431,310.984 l 31.102,97.809 -61.52,-58.41"
         style="fill:none;stroke:#000000;stroke-opacity:1;stroke-width:2.07375;stroke-linecap:butt;stroke-linejoin:round;stroke-miterlimit:10;stroke-dasharray:none"
         id="path292" /><path
         d="M 513.949,314.094 462.102,408.793 431,310.984"
         style="fill:#ff8080;fill-opacity:1;fill-rule:evenodd;stroke:none"
         id="path294" /><path
         d="M 513.949,314.094 462.102,408.793 431,310.984 l 82.949,3.11"
         style="fill:none;stroke:#000000;stroke-opacity:1;stroke-width:2.07375;stroke-linecap:butt;stroke-linejoin:round;stroke-miterlimit:10;stroke-dasharray:none"
         id="path296" /><path
         d="m 431,310.984 -30.418,39.399 -13.82,-40.781"
         style="fill:#ff8080;fill-opacity:1;fill-rule:evenodd;stroke:none"
         id="path298" /><path
         d="m 431,310.984 -30.418,39.399 -13.82,-40.781 44.238,1.382"
         style="fill:none;stroke:#000000;stroke-opacity:1;stroke-width:2.07375;stroke-linecap:butt;stroke-linejoin:round;stroke-miterlimit:10;stroke-dasharray:none"
         id="path300" /><path
         d="M 620.75,628.965 310.719,517.664 408.531,462.715"
         style="fill:#ff8080;fill-opacity:1;fill-rule:evenodd;stroke:none"
         id="path302" /><path
         d="M 620.75,628.965 310.719,517.664 408.531,462.715 620.75,628.965"
         style="fill:none;stroke:#000000;stroke-opacity:1;stroke-width:2.07375;stroke-linecap:butt;stroke-linejoin:round;stroke-miterlimit:10;stroke-dasharray:none"
         id="path304" /><path
         d="M 408.531,462.715 462.102,408.793 620.75,628.965"
         style="fill:#ff8080;fill-opacity:1;fill-rule:evenodd;stroke:none"
         id="path306" /><path
         d="M 408.531,462.715 462.102,408.793 620.75,628.965 408.531,462.715"
         style="fill:none;stroke:#000000;stroke-opacity:1;stroke-width:2.07375;stroke-linecap:butt;stroke-linejoin:round;stroke-miterlimit:10;stroke-dasharray:none"
         id="path308" /><path
         d="M 513.949,314.094 620.75,628.965 462.102,408.793"
         style="fill:#ff8080;fill-opacity:1;fill-rule:evenodd;stroke:none"
         id="path310" /><path
         d="M 513.949,314.094 620.75,628.965 462.102,408.793 513.949,314.094"
         style="fill:none;stroke:#000000;stroke-opacity:1;stroke-width:2.07375;stroke-linecap:butt;stroke-linejoin:round;stroke-miterlimit:10;stroke-dasharray:none"
         id="path312" /><path
         d="m 462.102,408.793 -53.571,53.922 -10.371,-68.09"
         style="fill:#ff8080;fill-opacity:1;fill-rule:evenodd;stroke:none"
         id="path314" /><path
         d="m 462.102,408.793 -53.571,53.922 -10.371,-68.09 63.942,14.168"
         style="fill:none;stroke:#000000;stroke-opacity:1;stroke-width:2.07375;stroke-linecap:butt;stroke-linejoin:round;stroke-miterlimit:10;stroke-dasharray:none"
         id="path316" /><path
         d="M 513.949,314.094 620.75,7.875 l 0,621.09"
         style="fill:#ff8080;fill-opacity:1;fill-rule:evenodd;stroke:none"
         id="path318" /><path
         d="M 513.949,314.094 620.75,7.875 l 0,621.09 -106.801,-314.871"
         style="fill:none;stroke:#000000;stroke-opacity:1;stroke-width:2.07375;stroke-linecap:butt;stroke-linejoin:round;stroke-miterlimit:10;stroke-dasharray:none"
         id="path320" /><path
         d="M 620.75,628.965 0,628.965 310.719,517.664"
         style="fill:#ff8080;fill-opacity:1;fill-rule:evenodd;stroke:none"
         id="path322" /><path
         d="M 620.75,628.965 0,628.965 310.719,517.664 620.75,628.965"
         style="fill:none;stroke:#000000;stroke-opacity:1;stroke-width:2.07375;stroke-linecap:butt;stroke-linejoin:round;stroke-miterlimit:10;stroke-dasharray:none"
         id="path324" /></g></g></svg>